<?xml version="1.0" encoding="UTF-8"?>
<svg width="22px" height="21px" viewBox="0 0 22 21" version="1.1" xmlns="http://www.w3.org/2000/svg" xmlns:xlink="http://www.w3.org/1999/xlink">
    <!-- Generator: sketchtool 50.2 (55047) - http://www.bohemiancoding.com/sketch -->
    <title>EDEE8AB0-329D-4DD5-9414-D8292B28CD98</title>
    <desc>Created with sketchtool.</desc>
    <defs></defs>
    <g id="Conference" stroke="none" stroke-width="1" fill="none" fill-rule="evenodd">
        <g id="page1" transform="translate(-765.000000, -358.000000)" fill="#FFFFFF">
            <g id="pop-up-1" transform="translate(270.000000, 232.000000)">
                <g id="Group-5" transform="translate(480.000000, 111.000000)">
                    <g id="Group-4" transform="translate(1.000000, 0.000000)">
                        <g id="icon">
                            <path d="M33.5693392,35.1132686 L16.3438617,35.1132686 C15.0299652,35.1132686 14,33.8849721 14,32.3173408 L14,19.6405564 C14,18.0729251 14.5907294,16.9574216 15.9055786,16.9574216 L21.6223143,16.9574216 L21.6223143,16.0015488 C21.6223143,15.4872893 21.9338764,15.0485437 22.4521938,15.0485437 C22.971464,15.0485437 23.391644,15.4662601 23.391644,15.9805196 L23.5278929,16.9574216 L26.3862608,16.9574216 L26.5225096,15.9805196 C26.5225096,15.4662601 26.9426897,15.0485437 27.4610071,15.0485437 C27.9802773,15.0485437 28.4004573,15.4662601 28.4004573,15.9805196 L28.2918394,16.9574216 L34.0085751,16.9574216 C35.3234243,16.9574216 35.9141537,18.0729251 35.9141537,19.6405564 L35.9141537,32.3173408 C35.9141537,33.8849721 34.8841885,35.1132686 33.5693392,35.1132686 L33.5693392,35.1132686 Z M33.5693392,18.7085805 L28.4004573,18.7085805 L28.4004573,19.0871061 C28.4004573,19.6013656 27.8573674,19.8250398 27.3390501,19.8250398 C26.8197799,19.8250398 26.5225096,19.6013656 26.5225096,19.0871061 L26.5225096,18.7085805 L23.391644,18.7085805 L23.391644,19.0871061 C23.391644,19.6013656 23.093421,19.8250398 22.5751036,19.8250398 C22.0558335,19.8250398 21.5136963,19.6013656 21.5136963,19.0871061 L21.5136963,18.7085805 L15.9055786,18.8691671 C15.7416988,18.8691671 15.8779477,19.0622534 15.8779477,19.6405564 L15.9055786,21.7367853 L34.0085751,21.7367853 L34.036206,19.6405564 C34.036206,19.0622534 33.7341718,18.7085805 33.5693392,18.7085805 L33.5693392,18.7085805 Z M34.036206,32.3173408 L34.0085751,23.6485308 L15.9055786,23.6485308 L15.8779477,32.3173408 C15.8779477,32.8956438 15.7416988,33.2072583 15.9055786,33.2072583 L34.0085751,33.2072583 C34.1724549,33.2072583 34.036206,32.8956438 34.036206,32.3173408 L34.036206,32.3173408 Z M21.6223143,30.3396401 L18.7639465,30.3396401 L18.7639465,27.4720218 C18.7639465,27.1288635 18.6629508,26.5438694 19.0088133,26.5438694 L21.9310181,26.5438694 C22.2768806,26.5438694 22.5570006,26.8210725 22.5570006,27.1651867 L22.5570006,30.0633929 C22.5570006,30.4065512 21.9681768,30.3396401 21.6223143,30.3396401 L21.6223143,30.3396401 Z M18.7639465,30.3396401 C18.4180839,30.3396401 18.7639465,30.062437 18.7639465,30.3396401 L18.7639465,30.3396401 Z" id="calendar-icon"></path>
                        </g>
                    </g>
                </g>
            </g>
        </g>
    </g>
</svg>