<?xml version="1.0" encoding="UTF-8"?>
<svg width="11px" height="7px" viewBox="0 0 11 7" version="1.1" xmlns="http://www.w3.org/2000/svg" xmlns:xlink="http://www.w3.org/1999/xlink">
    <!-- Generator: sketchtool 50.2 (55047) - http://www.bohemiancoding.com/sketch -->
    <title>92DEE0EF-BDD9-4368-B5BD-EE408A855697</title>
    <desc>Created with sketchtool.</desc>
    <defs></defs>
    <g id="Conference" stroke="none" stroke-width="1" fill="none" fill-rule="evenodd">
        <g id="page1" transform="translate(-861.000000, -541.000000)" fill="#808FA3" stroke="#808FA3" stroke-width="0.3">
            <g id="pop-up-1" transform="translate(270.000000, 232.000000)">
                <g id="Group-5" transform="translate(480.000000, 111.000000)">
                    <g id="time" transform="translate(1.000000, 152.491909)">
                        <path d="M118.272529,52.3929395 C118.528658,52.6400518 118.536702,53.0487314 118.290387,53.3058509 C118.164092,53.4375581 117.995324,53.5038959 117.826394,53.5038959 C117.665831,53.5038959 117.505267,53.4441757 117.380421,53.3237669 L113.197406,49.2886211 C113.071272,49.1669211 113,48.9987362 113,48.8231266 C113,48.6476785 113.071272,48.4794936 113.197406,48.3577936 L117.380421,44.3226477 C117.63655,44.0755354 118.044072,44.0834443 118.290387,44.3405638 C118.536702,44.5976833 118.528658,45.0063628 118.272529,45.2534752 L114.572009,48.8231266 L118.272529,52.3929395 Z" id="chevron" transform="translate(115.735000, 48.823145) scale(-1, 1) rotate(-90.000000) translate(-115.735000, -48.823145) "></path>
                    </g>
                </g>
            </g>
        </g>
    </g>
</svg>