<?xml version="1.0" encoding="UTF-8"?>
<svg width="34px" height="21px" viewBox="0 0 34 21" version="1.1" xmlns="http://www.w3.org/2000/svg" xmlns:xlink="http://www.w3.org/1999/xlink">
    <!-- Generator: Sketch 49.2 (51160) - http://www.bohemiancoding.com/sketch -->
    <title>cloud-internet-symbol</title>
    <desc>Created with Sketch.</desc>
    <defs></defs>
    <g id="Conference" stroke="none" stroke-width="1" fill="none" fill-rule="evenodd">
        <g id="landing-page" transform="translate(-530.000000, -2452.000000)" fill="#ED3F62" fill-rule="nonzero">
            <g id="cloud-internet-symbol" transform="translate(530.000000, 2452.000000)">
                <path d="M21.25,2.1 C24.7404453,2.1 27.5834961,4.88499375 27.625,8.32210312 C27.6083984,8.44928437 27.5959141,8.5764 27.5917969,8.70765 L27.537875,10.2498375 L29.0154141,10.7584312 C30.725375,11.3469562 31.875,12.9321937 31.875,14.7 C31.875,17.01735 29.9699375,18.9 27.625,18.9 L6.375,18.9 C4.03212109,18.9 2.125,17.01735 2.125,14.7 C2.125,12.4071937 3.99685938,10.5368812 6.30859375,10.5 C6.40820313,10.5143719 6.51199609,10.5266437 6.61572266,10.5328125 L8.23025781,10.6374187 L8.76150781,9.13007812 C9.35916406,7.43616562 10.9612148,6.3 12.75,6.3 C12.9575195,6.3 13.1858242,6.32460937 13.4929531,6.3779625 L14.9808516,6.64249687 L15.7216797,5.34023437 C16.8588867,3.34280625 18.9755859,2.1 21.25,2.1 Z M21.25,0 C18.0666172,0 15.3253008,1.7514 13.8685469,4.310775 C13.5053711,4.24718437 13.1338945,4.2 12.75,4.2 C9.96505469,4.2 7.62217578,5.97600937 6.75477734,8.43694688 C6.62820703,8.42874375 6.50575391,8.4 6.375,8.4 C2.85546875,8.4 0,11.221875 0,14.7 C0,18.178125 2.85546875,21 6.375,21 L27.625,21 C31.1445312,21 34,18.178125 34,14.7 C34,11.9478188 32.2029141,9.63046875 29.7126797,8.77320938 C29.7167969,8.64609375 29.75,8.52718125 29.75,8.4 C29.75,3.76116562 25.944125,0 21.25,0 Z" id="Shape"></path>
            </g>
        </g>
    </g>
</svg>