<svg width="30" height="31" fill="none" xmlns="http://www.w3.org/2000/svg"><path d="M14.726 30.128c-.682 0-1.173-.107-1.472-.32-.298-.213-.448-.533-.448-.96V17.392H1.35c-.469 0-.81-.107-1.024-.32-.17-.256-.256-.704-.256-1.344v-.448c0-1.45.427-2.176 1.28-2.176h11.456V1.648c0-.47.15-.79.448-.96.299-.213.79-.32 1.472-.32h.448c.683 0 1.174.107 1.472.32.299.213.448.534.448.96v11.456h11.392c.47 0 .79.15.96.448.214.299.32.79.32 1.472v.448c0 .683-.106 1.173-.32 1.472-.17.299-.49.448-.96.448H17.094v11.456c0 .427-.149.747-.448.96-.298.213-.789.32-1.472.32h-.448z" fill="#DB4F5F"/></svg>