<svg width="122" height="122" fill="none" xmlns="http://www.w3.org/2000/svg"><g filter="url(#filter0_d)" stroke="#3867D4" stroke-width="1.932"><path d="M113.004 64.984c0 30.939-25.08 56.019-56.02 56.019-30.938 0-56.018-25.08-56.018-56.019 0-30.938 25.08-56.018 56.019-56.018 30.938 0 56.019 25.08 56.019 56.018z" fill="#fff"/><path d="M46.269 83.508c1-1.246 2.947-4.1 2.729-5.54-.273-1.8-1.91-3.739-3.548-3.323-1.637.415-6.004 4.847-6.277 6.093-.273 1.247-1.091 2.632.683 4.155 1.773 1.523 2.183 1.939 3.684 2.077 1.5.139 1.364-.138 2.729.97 1.364 1.108 3.138 2.077 5.322 1.662 2.183-.416 2.592.415 3.547.83.955.416 4.23 1.94 5.322-2.077 1.091-4.016-.137-5.262-1.638-5.816-2.64-.975-4.663 4.957-5.594 4.431-1.228-.692 3.515-5.266.41-7.755-2.593-2.078-5.823 1.985-7.37 4.293zM64.004 60.657c2.047 2.031 6.878 6.481 9.825 8.033 3.094 1.628 7.438 5.111 8.752 6.924m-10.935 2.908c1.82 1.154 6.058 3.269 8.46 2.493 3.002-.97 2.865-3.324 2.865-4.57 0-.2-.14-.485-.39-.83M60.32 89.185c.864.092 2.81.11 3.683-.554.874-.665.91-1.2.82-1.385.863.093 2.81.139 3.683-.415.874-.554 1.365-1.524 1.501-1.94.683.232 2.402.389 3.821-.83 1.42-1.219 1.228-2.908.713-4.016m15.798-8.033c-1.32-.092-4.121-.083-4.776.693-.819.97-1.191 1.8-2.983 2.908"/><path d="M30.848 75.752c.818.093 2.674.582 3.547 1.8 1.092 1.524 1.774 3.186 4.367 4.848M59.636 52.625c-1.455-.462-5.158-.997-8.323.554-3.957 1.939-5.731 3.462-6.96 2.908-.982-.443-3.684-1.754-4.912-2.354M11.334 36.976l20.059 11.217c.318 2.447-1.413 9.102-6.14 18.835-4.776 9.832-8.006 12.51-8.46 13.018L1.93 74.643"/><path d="M21.703 73.26l8.733 3.185c1.638-2.077 4.83-7.866 6.14-11.633 1.31-3.767 2.866-9.28 2.866-11.91l-7.914-3.878M81.196 52.348c-.546.185-2.047.72-3.684 1.385-2.047.83-12.827-2.908-14.464-2.631-1.638.277-5.459 2.492-7.778 4.016-1.856 1.218-5.185 8.032-5.868 10.248 0 1.108 2.047 1.883 5.322 1.108 3.997-.947 2.426-4.038 6.642-5.827m.317-.128c-.11.042-.215.085-.317.128m0 0h2.637"/><path d="M86.793 49.44l-6.004 2.493c1.91 2.354 5.049 8.309 6.413 11.633 1.381 3.364 3.139 8.309 3.548 10.525l6.277-2.242m1.091-.39l-1.091.39m5.867-32.934l-16.51 9.694c1.819 2.123 5.949 7.45 7.914 11.771 2.456 5.401 4.366 11.495 4.23 12.603-.11.886-1.046-.386-1.501-1.134"/><path d="M112.033 72.014c-3.957 1.846-12.035 5.484-12.69 5.262-.818-.277-1.637-.83-4.23-4.708M32.484 76.168c-1.091.462-2.974 1.884-1.773 3.878 1.2 1.994 4.684 1.57 6.276 1.108"/></g><defs><filter id="filter0_d" x="0" y=".273" width="121.696" height="121.695" filterUnits="userSpaceOnUse" color-interpolation-filters="sRGB"><feFlood flood-opacity="0" result="BackgroundImageFix"/><feColorMatrix in="SourceAlpha" values="0 0 0 0 0 0 0 0 0 0 0 0 0 0 0 0 0 0 127 0"/><feOffset dx="7.727" dy="-7.727"/><feColorMatrix values="0 0 0 0 0 0 0 0 0 0 0 0 0 0 0 0 0 0 0.1 0"/><feBlend in2="BackgroundImageFix" result="effect1_dropShadow"/><feBlend in="SourceGraphic" in2="effect1_dropShadow" result="shape"/></filter></defs></svg>