<svg width="33" height="27" fill="none" xmlns="http://www.w3.org/2000/svg"><rect width="28.041" height="20.284" rx="2.898" transform="rotate(-14.983 27.565 3.625) skewX(.034)" fill="#7290D5"/><path fill-rule="evenodd" clip-rule="evenodd" d="M31.262 19.06a2.886 2.886 0 0 1-1.718 1.28l-21.49 5.751a2.89 2.89 0 0 1-2.133-.253l6.3-15.284c.97-2.352 3.912-3.14 5.93-1.586L31.26 19.06z" fill="#82A2EB"/><path fill-rule="evenodd" clip-rule="evenodd" d="M26.378.978A2.889 2.889 0 0 0 24.29.749L2.8 6.5a2.885 2.885 0 0 0-1.694 1.242l12.945 9.32a3.863 3.863 0 0 0 5.78-1.548L26.378.978z" fill="#C9D8FD"/></svg>