<svg width="716" height="441" viewBox="0 0 716 441" fill="none" xmlns="http://www.w3.org/2000/svg">
<g filter="url(#filter0_d)">
<path d="M8 22C8 10.9543 16.9543 2 28 2H688C699.046 2 708 10.9543 708 22V407C708 418.046 699.046 427 688 427H28C16.9543 427 8 418.046 8 407V22Z" fill="white"/>
</g>
<rect x="260" y="43" width="199" height="196" rx="98" fill="#FFC03A"/>
<mask id="mask0" mask-type="alpha" maskUnits="userSpaceOnUse" x="260" y="43" width="199" height="196">
<rect x="260" y="43" width="199" height="196" rx="98" fill="#FFC03A"/>
</mask>
<g mask="url(#mask0)">
<path d="M318.034 189.894C296.464 205.55 292.336 230.882 293.603 242.531C297.231 284.569 406.373 261.371 412.84 238.508C419.306 215.644 414.608 211.44 413.482 183.745C412.356 156.05 398.16 120.82 393.038 121.378C388.94 121.824 384.995 132.626 383.534 137.972C382.086 137.658 378.529 137.008 375.881 136.919C373.233 136.83 368.569 137.558 366.568 137.933C366.426 132.29 364.238 120.836 356.626 120.156C347.11 119.306 333.278 174.089 332.235 177.503C331.193 180.917 330.261 181.019 318.034 189.894Z" fill="#474747"/>
<path d="M385.152 188.984C385.152 190.584 381.044 196.71 375.976 196.71C370.909 196.71 366.801 190.584 366.801 188.984C366.801 187.383 370.909 186.086 375.976 186.086C381.044 186.086 385.152 187.383 385.152 188.984Z" fill="#3D3D3D"/>
<path d="M296.295 218.925C301.704 201.153 317.865 188.662 325.27 184.637C307.885 219.408 317.543 224.72 318.026 236.31C318.412 245.582 306.275 246.934 300.158 246.451C296.617 244.68 290.886 236.696 296.295 218.925Z" fill="#3D3D3D"/>
<path d="M362.896 163.079C362.754 167.515 358.657 170.983 353.744 170.825C348.832 170.668 344.964 166.945 345.106 162.509C345.248 158.074 349.432 151.929 354.344 152.086C359.257 152.244 363.038 158.644 362.896 163.079Z" fill="white"/>
<ellipse rx="1.40519" ry="6.09334" transform="matrix(0.999486 0.0320452 -0.032001 0.999488 353.124 160.957)" fill="#303030"/>
<path d="M405.341 162.038C405.005 165.802 403.382 169.142 399.504 169.28C395.626 169.417 391.414 165.815 391.298 162.536C391.132 157.851 395.965 152.521 399.843 152.383C403.721 152.246 405.676 158.274 405.341 162.038Z" fill="white"/>
<ellipse rx="1.40519" ry="5.1559" transform="matrix(0.999372 -0.0354393 0.0353905 0.999374 399.208 160.848)" fill="#303030"/>
<path d="M381.415 170.018C381.415 171.053 379.528 173.299 377.2 173.299C374.872 173.299 372.984 171.053 372.984 170.018C372.984 168.982 374.872 168.143 377.2 168.143C379.528 168.143 381.415 168.982 381.415 170.018Z" fill="#EE8496"/>
<path d="M316.434 119.225C315.98 102.063 305.411 97.1342 300.183 96.815C285.417 98.0135 289.825 118.44 291.87 126.124C293.916 133.808 283.907 136.137 271.679 140.43C259.45 144.723 264.24 227.117 277.321 226.026C290.402 224.935 279.63 161.284 293.544 156.884C307.459 152.484 317.002 140.677 316.434 119.225Z" fill="#474747"/>
<path d="M291.54 130.831C289.774 133.713 286.726 134.867 285.367 135.544C290.123 140.724 299.75 138.693 301.064 131.003C302.378 123.312 290.599 118.161 290.651 119.525C290.718 121.265 292.612 129.081 291.54 130.831Z" fill="#414141"/>
</g>
<path fill-rule="evenodd" clip-rule="evenodd" d="M464.5 55C444.342 55 428 71.3416 428 91.5C428 104.863 435.181 116.549 445.894 122.909C444.044 130.68 439.686 137.914 432.966 143.284C432.5 143.656 432.028 144.015 431.55 144.362C440.707 145.174 450.18 142.597 457.933 136.401C461.003 133.948 463.58 131.105 465.65 128H621.5C641.658 128 658 111.658 658 91.5C658 71.3416 641.658 55 621.5 55H464.5Z" fill="#222222"/>
<path d="M478.698 85C478.47 85 478.302 84.946 478.194 84.838C478.086 84.73 478.032 84.562 478.032 84.334V73.066C478.032 72.826 478.086 72.658 478.194 72.562C478.302 72.454 478.47 72.4 478.698 72.4H482.478C484.266 72.4 485.658 72.928 486.654 73.984C487.662 75.04 488.166 76.612 488.166 78.7C488.166 80.788 487.662 82.36 486.654 83.416C485.658 84.472 484.266 85 482.478 85H478.698ZM482.424 82.984C483.468 82.984 484.278 82.63 484.854 81.922C485.442 81.202 485.736 80.128 485.736 78.7C485.736 77.272 485.442 76.204 484.854 75.496C484.278 74.776 483.468 74.416 482.424 74.416H480.408V82.984H482.424ZM492.654 85.126C491.742 85.126 491.046 84.892 490.566 84.424C490.086 83.944 489.846 83.296 489.846 82.48C489.846 80.272 491.664 79.162 495.3 79.15V78.466C495.3 77.674 494.766 77.278 493.698 77.278C493.254 77.278 492.864 77.332 492.528 77.44C492.192 77.536 491.898 77.644 491.646 77.764C491.394 77.872 491.25 77.926 491.214 77.926C491.058 77.926 490.878 77.758 490.674 77.422C490.482 77.086 490.386 76.834 490.386 76.666C490.386 76.474 490.536 76.288 490.836 76.108C491.148 75.916 491.568 75.76 492.096 75.64C492.624 75.52 493.194 75.46 493.806 75.46C495.078 75.46 496.02 75.724 496.632 76.252C497.256 76.768 497.568 77.482 497.568 78.394V82.012C497.568 82.828 497.604 83.428 497.676 83.812C497.748 84.184 497.784 84.412 497.784 84.496C497.784 84.664 497.586 84.796 497.19 84.892C496.794 84.976 496.44 85.018 496.128 85.018C495.936 85.018 495.798 84.934 495.714 84.766C495.63 84.586 495.564 84.394 495.516 84.19C495.48 83.986 495.456 83.848 495.444 83.776C495.192 84.1 494.832 84.406 494.364 84.694C493.908 84.982 493.338 85.126 492.654 85.126ZM493.266 83.308C493.686 83.308 494.07 83.2 494.418 82.984C494.766 82.756 495.06 82.468 495.3 82.12V80.752C494.316 80.752 493.542 80.866 492.978 81.094C492.426 81.31 492.15 81.7 492.15 82.264C492.15 82.588 492.246 82.846 492.438 83.038C492.63 83.218 492.906 83.308 493.266 83.308ZM501.112 85.036C500.476 85.036 500.158 84.862 500.158 84.514V78.61C500.158 77.806 500.122 77.218 500.05 76.846C499.978 76.474 499.942 76.246 499.942 76.162C499.942 75.994 500.14 75.868 500.536 75.784C500.932 75.688 501.286 75.64 501.598 75.64C501.79 75.64 501.928 75.724 502.012 75.892C502.096 76.06 502.156 76.24 502.192 76.432C502.24 76.612 502.27 76.738 502.282 76.81C502.834 75.91 503.5 75.46 504.28 75.46C504.652 75.46 504.916 75.55 505.072 75.73C505.24 75.898 505.324 76.096 505.324 76.324C505.324 76.564 505.276 76.846 505.18 77.17C505.084 77.494 504.964 77.656 504.82 77.656C504.76 77.656 504.64 77.632 504.46 77.584C504.292 77.524 504.118 77.494 503.938 77.494C503.59 77.494 503.278 77.608 503.002 77.836C502.726 78.064 502.534 78.274 502.426 78.466V84.514C502.426 84.862 502.102 85.036 501.454 85.036H501.112ZM507.668 85.036C507.032 85.036 506.714 84.862 506.714 84.514V78.61C506.714 77.806 506.678 77.218 506.606 76.846C506.534 76.474 506.498 76.246 506.498 76.162C506.498 75.994 506.696 75.868 507.092 75.784C507.488 75.688 507.842 75.64 508.154 75.64C508.358 75.64 508.502 75.73 508.586 75.91C508.67 76.078 508.73 76.258 508.766 76.45C508.814 76.63 508.844 76.75 508.856 76.81C509.168 76.414 509.564 76.09 510.044 75.838C510.536 75.586 511.046 75.46 511.574 75.46C513.398 75.46 514.31 76.432 514.31 78.376V84.514C514.31 84.694 514.232 84.826 514.076 84.91C513.932 84.994 513.692 85.036 513.356 85.036H513.014C512.378 85.036 512.06 84.862 512.06 84.514V78.682C512.06 77.794 511.61 77.35 510.71 77.35C510.362 77.35 510.032 77.458 509.72 77.674C509.42 77.89 509.174 78.154 508.982 78.466V84.514C508.982 84.862 508.664 85.036 508.028 85.036H507.668ZM522.174 74.236C521.418 74.236 521.04 74.038 521.04 73.642V72.472C521.04 72.076 521.43 71.878 522.21 71.878C522.966 71.878 523.344 72.076 523.344 72.472V73.642C523.344 73.846 523.248 73.996 523.056 74.092C522.876 74.188 522.582 74.236 522.174 74.236ZM522.012 85.036C521.376 85.036 521.058 84.862 521.058 84.514V76.072C521.058 75.724 521.376 75.55 522.012 75.55H522.372C523.008 75.55 523.326 75.724 523.326 76.072V84.514C523.326 84.862 523.008 85.036 522.372 85.036H522.012ZM528.666 85.126C527.898 85.126 527.28 84.904 526.812 84.46C526.356 84.016 526.128 83.32 526.128 82.372V77.404H525.642C525.474 77.404 525.348 77.344 525.264 77.224C525.192 77.104 525.156 76.906 525.156 76.63V76.36C525.156 76.084 525.192 75.886 525.264 75.766C525.348 75.646 525.474 75.586 525.642 75.586H526.128L526.362 73.822C526.422 73.474 526.698 73.3 527.19 73.3H527.622C528.138 73.3 528.396 73.474 528.396 73.822V75.586H529.494C529.662 75.586 529.782 75.646 529.854 75.766C529.938 75.886 529.98 76.084 529.98 76.36V76.63C529.98 76.906 529.938 77.104 529.854 77.224C529.782 77.344 529.662 77.404 529.494 77.404H528.396V82.336C528.396 82.696 528.456 82.948 528.576 83.092C528.708 83.236 528.9 83.308 529.152 83.308C529.272 83.308 529.386 83.296 529.494 83.272C529.602 83.248 529.686 83.236 529.746 83.236C529.89 83.236 530.01 83.392 530.106 83.704C530.202 84.004 530.25 84.226 530.25 84.37C530.25 84.874 529.722 85.126 528.666 85.126ZM537.342 85.036C536.706 85.036 536.388 84.862 536.388 84.514V71.95C536.388 71.614 536.706 71.446 537.342 71.446H537.702C538.338 71.446 538.656 71.614 538.656 71.95V76.684C538.968 76.324 539.352 76.03 539.808 75.802C540.264 75.574 540.75 75.46 541.266 75.46C542.118 75.46 542.79 75.694 543.282 76.162C543.786 76.618 544.038 77.356 544.038 78.376V84.514C544.038 84.862 543.72 85.036 543.084 85.036H542.724C542.088 85.036 541.77 84.862 541.77 84.514V78.682C541.77 78.262 541.65 77.938 541.41 77.71C541.182 77.47 540.84 77.35 540.384 77.35C539.976 77.35 539.616 77.482 539.304 77.746C538.992 77.998 538.776 78.238 538.656 78.466V84.514C538.656 84.862 538.338 85.036 537.702 85.036H537.342ZM549.122 85.126C547.298 85.126 546.386 84.154 546.386 82.21V76.072C546.386 75.892 546.458 75.76 546.602 75.676C546.758 75.592 547.004 75.55 547.34 75.55H547.682C548.318 75.55 548.636 75.724 548.636 76.072V81.904C548.636 82.792 549.086 83.236 549.986 83.236C550.334 83.236 550.658 83.128 550.958 82.912C551.27 82.696 551.522 82.432 551.714 82.12V76.072C551.714 75.724 552.032 75.55 552.668 75.55H553.028C553.664 75.55 553.982 75.724 553.982 76.072V82.012C553.982 82.828 554.018 83.428 554.09 83.812C554.162 84.184 554.198 84.412 554.198 84.496C554.198 84.664 554 84.796 553.604 84.892C553.208 84.976 552.854 85.018 552.542 85.018C552.35 85.018 552.212 84.934 552.128 84.766C552.044 84.586 551.978 84.394 551.93 84.19C551.894 83.986 551.87 83.848 551.858 83.776C551.534 84.172 551.126 84.496 550.634 84.748C550.154 85 549.65 85.126 549.122 85.126ZM566.557 75.46C568.357 75.46 569.257 76.432 569.257 78.376V84.514C569.257 84.862 568.939 85.036 568.303 85.036H567.943C567.307 85.036 566.989 84.862 566.989 84.514V78.682C566.989 77.794 566.557 77.35 565.693 77.35C565.309 77.35 564.973 77.47 564.685 77.71C564.397 77.938 564.169 78.19 564.001 78.466V84.514C564.001 84.862 563.683 85.036 563.047 85.036H562.705C562.369 85.036 562.123 84.994 561.967 84.91C561.823 84.826 561.751 84.694 561.751 84.514V78.682C561.751 77.794 561.319 77.35 560.455 77.35C560.047 77.35 559.693 77.482 559.393 77.746C559.093 77.998 558.883 78.238 558.763 78.466V84.514C558.763 84.862 558.445 85.036 557.809 85.036H557.449C556.813 85.036 556.495 84.862 556.495 84.514V78.61C556.495 77.806 556.459 77.218 556.387 76.846C556.315 76.474 556.279 76.246 556.279 76.162C556.279 75.994 556.477 75.868 556.873 75.784C557.269 75.688 557.623 75.64 557.935 75.64C558.127 75.64 558.265 75.724 558.349 75.892C558.433 76.06 558.493 76.24 558.529 76.432C558.577 76.612 558.607 76.738 558.619 76.81C558.931 76.426 559.321 76.108 559.789 75.856C560.269 75.592 560.779 75.46 561.319 75.46C562.579 75.46 563.389 75.928 563.749 76.864C564.073 76.468 564.481 76.138 564.973 75.874C565.477 75.598 566.005 75.46 566.557 75.46ZM574.093 85.126C573.181 85.126 572.485 84.892 572.005 84.424C571.525 83.944 571.285 83.296 571.285 82.48C571.285 80.272 573.103 79.162 576.739 79.15V78.466C576.739 77.674 576.205 77.278 575.137 77.278C574.693 77.278 574.303 77.332 573.967 77.44C573.631 77.536 573.337 77.644 573.085 77.764C572.833 77.872 572.689 77.926 572.653 77.926C572.497 77.926 572.317 77.758 572.113 77.422C571.921 77.086 571.825 76.834 571.825 76.666C571.825 76.474 571.975 76.288 572.275 76.108C572.587 75.916 573.007 75.76 573.535 75.64C574.063 75.52 574.633 75.46 575.245 75.46C576.517 75.46 577.459 75.724 578.071 76.252C578.695 76.768 579.007 77.482 579.007 78.394V82.012C579.007 82.828 579.043 83.428 579.115 83.812C579.187 84.184 579.223 84.412 579.223 84.496C579.223 84.664 579.025 84.796 578.629 84.892C578.233 84.976 577.879 85.018 577.567 85.018C577.375 85.018 577.237 84.934 577.153 84.766C577.069 84.586 577.003 84.394 576.955 84.19C576.919 83.986 576.895 83.848 576.883 83.776C576.631 84.1 576.271 84.406 575.803 84.694C575.347 84.982 574.777 85.126 574.093 85.126ZM574.705 83.308C575.125 83.308 575.509 83.2 575.857 82.984C576.205 82.756 576.499 82.468 576.739 82.12V80.752C575.755 80.752 574.981 80.866 574.417 81.094C573.865 81.31 573.589 81.7 573.589 82.264C573.589 82.588 573.685 82.846 573.877 83.038C574.069 83.218 574.345 83.308 574.705 83.308ZM582.516 85.036C581.88 85.036 581.562 84.862 581.562 84.514V78.61C581.562 77.806 581.526 77.218 581.454 76.846C581.382 76.474 581.346 76.246 581.346 76.162C581.346 75.994 581.544 75.868 581.94 75.784C582.336 75.688 582.69 75.64 583.002 75.64C583.206 75.64 583.35 75.73 583.434 75.91C583.518 76.078 583.578 76.258 583.614 76.45C583.662 76.63 583.692 76.75 583.704 76.81C584.016 76.414 584.412 76.09 584.892 75.838C585.384 75.586 585.894 75.46 586.422 75.46C588.246 75.46 589.158 76.432 589.158 78.376V84.514C589.158 84.694 589.08 84.826 588.924 84.91C588.78 84.994 588.54 85.036 588.204 85.036H587.862C587.226 85.036 586.908 84.862 586.908 84.514V78.682C586.908 77.794 586.458 77.35 585.558 77.35C585.21 77.35 584.88 77.458 584.568 77.674C584.268 77.89 584.022 78.154 583.83 78.466V84.514C583.83 84.862 583.512 85.036 582.876 85.036H582.516ZM593.849 85.144C593.369 85.144 592.901 85.09 592.445 84.982C591.989 84.874 591.617 84.73 591.329 84.55C591.041 84.358 590.897 84.16 590.897 83.956C590.897 83.752 590.999 83.5 591.203 83.2C591.407 82.888 591.587 82.732 591.743 82.732C591.791 82.732 591.923 82.792 592.139 82.912C592.355 83.02 592.583 83.116 592.823 83.2C593.075 83.284 593.357 83.326 593.669 83.326C594.533 83.326 594.965 82.99 594.965 82.318C594.965 81.994 594.833 81.742 594.569 81.562C594.317 81.382 593.903 81.19 593.327 80.986C592.619 80.734 592.073 80.41 591.689 80.014C591.305 79.618 591.113 79.042 591.113 78.286C591.113 77.422 591.401 76.732 591.977 76.216C592.565 75.7 593.339 75.442 594.299 75.442C594.923 75.442 595.511 75.532 596.063 75.712C596.615 75.88 596.891 76.108 596.891 76.396C596.891 76.6 596.807 76.864 596.639 77.188C596.471 77.5 596.315 77.656 596.171 77.656C596.147 77.656 595.985 77.59 595.685 77.458C595.385 77.326 595.025 77.26 594.605 77.26C594.245 77.26 593.957 77.332 593.741 77.476C593.525 77.608 593.417 77.8 593.417 78.052C593.417 78.304 593.495 78.514 593.651 78.682C593.807 78.85 593.981 78.982 594.173 79.078C594.377 79.174 594.731 79.324 595.235 79.528C595.931 79.804 596.441 80.134 596.765 80.518C597.089 80.902 597.251 81.454 597.251 82.174C597.251 83.062 596.939 83.782 596.315 84.334C595.703 84.874 594.881 85.144 593.849 85.144ZM599.287 85.036C598.651 85.036 598.333 84.862 598.333 84.514V83.02C598.333 82.684 598.651 82.516 599.287 82.516H599.773C600.409 82.516 600.727 82.684 600.727 83.02V84.514C600.727 84.862 600.409 85.036 599.773 85.036H599.287ZM602.855 85.036C602.219 85.036 601.901 84.862 601.901 84.514V83.02C601.901 82.684 602.219 82.516 602.855 82.516H603.341C603.977 82.516 604.295 82.684 604.295 83.02V84.514C604.295 84.862 603.977 85.036 603.341 85.036H602.855ZM606.424 85.036C605.788 85.036 605.47 84.862 605.47 84.514V83.02C605.47 82.684 605.788 82.516 606.424 82.516H606.91C607.546 82.516 607.864 82.684 607.864 83.02V84.514C607.864 84.862 607.546 85.036 606.91 85.036H606.424ZM481.277 108.126C480.473 108.126 479.753 108.042 479.117 107.874C478.493 107.706 478.007 107.496 477.659 107.244C477.359 107.016 477.209 106.812 477.209 106.632C477.209 106.404 477.329 106.122 477.569 105.786C477.809 105.438 478.007 105.264 478.163 105.264C478.235 105.264 478.385 105.33 478.613 105.462C478.985 105.654 479.351 105.81 479.711 105.93C480.071 106.05 480.491 106.11 480.971 106.11C481.511 106.11 481.961 105.984 482.321 105.732C482.693 105.468 482.879 105.078 482.879 104.562C482.879 104.238 482.783 103.968 482.591 103.752C482.411 103.524 482.183 103.338 481.907 103.194C481.631 103.038 481.247 102.858 480.755 102.654L480.125 102.384C479.573 102.144 479.111 101.892 478.739 101.628C478.367 101.352 478.061 100.986 477.821 100.53C477.581 100.074 477.461 99.498 477.461 98.802C477.461 98.046 477.647 97.404 478.019 96.876C478.403 96.336 478.913 95.934 479.549 95.67C480.185 95.406 480.881 95.274 481.637 95.274C482.177 95.274 482.699 95.334 483.203 95.454C483.707 95.574 484.097 95.736 484.373 95.94C484.625 96.12 484.751 96.3 484.751 96.48C484.751 96.696 484.649 96.978 484.445 97.326C484.241 97.662 484.061 97.83 483.905 97.83C483.845 97.83 483.749 97.8 483.617 97.74C483.485 97.68 483.383 97.632 483.311 97.596C482.831 97.392 482.321 97.29 481.781 97.29C481.133 97.29 480.653 97.422 480.341 97.686C480.041 97.938 479.891 98.262 479.891 98.658C479.891 99.006 479.981 99.294 480.161 99.522C480.341 99.738 480.563 99.912 480.827 100.044C481.091 100.176 481.481 100.344 481.997 100.548C482.681 100.824 483.245 101.094 483.689 101.358C484.133 101.622 484.511 102 484.823 102.492C485.147 102.972 485.309 103.59 485.309 104.346C485.309 105.606 484.925 106.554 484.157 107.19C483.389 107.814 482.429 108.126 481.277 108.126ZM491.033 108.126C489.521 108.126 488.393 107.736 487.649 106.956C486.905 106.176 486.533 104.964 486.533 103.32C486.533 101.664 486.923 100.44 487.703 99.648C488.483 98.856 489.599 98.46 491.051 98.46C491.771 98.46 492.431 98.562 493.031 98.766C493.631 98.97 493.931 99.234 493.931 99.558C493.931 99.726 493.823 99.978 493.607 100.314C493.403 100.638 493.235 100.8 493.103 100.8C493.091 100.8 493.001 100.764 492.833 100.692C492.281 100.416 491.711 100.278 491.123 100.278C490.367 100.278 489.803 100.518 489.431 100.998C489.071 101.478 488.891 102.234 488.891 103.266C488.891 104.31 489.065 105.078 489.413 105.57C489.761 106.062 490.331 106.308 491.123 106.308C491.507 106.308 491.831 106.272 492.095 106.2C492.371 106.116 492.665 106.008 492.977 105.876C493.121 105.816 493.211 105.786 493.247 105.786C493.415 105.786 493.595 105.942 493.787 106.254C493.979 106.566 494.075 106.812 494.075 106.992C494.075 107.232 493.895 107.442 493.535 107.622C493.187 107.79 492.773 107.916 492.293 108C491.813 108.084 491.393 108.126 491.033 108.126ZM496.763 108.036C496.127 108.036 495.809 107.862 495.809 107.514V94.95C495.809 94.614 496.127 94.446 496.763 94.446H497.123C497.759 94.446 498.077 94.614 498.077 94.95V99.684C498.389 99.324 498.773 99.03 499.229 98.802C499.685 98.574 500.171 98.46 500.687 98.46C501.539 98.46 502.211 98.694 502.703 99.162C503.207 99.618 503.459 100.356 503.459 101.376V107.514C503.459 107.862 503.141 108.036 502.505 108.036H502.145C501.509 108.036 501.191 107.862 501.191 107.514V101.682C501.191 101.262 501.071 100.938 500.831 100.71C500.603 100.47 500.261 100.35 499.805 100.35C499.397 100.35 499.037 100.482 498.725 100.746C498.413 100.998 498.197 101.238 498.077 101.466V107.514C498.077 107.862 497.759 108.036 497.123 108.036H496.763ZM506.851 108.036C506.215 108.036 505.897 107.862 505.897 107.514V101.61C505.897 100.806 505.861 100.218 505.789 99.846C505.717 99.474 505.681 99.246 505.681 99.162C505.681 98.994 505.879 98.868 506.275 98.784C506.671 98.688 507.025 98.64 507.337 98.64C507.541 98.64 507.685 98.73 507.769 98.91C507.853 99.078 507.913 99.258 507.949 99.45C507.997 99.63 508.027 99.75 508.039 99.81C508.351 99.414 508.747 99.09 509.227 98.838C509.719 98.586 510.229 98.46 510.757 98.46C512.581 98.46 513.493 99.432 513.493 101.376V107.514C513.493 107.694 513.415 107.826 513.259 107.91C513.115 107.994 512.875 108.036 512.539 108.036H512.197C511.561 108.036 511.243 107.862 511.243 107.514V101.682C511.243 100.794 510.793 100.35 509.893 100.35C509.545 100.35 509.215 100.458 508.903 100.674C508.603 100.89 508.357 101.154 508.165 101.466V107.514C508.165 107.862 507.847 108.036 507.211 108.036H506.851ZM520.092 108.126C518.544 108.126 517.392 107.718 516.636 106.902C515.88 106.074 515.502 104.892 515.502 103.356C515.502 101.7 515.874 100.47 516.618 99.666C517.374 98.862 518.436 98.46 519.804 98.46C521.1 98.46 522.06 98.88 522.684 99.72C523.32 100.56 523.638 101.694 523.638 103.122C523.638 103.254 523.53 103.446 523.314 103.698C523.098 103.938 522.936 104.058 522.828 104.058H517.86C517.92 104.85 518.136 105.426 518.508 105.786C518.892 106.134 519.444 106.308 520.164 106.308C520.812 106.308 521.472 106.14 522.144 105.804C522.336 105.72 522.456 105.678 522.504 105.678C522.66 105.678 522.834 105.84 523.026 106.164C523.23 106.476 523.332 106.716 523.332 106.884C523.332 107.112 523.158 107.322 522.81 107.514C522.462 107.706 522.03 107.856 521.514 107.964C521.01 108.072 520.536 108.126 520.092 108.126ZM521.388 102.456C521.388 101.772 521.25 101.238 520.974 100.854C520.71 100.47 520.314 100.278 519.786 100.278C518.67 100.278 518.028 101.004 517.86 102.456H521.388ZM528.139 108.126C527.371 108.126 526.759 107.91 526.303 107.478C525.847 107.034 525.619 106.332 525.619 105.372V94.95C525.619 94.614 525.937 94.446 526.573 94.446H526.915C527.551 94.446 527.869 94.614 527.869 94.95V105.336C527.869 105.684 527.935 105.936 528.067 106.092C528.199 106.236 528.391 106.308 528.643 106.308C528.763 106.308 528.877 106.296 528.985 106.272C529.093 106.248 529.171 106.236 529.219 106.236C529.363 106.236 529.483 106.392 529.579 106.704C529.675 107.004 529.723 107.226 529.723 107.37C529.723 107.874 529.195 108.126 528.139 108.126ZM533.483 108.126C532.715 108.126 532.103 107.91 531.647 107.478C531.191 107.034 530.963 106.332 530.963 105.372V94.95C530.963 94.614 531.281 94.446 531.917 94.446H532.259C532.895 94.446 533.213 94.614 533.213 94.95V105.336C533.213 105.684 533.279 105.936 533.411 106.092C533.543 106.236 533.735 106.308 533.987 106.308C534.107 106.308 534.221 106.296 534.329 106.272C534.437 106.248 534.515 106.236 534.563 106.236C534.707 106.236 534.827 106.392 534.923 106.704C535.019 107.004 535.067 107.226 535.067 107.37C535.067 107.874 534.539 108.126 533.483 108.126ZM537.639 104.13C537.339 104.13 537.129 104.088 537.009 104.004C536.901 103.92 536.847 103.788 536.847 103.608V95.886C536.847 95.538 537.165 95.364 537.801 95.364H538.431C539.067 95.364 539.385 95.52 539.385 95.832L538.629 103.608C538.605 103.788 538.539 103.92 538.431 104.004C538.323 104.088 538.125 104.13 537.837 104.13H537.639ZM537.495 108.036C536.859 108.036 536.541 107.862 536.541 107.514V106.02C536.541 105.684 536.859 105.516 537.495 105.516H537.981C538.617 105.516 538.935 105.684 538.935 106.02V107.514C538.935 107.862 538.617 108.036 537.981 108.036H537.495ZM549.216 108.126C548.412 108.126 547.692 108.042 547.056 107.874C546.432 107.706 545.946 107.496 545.598 107.244C545.298 107.016 545.148 106.812 545.148 106.632C545.148 106.404 545.268 106.122 545.508 105.786C545.748 105.438 545.946 105.264 546.102 105.264C546.174 105.264 546.324 105.33 546.552 105.462C546.924 105.654 547.29 105.81 547.65 105.93C548.01 106.05 548.43 106.11 548.91 106.11C549.45 106.11 549.9 105.984 550.26 105.732C550.632 105.468 550.818 105.078 550.818 104.562C550.818 104.238 550.722 103.968 550.53 103.752C550.35 103.524 550.122 103.338 549.846 103.194C549.57 103.038 549.186 102.858 548.694 102.654L548.064 102.384C547.512 102.144 547.05 101.892 546.678 101.628C546.306 101.352 546 100.986 545.76 100.53C545.52 100.074 545.4 99.498 545.4 98.802C545.4 98.046 545.586 97.404 545.958 96.876C546.342 96.336 546.852 95.934 547.488 95.67C548.124 95.406 548.82 95.274 549.576 95.274C550.116 95.274 550.638 95.334 551.142 95.454C551.646 95.574 552.036 95.736 552.312 95.94C552.564 96.12 552.69 96.3 552.69 96.48C552.69 96.696 552.588 96.978 552.384 97.326C552.18 97.662 552 97.83 551.844 97.83C551.784 97.83 551.688 97.8 551.556 97.74C551.424 97.68 551.322 97.632 551.25 97.596C550.77 97.392 550.26 97.29 549.72 97.29C549.072 97.29 548.592 97.422 548.28 97.686C547.98 97.938 547.83 98.262 547.83 98.658C547.83 99.006 547.92 99.294 548.1 99.522C548.28 99.738 548.502 99.912 548.766 100.044C549.03 100.176 549.42 100.344 549.936 100.548C550.62 100.824 551.184 101.094 551.628 101.358C552.072 101.622 552.45 102 552.762 102.492C553.086 102.972 553.248 103.59 553.248 104.346C553.248 105.606 552.864 106.554 552.096 107.19C551.328 107.814 550.368 108.126 549.216 108.126ZM558.972 108.126C557.46 108.126 556.332 107.736 555.588 106.956C554.844 106.176 554.472 104.964 554.472 103.32C554.472 101.664 554.862 100.44 555.642 99.648C556.422 98.856 557.538 98.46 558.99 98.46C559.71 98.46 560.37 98.562 560.97 98.766C561.57 98.97 561.87 99.234 561.87 99.558C561.87 99.726 561.762 99.978 561.546 100.314C561.342 100.638 561.174 100.8 561.042 100.8C561.03 100.8 560.94 100.764 560.772 100.692C560.22 100.416 559.65 100.278 559.062 100.278C558.306 100.278 557.742 100.518 557.37 100.998C557.01 101.478 556.83 102.234 556.83 103.266C556.83 104.31 557.004 105.078 557.352 105.57C557.7 106.062 558.27 106.308 559.062 106.308C559.446 106.308 559.77 106.272 560.034 106.2C560.31 106.116 560.604 106.008 560.916 105.876C561.06 105.816 561.15 105.786 561.186 105.786C561.354 105.786 561.534 105.942 561.726 106.254C561.918 106.566 562.014 106.812 562.014 106.992C562.014 107.232 561.834 107.442 561.474 107.622C561.126 107.79 560.712 107.916 560.232 108C559.752 108.084 559.332 108.126 558.972 108.126ZM564.702 108.036C564.066 108.036 563.748 107.862 563.748 107.514V94.95C563.748 94.614 564.066 94.446 564.702 94.446H565.062C565.698 94.446 566.016 94.614 566.016 94.95V99.684C566.328 99.324 566.712 99.03 567.168 98.802C567.624 98.574 568.11 98.46 568.626 98.46C569.478 98.46 570.15 98.694 570.642 99.162C571.146 99.618 571.398 100.356 571.398 101.376V107.514C571.398 107.862 571.08 108.036 570.444 108.036H570.084C569.448 108.036 569.13 107.862 569.13 107.514V101.682C569.13 101.262 569.01 100.938 568.77 100.71C568.542 100.47 568.2 100.35 567.744 100.35C567.336 100.35 566.976 100.482 566.664 100.746C566.352 100.998 566.136 101.238 566.016 101.466V107.514C566.016 107.862 565.698 108.036 565.062 108.036H564.702ZM574.79 108.036C574.154 108.036 573.836 107.862 573.836 107.514V101.61C573.836 100.806 573.8 100.218 573.728 99.846C573.656 99.474 573.62 99.246 573.62 99.162C573.62 98.994 573.818 98.868 574.214 98.784C574.61 98.688 574.964 98.64 575.276 98.64C575.48 98.64 575.624 98.73 575.708 98.91C575.792 99.078 575.852 99.258 575.888 99.45C575.936 99.63 575.966 99.75 575.978 99.81C576.29 99.414 576.686 99.09 577.166 98.838C577.658 98.586 578.168 98.46 578.696 98.46C580.52 98.46 581.432 99.432 581.432 101.376V107.514C581.432 107.694 581.354 107.826 581.198 107.91C581.054 107.994 580.814 108.036 580.478 108.036H580.136C579.5 108.036 579.182 107.862 579.182 107.514V101.682C579.182 100.794 578.732 100.35 577.832 100.35C577.484 100.35 577.154 100.458 576.842 100.674C576.542 100.89 576.296 101.154 576.104 101.466V107.514C576.104 107.862 575.786 108.036 575.15 108.036H574.79ZM588.032 108.126C586.484 108.126 585.332 107.718 584.576 106.902C583.82 106.074 583.442 104.892 583.442 103.356C583.442 101.7 583.814 100.47 584.558 99.666C585.314 98.862 586.376 98.46 587.744 98.46C589.04 98.46 590 98.88 590.624 99.72C591.26 100.56 591.578 101.694 591.578 103.122C591.578 103.254 591.47 103.446 591.254 103.698C591.038 103.938 590.876 104.058 590.768 104.058H585.8C585.86 104.85 586.076 105.426 586.448 105.786C586.832 106.134 587.384 106.308 588.104 106.308C588.752 106.308 589.412 106.14 590.084 105.804C590.276 105.72 590.396 105.678 590.444 105.678C590.6 105.678 590.774 105.84 590.966 106.164C591.17 106.476 591.272 106.716 591.272 106.884C591.272 107.112 591.098 107.322 590.75 107.514C590.402 107.706 589.97 107.856 589.454 107.964C588.95 108.072 588.476 108.126 588.032 108.126ZM589.328 102.456C589.328 101.772 589.19 101.238 588.914 100.854C588.65 100.47 588.254 100.278 587.726 100.278C586.61 100.278 585.968 101.004 585.8 102.456H589.328ZM596.079 108.126C595.311 108.126 594.699 107.91 594.243 107.478C593.787 107.034 593.559 106.332 593.559 105.372V94.95C593.559 94.614 593.877 94.446 594.513 94.446H594.855C595.491 94.446 595.809 94.614 595.809 94.95V105.336C595.809 105.684 595.875 105.936 596.007 106.092C596.139 106.236 596.331 106.308 596.583 106.308C596.703 106.308 596.817 106.296 596.925 106.272C597.033 106.248 597.111 106.236 597.159 106.236C597.303 106.236 597.423 106.392 597.519 106.704C597.615 107.004 597.663 107.226 597.663 107.37C597.663 107.874 597.135 108.126 596.079 108.126ZM601.423 108.126C600.655 108.126 600.043 107.91 599.587 107.478C599.131 107.034 598.903 106.332 598.903 105.372V94.95C598.903 94.614 599.221 94.446 599.857 94.446H600.199C600.835 94.446 601.153 94.614 601.153 94.95V105.336C601.153 105.684 601.219 105.936 601.351 106.092C601.483 106.236 601.675 106.308 601.927 106.308C602.047 106.308 602.161 106.296 602.269 106.272C602.377 106.248 602.455 106.236 602.503 106.236C602.647 106.236 602.767 106.392 602.863 106.704C602.959 107.004 603.007 107.226 603.007 107.37C603.007 107.874 602.479 108.126 601.423 108.126ZM605.578 104.13C605.278 104.13 605.068 104.088 604.948 104.004C604.84 103.92 604.786 103.788 604.786 103.608V95.886C604.786 95.538 605.104 95.364 605.74 95.364H606.37C607.006 95.364 607.324 95.52 607.324 95.832L606.568 103.608C606.544 103.788 606.478 103.92 606.37 104.004C606.262 104.088 606.064 104.13 605.776 104.13H605.578ZM605.434 108.036C604.798 108.036 604.48 107.862 604.48 107.514V106.02C604.48 105.684 604.798 105.516 605.434 105.516H605.92C606.556 105.516 606.874 105.684 606.874 106.02V107.514C606.874 107.862 606.556 108.036 605.92 108.036H605.434Z" fill="white"/>
<defs>
<filter id="filter0_d" x="0" y="0" width="716" height="441" filterUnits="userSpaceOnUse" color-interpolation-filters="sRGB">
<feFlood flood-opacity="0" result="BackgroundImageFix"/>
<feColorMatrix in="SourceAlpha" type="matrix" values="0 0 0 0 0 0 0 0 0 0 0 0 0 0 0 0 0 0 127 0"/>
<feOffset dy="6"/>
<feGaussianBlur stdDeviation="4"/>
<feColorMatrix type="matrix" values="0 0 0 0 0.196078 0 0 0 0 0.231373 0 0 0 0 0.317647 0 0 0 0.15 0"/>
<feBlend mode="normal" in2="BackgroundImageFix" result="effect1_dropShadow"/>
<feBlend mode="normal" in="SourceGraphic" in2="effect1_dropShadow" result="shape"/>
</filter>
</defs>
</svg>
