<svg width="716" height="442" viewBox="0 0 716 442" fill="none" xmlns="http://www.w3.org/2000/svg">
<g filter="url(#filter0_d)">
<path d="M8 22C8 10.9543 16.9543 2 28 2H688C699.046 2 708 10.9543 708 22V408C708 419.046 699.046 428 688 428H28C16.9543 428 8 419.046 8 408V22Z" fill="white"/>
</g>
<rect x="259" y="43" width="199" height="196" rx="98" fill="#FFC03A"/>
<mask id="mask0" mask-type="alpha" maskUnits="userSpaceOnUse" x="259" y="43" width="199" height="196">
<rect x="259" y="43" width="199" height="196" rx="98" fill="#FFC03A"/>
</mask>
<g mask="url(#mask0)">
<path d="M317.034 189.894C295.464 205.55 291.336 230.882 292.603 242.531C296.231 284.569 405.373 261.371 411.84 238.508C418.306 215.644 413.608 211.44 412.482 183.745C411.356 156.05 397.16 120.82 392.038 121.378C387.94 121.824 383.995 132.626 382.534 137.972C381.086 137.658 377.529 137.008 374.881 136.919C372.233 136.83 367.569 137.558 365.568 137.933C365.426 132.29 363.238 120.836 355.626 120.156C346.11 119.306 332.278 174.089 331.235 177.503C330.193 180.917 329.261 181.019 317.034 189.894Z" fill="#474747"/>
<path d="M384.152 188.984C384.152 190.584 380.044 196.711 374.976 196.711C369.909 196.711 365.801 190.584 365.801 188.984C365.801 187.384 369.909 186.086 374.976 186.086C380.044 186.086 384.152 187.384 384.152 188.984Z" fill="#3D3D3D"/>
<path d="M295.295 218.925C300.704 201.153 316.865 188.662 324.27 184.638C306.885 219.408 316.543 224.72 317.026 236.31C317.412 245.582 305.275 246.934 299.158 246.451C295.617 244.681 289.886 236.696 295.295 218.925Z" fill="#3D3D3D"/>
<path d="M361.896 163.079C361.754 167.515 357.657 170.983 352.744 170.825C347.832 170.668 343.964 166.944 344.106 162.509C344.248 158.073 348.432 151.928 353.344 152.086C358.257 152.243 362.038 158.644 361.896 163.079Z" fill="white"/>
<ellipse rx="1.40519" ry="6.09334" transform="matrix(0.999486 0.0320452 -0.032001 0.999488 352.124 160.957)" fill="#303030"/>
<path d="M404.341 162.038C404.005 165.802 402.382 169.142 398.504 169.28C394.626 169.417 390.414 165.815 390.298 162.536C390.132 157.851 394.965 152.521 398.843 152.383C402.721 152.246 404.676 158.274 404.341 162.038Z" fill="white"/>
<ellipse rx="1.40519" ry="5.1559" transform="matrix(0.999372 -0.0354393 0.0353905 0.999374 398.208 160.848)" fill="#303030"/>
<path d="M380.415 170.018C380.415 171.053 378.528 173.299 376.2 173.299C373.872 173.299 371.984 171.053 371.984 170.018C371.984 168.982 373.872 168.143 376.2 168.143C378.528 168.143 380.415 168.982 380.415 170.018Z" fill="#EE8496"/>
<path d="M315.434 119.225C314.98 102.063 304.411 97.1342 299.183 96.815C284.417 98.0135 288.825 118.44 290.87 126.124C292.916 133.808 282.907 136.137 270.679 140.43C258.45 144.723 263.24 227.117 276.321 226.026C289.402 224.935 278.63 161.284 292.544 156.884C306.459 152.484 316.002 140.677 315.434 119.225Z" fill="#474747"/>
<path d="M290.54 130.831C288.774 133.713 285.726 134.867 284.367 135.544C289.123 140.724 298.75 138.693 300.064 131.003C301.378 123.312 289.599 118.161 289.651 119.525C289.718 121.265 291.612 129.081 290.54 130.831Z" fill="#414141"/>
</g>
<path fill-rule="evenodd" clip-rule="evenodd" d="M468.5 55C448.342 55 432 71.3416 432 91.5C432 104.863 439.182 116.549 449.896 122.909C448.045 130.681 443.686 137.914 436.968 143.284C436.499 143.658 436.018 144.012 435.538 144.36C444.698 145.177 454.175 142.6 461.932 136.401C465.002 133.948 467.579 131.105 469.65 128H645.5C665.658 128 682 111.658 682 91.5C682 71.3416 665.658 55 645.5 55H468.5Z" fill="#222222"/>
<path d="M459.49 86.036C459.01 86.036 458.77 85.904 458.77 85.64V73.76C458.77 73.496 459.01 73.364 459.49 73.364H459.634C460.114 73.364 460.354 73.496 460.354 73.76V78.854H466.87V73.76C466.87 73.496 467.11 73.364 467.59 73.364H467.734C468.214 73.364 468.454 73.496 468.454 73.76V85.64C468.454 85.904 468.214 86.036 467.734 86.036H467.59C467.11 86.036 466.87 85.904 466.87 85.64V80.222H460.354V85.64C460.354 85.904 460.114 86.036 459.634 86.036H459.49ZM475.626 86.108C474.126 86.108 473.016 85.718 472.296 84.938C471.576 84.158 471.216 82.964 471.216 81.356C471.216 79.76 471.57 78.548 472.278 77.72C472.986 76.892 474.03 76.478 475.41 76.478C476.634 76.478 477.558 76.88 478.182 77.684C478.806 78.476 479.118 79.64 479.118 81.176C479.118 81.284 479.046 81.434 478.902 81.626C478.758 81.818 478.632 81.914 478.524 81.914H472.836C472.908 82.91 473.166 83.642 473.61 84.11C474.054 84.578 474.72 84.812 475.608 84.812C476.112 84.812 476.544 84.752 476.904 84.632C477.276 84.5 477.582 84.374 477.822 84.254C478.062 84.122 478.2 84.056 478.236 84.056C478.356 84.056 478.488 84.176 478.632 84.416C478.788 84.656 478.866 84.836 478.866 84.956C478.866 85.1 478.716 85.268 478.416 85.46C478.116 85.64 477.714 85.796 477.21 85.928C476.718 86.048 476.19 86.108 475.626 86.108ZM477.516 80.618C477.516 78.722 476.796 77.774 475.356 77.774C473.808 77.774 472.968 78.722 472.836 80.618H477.516ZM487.525 76.55C488.005 76.55 488.245 76.652 488.245 76.856C488.245 76.916 488.227 77 488.191 77.108L483.565 89.366C483.469 89.618 483.187 89.744 482.719 89.744H482.449C482.053 89.744 481.855 89.648 481.855 89.456C481.855 89.408 481.885 89.306 481.945 89.15L483.457 85.478L480.307 77.09C480.271 76.982 480.253 76.904 480.253 76.856C480.253 76.652 480.511 76.55 481.027 76.55H481.171C481.591 76.55 481.831 76.646 481.891 76.838L483.727 81.716C483.919 82.244 484.111 82.85 484.303 83.534H484.339C484.363 83.45 484.387 83.372 484.411 83.3C484.435 83.216 484.459 83.138 484.483 83.066L484.933 81.716L486.733 76.838C486.793 76.646 487.039 76.55 487.471 76.55H487.525ZM495.295 86.036C494.815 86.036 494.575 85.904 494.575 85.64V72.86C494.575 72.596 494.815 72.464 495.295 72.464H495.367C495.847 72.464 496.087 72.596 496.087 72.86V77.72C496.447 77.36 496.861 77.066 497.329 76.838C497.809 76.598 498.313 76.478 498.841 76.478C499.597 76.478 500.263 76.694 500.839 77.126C501.415 77.546 501.703 78.302 501.703 79.394V85.64C501.703 85.904 501.463 86.036 500.983 86.036H500.911C500.431 86.036 500.191 85.904 500.191 85.64V79.538C500.191 78.998 500.035 78.572 499.723 78.26C499.411 77.948 498.955 77.792 498.355 77.792C497.959 77.792 497.593 77.888 497.257 78.08C496.921 78.26 496.639 78.464 496.411 78.692C496.195 78.908 496.087 79.028 496.087 79.052V85.64C496.087 85.904 495.847 86.036 495.367 86.036H495.295ZM507.381 86.108C506.469 86.108 505.749 85.85 505.221 85.334C504.705 84.818 504.447 84.104 504.447 83.192V76.946C504.447 76.682 504.687 76.55 505.167 76.55H505.239C505.719 76.55 505.959 76.682 505.959 76.946V83.048C505.959 83.6 506.115 84.032 506.427 84.344C506.751 84.644 507.207 84.794 507.795 84.794C508.203 84.794 508.605 84.68 509.001 84.452C509.409 84.224 509.763 83.918 510.063 83.534V76.946C510.063 76.682 510.303 76.55 510.783 76.55H510.855C511.335 76.55 511.575 76.682 511.575 76.946V83.336C511.575 84.128 511.611 84.698 511.683 85.046C511.755 85.382 511.791 85.568 511.791 85.604C511.791 85.748 511.677 85.856 511.449 85.928C511.221 85.988 511.011 86.018 510.819 86.018C510.651 86.018 510.525 85.928 510.441 85.748C510.369 85.556 510.309 85.358 510.261 85.154C510.225 84.95 510.201 84.818 510.189 84.758C509.805 85.178 509.367 85.508 508.875 85.748C508.383 85.988 507.885 86.108 507.381 86.108ZM524.204 76.478C524.96 76.478 525.62 76.694 526.184 77.126C526.748 77.546 527.03 78.302 527.03 79.394V85.64C527.03 85.904 526.79 86.036 526.31 86.036H526.238C525.758 86.036 525.518 85.904 525.518 85.64V79.538C525.518 78.998 525.368 78.572 525.068 78.26C524.78 77.948 524.354 77.792 523.79 77.792C523.022 77.792 522.284 78.212 521.576 79.052C521.588 79.136 521.594 79.256 521.594 79.412V85.64C521.594 85.904 521.354 86.036 520.874 86.036H520.802C520.322 86.036 520.082 85.904 520.082 85.64V79.538C520.082 78.998 519.932 78.572 519.632 78.26C519.344 77.948 518.918 77.792 518.354 77.792C517.97 77.792 517.61 77.888 517.274 78.08C516.95 78.26 516.68 78.458 516.464 78.674C516.26 78.89 516.158 79.01 516.158 79.034V85.64C516.158 85.904 515.918 86.036 515.438 86.036H515.366C514.886 86.036 514.646 85.904 514.646 85.64V79.322C514.646 78.53 514.61 77.966 514.538 77.63C514.466 77.282 514.43 77.09 514.43 77.054C514.43 76.91 514.544 76.808 514.772 76.748C515 76.676 515.21 76.64 515.402 76.64C515.57 76.64 515.69 76.73 515.762 76.91C515.846 77.078 515.906 77.258 515.942 77.45C515.99 77.642 516.02 77.768 516.032 77.828C516.368 77.444 516.77 77.126 517.238 76.874C517.718 76.61 518.228 76.478 518.768 76.478C519.308 76.478 519.812 76.592 520.28 76.82C520.76 77.036 521.114 77.42 521.342 77.972C521.714 77.54 522.146 77.186 522.638 76.91C523.142 76.622 523.664 76.478 524.204 76.478ZM532.334 86.108C531.41 86.108 530.666 85.88 530.102 85.424C529.538 84.968 529.256 84.296 529.256 83.408C529.256 82.46 529.538 81.752 530.102 81.284C530.678 80.804 531.38 80.498 532.208 80.366C533.036 80.222 534.044 80.144 535.232 80.132V79.286C535.232 78.842 535.076 78.482 534.764 78.206C534.452 77.918 533.948 77.774 533.252 77.774C532.724 77.774 532.262 77.84 531.866 77.972C531.47 78.092 531.14 78.218 530.876 78.35C530.612 78.47 530.468 78.53 530.444 78.53C530.324 78.53 530.186 78.41 530.03 78.17C529.886 77.93 529.814 77.75 529.814 77.63C529.814 77.474 529.97 77.306 530.282 77.126C530.606 76.946 531.032 76.796 531.56 76.676C532.088 76.544 532.634 76.478 533.198 76.478C534.314 76.478 535.184 76.73 535.808 77.234C536.432 77.726 536.744 78.416 536.744 79.304V83.336C536.744 84.128 536.78 84.698 536.852 85.046C536.924 85.382 536.96 85.568 536.96 85.604C536.96 85.748 536.846 85.856 536.618 85.928C536.39 85.988 536.18 86.018 535.988 86.018C535.82 86.018 535.694 85.928 535.61 85.748C535.538 85.556 535.478 85.358 535.43 85.154C535.394 84.95 535.37 84.818 535.358 84.758C534.542 85.658 533.534 86.108 532.334 86.108ZM532.406 84.794C532.994 84.794 533.498 84.686 533.918 84.47C534.35 84.254 534.788 83.948 535.232 83.552V81.428C534.332 81.44 533.594 81.476 533.018 81.536C532.454 81.596 531.956 81.764 531.524 82.04C531.092 82.316 530.876 82.742 530.876 83.318C530.876 83.798 531.002 84.164 531.254 84.416C531.518 84.668 531.902 84.794 532.406 84.794ZM540.451 86.036C539.971 86.036 539.731 85.904 539.731 85.64V79.322C539.731 78.53 539.695 77.966 539.623 77.63C539.551 77.282 539.515 77.09 539.515 77.054C539.515 76.91 539.629 76.808 539.857 76.748C540.085 76.676 540.295 76.64 540.487 76.64C540.655 76.64 540.775 76.73 540.847 76.91C540.931 77.078 540.991 77.258 541.027 77.45C541.075 77.642 541.105 77.768 541.117 77.828C541.501 77.408 541.939 77.078 542.431 76.838C542.923 76.598 543.421 76.478 543.925 76.478C544.837 76.478 545.551 76.736 546.067 77.252C546.595 77.768 546.859 78.482 546.859 79.394V85.64C546.859 85.904 546.619 86.036 546.139 86.036H546.067C545.587 86.036 545.347 85.904 545.347 85.64V79.538C545.347 78.986 545.185 78.56 544.861 78.26C544.549 77.948 544.099 77.792 543.511 77.792C543.103 77.792 542.695 77.906 542.287 78.134C541.891 78.362 541.543 78.668 541.243 79.052V85.64C541.243 85.904 541.003 86.036 540.523 86.036H540.451ZM548.94 88.088C548.808 88.088 548.688 88.064 548.58 88.016C548.472 87.98 548.418 87.914 548.418 87.818C548.418 87.746 548.472 87.602 548.58 87.386C548.988 86.57 549.192 85.652 549.192 84.632C549.192 84.452 549.252 84.314 549.372 84.218C549.492 84.11 549.672 84.056 549.912 84.056H550.074C550.302 84.056 550.476 84.104 550.596 84.2C550.728 84.284 550.794 84.404 550.794 84.56C550.794 85.232 550.686 85.832 550.47 86.36C550.254 86.9 549.996 87.32 549.696 87.62C549.408 87.932 549.156 88.088 548.94 88.088ZM560.055 86.108C559.131 86.108 558.387 85.88 557.823 85.424C557.259 84.968 556.977 84.296 556.977 83.408C556.977 82.46 557.259 81.752 557.823 81.284C558.399 80.804 559.101 80.498 559.929 80.366C560.757 80.222 561.765 80.144 562.953 80.132V79.286C562.953 78.842 562.797 78.482 562.485 78.206C562.173 77.918 561.669 77.774 560.973 77.774C560.445 77.774 559.983 77.84 559.587 77.972C559.191 78.092 558.861 78.218 558.597 78.35C558.333 78.47 558.189 78.53 558.165 78.53C558.045 78.53 557.907 78.41 557.751 78.17C557.607 77.93 557.535 77.75 557.535 77.63C557.535 77.474 557.691 77.306 558.003 77.126C558.327 76.946 558.753 76.796 559.281 76.676C559.809 76.544 560.355 76.478 560.919 76.478C562.035 76.478 562.905 76.73 563.529 77.234C564.153 77.726 564.465 78.416 564.465 79.304V83.336C564.465 84.128 564.501 84.698 564.573 85.046C564.645 85.382 564.681 85.568 564.681 85.604C564.681 85.748 564.567 85.856 564.339 85.928C564.111 85.988 563.901 86.018 563.709 86.018C563.541 86.018 563.415 85.928 563.331 85.748C563.259 85.556 563.199 85.358 563.151 85.154C563.115 84.95 563.091 84.818 563.079 84.758C562.263 85.658 561.255 86.108 560.055 86.108ZM560.127 84.794C560.715 84.794 561.219 84.686 561.639 84.47C562.071 84.254 562.509 83.948 562.953 83.552V81.428C562.053 81.44 561.315 81.476 560.739 81.536C560.175 81.596 559.677 81.764 559.245 82.04C558.813 82.316 558.597 82.742 558.597 83.318C558.597 83.798 558.723 84.164 558.975 84.416C559.239 84.668 559.623 84.794 560.127 84.794ZM568.243 86.036C567.763 86.036 567.523 85.904 567.523 85.64V79.322C567.523 78.53 567.487 77.966 567.415 77.63C567.343 77.282 567.307 77.09 567.307 77.054C567.307 76.91 567.421 76.808 567.649 76.748C567.877 76.676 568.087 76.64 568.279 76.64C568.447 76.64 568.567 76.73 568.639 76.91C568.723 77.078 568.783 77.258 568.819 77.45C568.867 77.642 568.897 77.768 568.909 77.828C569.545 76.928 570.241 76.478 570.997 76.478C571.333 76.478 571.591 76.544 571.771 76.676C571.951 76.808 572.041 76.976 572.041 77.18C572.041 77.384 572.005 77.6 571.933 77.828C571.861 78.044 571.777 78.152 571.681 78.152C571.621 78.152 571.501 78.122 571.321 78.062C571.153 77.99 570.943 77.954 570.691 77.954C570.415 77.954 570.151 78.038 569.899 78.206C569.659 78.362 569.455 78.536 569.287 78.728C569.119 78.92 569.035 79.028 569.035 79.052V85.64C569.035 85.904 568.795 86.036 568.315 86.036H568.243ZM577.895 86.108C576.395 86.108 575.285 85.718 574.565 84.938C573.845 84.158 573.485 82.964 573.485 81.356C573.485 79.76 573.839 78.548 574.547 77.72C575.255 76.892 576.299 76.478 577.679 76.478C578.903 76.478 579.827 76.88 580.451 77.684C581.075 78.476 581.387 79.64 581.387 81.176C581.387 81.284 581.315 81.434 581.171 81.626C581.027 81.818 580.901 81.914 580.793 81.914H575.105C575.177 82.91 575.435 83.642 575.879 84.11C576.323 84.578 576.989 84.812 577.877 84.812C578.381 84.812 578.813 84.752 579.173 84.632C579.545 84.5 579.851 84.374 580.091 84.254C580.331 84.122 580.469 84.056 580.505 84.056C580.625 84.056 580.757 84.176 580.901 84.416C581.057 84.656 581.135 84.836 581.135 84.956C581.135 85.1 580.985 85.268 580.685 85.46C580.385 85.64 579.983 85.796 579.479 85.928C578.987 86.048 578.459 86.108 577.895 86.108ZM579.785 80.618C579.785 78.722 579.065 77.774 577.625 77.774C576.077 77.774 575.237 78.722 575.105 80.618H579.785ZM594.118 76.55C594.598 76.55 594.838 76.652 594.838 76.856C594.838 76.916 594.82 77 594.784 77.108L590.158 89.366C590.062 89.618 589.78 89.744 589.312 89.744H589.042C588.646 89.744 588.448 89.648 588.448 89.456C588.448 89.408 588.478 89.306 588.538 89.15L590.05 85.478L586.9 77.09C586.864 76.982 586.846 76.904 586.846 76.856C586.846 76.652 587.104 76.55 587.62 76.55H587.764C588.184 76.55 588.424 76.646 588.484 76.838L590.32 81.716C590.512 82.244 590.704 82.85 590.896 83.534H590.932C590.956 83.45 590.98 83.372 591.004 83.3C591.028 83.216 591.052 83.138 591.076 83.066L591.526 81.716L593.326 76.838C593.386 76.646 593.632 76.55 594.064 76.55H594.118ZM600.354 86.108C598.998 86.108 597.96 85.7 597.24 84.884C596.532 84.068 596.178 82.886 596.178 81.338C596.178 79.778 596.538 78.578 597.258 77.738C597.978 76.898 599.01 76.478 600.354 76.478C601.674 76.478 602.682 76.898 603.378 77.738C604.086 78.566 604.44 79.766 604.44 81.338C604.44 82.898 604.092 84.086 603.396 84.902C602.712 85.706 601.698 86.108 600.354 86.108ZM600.3 84.812C601.176 84.812 601.824 84.53 602.244 83.966C602.664 83.39 602.874 82.502 602.874 81.302C602.874 80.102 602.664 79.214 602.244 78.638C601.824 78.062 601.176 77.774 600.3 77.774C599.424 77.774 598.782 78.062 598.374 78.638C597.966 79.202 597.762 80.09 597.762 81.302C597.762 82.502 597.966 83.39 598.374 83.966C598.782 84.53 599.424 84.812 600.3 84.812ZM609.721 86.108C608.809 86.108 608.089 85.85 607.561 85.334C607.045 84.818 606.787 84.104 606.787 83.192V76.946C606.787 76.682 607.027 76.55 607.507 76.55H607.579C608.059 76.55 608.299 76.682 608.299 76.946V83.048C608.299 83.6 608.455 84.032 608.767 84.344C609.091 84.644 609.547 84.794 610.135 84.794C610.543 84.794 610.945 84.68 611.341 84.452C611.749 84.224 612.103 83.918 612.403 83.534V76.946C612.403 76.682 612.643 76.55 613.123 76.55H613.195C613.675 76.55 613.915 76.682 613.915 76.946V83.336C613.915 84.128 613.951 84.698 614.023 85.046C614.095 85.382 614.131 85.568 614.131 85.604C614.131 85.748 614.017 85.856 613.789 85.928C613.561 85.988 613.351 86.018 613.159 86.018C612.991 86.018 612.865 85.928 612.781 85.748C612.709 85.556 612.649 85.358 612.601 85.154C612.565 84.95 612.541 84.818 612.529 84.758C612.145 85.178 611.707 85.508 611.215 85.748C610.723 85.988 610.225 86.108 609.721 86.108ZM623.578 86.108C622.978 86.108 622.438 85.928 621.958 85.568C621.49 85.196 621.256 84.548 621.256 83.624V72.86C621.256 72.596 621.496 72.464 621.976 72.464H622.048C622.528 72.464 622.768 72.596 622.768 72.86V83.48C622.768 83.984 622.852 84.332 623.02 84.524C623.2 84.716 623.44 84.812 623.74 84.812C623.968 84.812 624.136 84.8 624.244 84.776C624.364 84.74 624.454 84.722 624.514 84.722C624.622 84.722 624.712 84.836 624.784 85.064C624.856 85.28 624.892 85.448 624.892 85.568C624.892 85.928 624.454 86.108 623.578 86.108ZM630.29 86.108C628.934 86.108 627.896 85.7 627.176 84.884C626.468 84.068 626.114 82.886 626.114 81.338C626.114 79.778 626.474 78.578 627.194 77.738C627.914 76.898 628.946 76.478 630.29 76.478C631.61 76.478 632.618 76.898 633.314 77.738C634.022 78.566 634.376 79.766 634.376 81.338C634.376 82.898 634.028 84.086 633.332 84.902C632.648 85.706 631.634 86.108 630.29 86.108ZM630.236 84.812C631.112 84.812 631.76 84.53 632.18 83.966C632.6 83.39 632.81 82.502 632.81 81.302C632.81 80.102 632.6 79.214 632.18 78.638C631.76 78.062 631.112 77.774 630.236 77.774C629.36 77.774 628.718 78.062 628.31 78.638C627.902 79.202 627.698 80.09 627.698 81.302C627.698 82.502 627.902 83.39 628.31 83.966C628.718 84.53 629.36 84.812 630.236 84.812ZM638.864 86.162C638.348 86.162 637.868 86.102 637.424 85.982C636.992 85.85 636.644 85.694 636.38 85.514C636.128 85.334 636.002 85.172 636.002 85.028C636.002 84.908 636.074 84.728 636.218 84.488C636.374 84.248 636.512 84.128 636.632 84.128C636.656 84.128 636.77 84.194 636.974 84.326C637.178 84.458 637.43 84.578 637.73 84.686C638.042 84.794 638.384 84.848 638.756 84.848C639.932 84.848 640.52 84.362 640.52 83.39C640.52 82.982 640.388 82.658 640.124 82.418C639.86 82.178 639.392 81.962 638.72 81.77C637.772 81.494 637.118 81.152 636.758 80.744C636.398 80.324 636.218 79.766 636.218 79.07C636.218 78.566 636.344 78.116 636.596 77.72C636.86 77.324 637.214 77.018 637.658 76.802C638.114 76.574 638.63 76.46 639.206 76.46C639.818 76.46 640.364 76.538 640.844 76.694C641.336 76.85 641.582 77.03 641.582 77.234C641.582 77.39 641.51 77.594 641.366 77.846C641.234 78.086 641.114 78.206 641.006 78.206C640.97 78.194 640.808 78.116 640.52 77.972C640.244 77.816 639.86 77.738 639.368 77.738C638.912 77.738 638.528 77.84 638.216 78.044C637.916 78.248 637.766 78.524 637.766 78.872C637.766 79.28 637.874 79.604 638.09 79.844C638.306 80.084 638.666 80.282 639.17 80.438C639.938 80.678 640.52 80.918 640.916 81.158C641.324 81.386 641.612 81.674 641.78 82.022C641.96 82.358 642.05 82.802 642.05 83.354C642.05 83.882 641.906 84.362 641.618 84.794C641.342 85.214 640.958 85.55 640.466 85.802C639.986 86.042 639.452 86.162 638.864 86.162ZM647.056 86.108C646.456 86.108 645.916 85.928 645.436 85.568C644.968 85.196 644.734 84.548 644.734 83.624V77.882H643.834C643.714 77.882 643.624 77.84 643.564 77.756C643.504 77.672 643.474 77.534 643.474 77.342V77.126C643.474 76.934 643.504 76.796 643.564 76.712C643.624 76.628 643.714 76.586 643.834 76.586H644.734L644.95 74.696C644.986 74.432 645.178 74.3 645.526 74.3H645.706C646.066 74.3 646.246 74.432 646.246 74.696V76.586H647.758C647.89 76.586 647.98 76.628 648.028 76.712C648.088 76.796 648.118 76.934 648.118 77.126V77.342C648.118 77.534 648.088 77.672 648.028 77.756C647.98 77.84 647.89 77.882 647.758 77.882H646.246V83.48C646.246 83.984 646.33 84.332 646.498 84.524C646.678 84.716 646.918 84.812 647.218 84.812C647.446 84.812 647.614 84.8 647.722 84.776C647.842 84.74 647.932 84.722 647.992 84.722C648.1 84.722 648.19 84.836 648.262 85.064C648.334 85.28 648.37 85.448 648.37 85.568C648.37 85.928 647.932 86.108 647.056 86.108ZM652.182 82.364C651.822 82.364 651.642 82.226 651.642 81.95C651.642 81.542 651.774 81.086 652.038 80.582C652.314 80.078 652.698 79.58 653.19 79.088C653.79 78.488 654.222 78.008 654.486 77.648C654.762 77.276 654.9 76.892 654.9 76.496C654.9 75.248 654.144 74.624 652.632 74.624C652.296 74.624 651.99 74.666 651.714 74.75C651.438 74.834 651.144 74.942 650.832 75.074C650.592 75.182 650.448 75.236 650.4 75.236C650.316 75.236 650.196 75.116 650.04 74.876C649.896 74.636 649.824 74.45 649.824 74.318C649.824 74.03 650.16 73.79 650.832 73.598C651.504 73.394 652.2 73.292 652.92 73.292C653.688 73.292 654.348 73.43 654.9 73.706C655.464 73.97 655.89 74.336 656.178 74.804C656.466 75.26 656.61 75.764 656.61 76.316C656.61 76.868 656.466 77.366 656.178 77.81C655.89 78.254 655.464 78.764 654.9 79.34C654.312 79.916 653.868 80.39 653.568 80.762C653.28 81.134 653.106 81.548 653.046 82.004C653.022 82.124 652.968 82.214 652.884 82.274C652.8 82.334 652.656 82.364 652.452 82.364H652.182ZM652.128 86.036C651.648 86.036 651.408 85.904 651.408 85.64V84.452C651.408 84.188 651.648 84.056 652.128 84.056H652.434C652.914 84.056 653.154 84.188 653.154 84.452V85.64C653.154 85.904 652.914 86.036 652.434 86.036H652.128ZM481.283 109C481.091 109 480.953 108.958 480.869 108.874C480.785 108.79 480.743 108.652 480.743 108.46V96.76C480.743 96.496 480.983 96.364 481.463 96.364H481.607C482.087 96.364 482.327 96.496 482.327 96.76V107.632H487.277C487.409 107.632 487.499 107.674 487.547 107.758C487.607 107.842 487.637 107.98 487.637 108.172V108.46C487.637 108.652 487.607 108.79 487.547 108.874C487.499 108.958 487.409 109 487.277 109H481.283ZM493.116 109.108C491.616 109.108 490.506 108.718 489.786 107.938C489.066 107.158 488.706 105.964 488.706 104.356C488.706 102.76 489.06 101.548 489.768 100.72C490.476 99.892 491.52 99.478 492.9 99.478C494.124 99.478 495.048 99.88 495.672 100.684C496.296 101.476 496.608 102.64 496.608 104.176C496.608 104.284 496.536 104.434 496.392 104.626C496.248 104.818 496.122 104.914 496.014 104.914H490.326C490.398 105.91 490.656 106.642 491.1 107.11C491.544 107.578 492.21 107.812 493.098 107.812C493.602 107.812 494.034 107.752 494.394 107.632C494.766 107.5 495.072 107.374 495.312 107.254C495.552 107.122 495.69 107.056 495.726 107.056C495.846 107.056 495.978 107.176 496.122 107.416C496.278 107.656 496.356 107.836 496.356 107.956C496.356 108.1 496.206 108.268 495.906 108.46C495.606 108.64 495.204 108.796 494.7 108.928C494.208 109.048 493.68 109.108 493.116 109.108ZM495.006 103.618C495.006 101.722 494.286 100.774 492.846 100.774C491.298 100.774 490.458 101.722 490.326 103.618H495.006ZM501.667 109.108C501.067 109.108 500.527 108.928 500.047 108.568C499.579 108.196 499.345 107.548 499.345 106.624V100.882H498.445C498.325 100.882 498.235 100.84 498.175 100.756C498.115 100.672 498.085 100.534 498.085 100.342V100.126C498.085 99.934 498.115 99.796 498.175 99.712C498.235 99.628 498.325 99.586 498.445 99.586H499.345L499.561 97.696C499.597 97.432 499.789 97.3 500.137 97.3H500.317C500.677 97.3 500.857 97.432 500.857 97.696V99.586H502.369C502.501 99.586 502.591 99.628 502.639 99.712C502.699 99.796 502.729 99.934 502.729 100.126V100.342C502.729 100.534 502.699 100.672 502.639 100.756C502.591 100.84 502.501 100.882 502.369 100.882H500.857V106.48C500.857 106.984 500.941 107.332 501.109 107.524C501.289 107.716 501.529 107.812 501.829 107.812C502.057 107.812 502.225 107.8 502.333 107.776C502.453 107.74 502.543 107.722 502.603 107.722C502.711 107.722 502.801 107.836 502.873 108.064C502.945 108.28 502.981 108.448 502.981 108.568C502.981 108.928 502.543 109.108 501.667 109.108ZM504.669 99.46C504.537 99.46 504.417 99.442 504.309 99.406C504.201 99.358 504.147 99.286 504.147 99.19C504.147 99.118 504.201 98.974 504.309 98.758C504.717 97.942 504.921 97.024 504.921 96.004C504.921 95.824 504.981 95.686 505.101 95.59C505.221 95.482 505.401 95.428 505.641 95.428H505.803C506.031 95.428 506.205 95.476 506.325 95.572C506.457 95.656 506.523 95.776 506.523 95.932C506.523 96.604 506.415 97.21 506.199 97.75C505.983 98.278 505.725 98.698 505.425 99.01C505.137 99.31 504.885 99.46 504.669 99.46ZM510.878 109.162C510.362 109.162 509.882 109.102 509.438 108.982C509.006 108.85 508.658 108.694 508.394 108.514C508.142 108.334 508.016 108.172 508.016 108.028C508.016 107.908 508.088 107.728 508.232 107.488C508.388 107.248 508.526 107.128 508.646 107.128C508.67 107.128 508.784 107.194 508.988 107.326C509.192 107.458 509.444 107.578 509.744 107.686C510.056 107.794 510.398 107.848 510.77 107.848C511.946 107.848 512.534 107.362 512.534 106.39C512.534 105.982 512.402 105.658 512.138 105.418C511.874 105.178 511.406 104.962 510.734 104.77C509.786 104.494 509.132 104.152 508.772 103.744C508.412 103.324 508.232 102.766 508.232 102.07C508.232 101.566 508.358 101.116 508.61 100.72C508.874 100.324 509.228 100.018 509.672 99.802C510.128 99.574 510.644 99.46 511.22 99.46C511.832 99.46 512.378 99.538 512.858 99.694C513.35 99.85 513.596 100.03 513.596 100.234C513.596 100.39 513.524 100.594 513.38 100.846C513.248 101.086 513.128 101.206 513.02 101.206C512.984 101.194 512.822 101.116 512.534 100.972C512.258 100.816 511.874 100.738 511.382 100.738C510.926 100.738 510.542 100.84 510.23 101.044C509.93 101.248 509.78 101.524 509.78 101.872C509.78 102.28 509.888 102.604 510.104 102.844C510.32 103.084 510.68 103.282 511.184 103.438C511.952 103.678 512.534 103.918 512.93 104.158C513.338 104.386 513.626 104.674 513.794 105.022C513.974 105.358 514.064 105.802 514.064 106.354C514.064 106.882 513.92 107.362 513.632 107.794C513.356 108.214 512.972 108.55 512.48 108.802C512 109.042 511.466 109.162 510.878 109.162ZM523.7 112.816C522.548 112.816 521.636 112.636 520.964 112.276C520.304 111.916 519.974 111.352 519.974 110.584C519.974 110.056 520.124 109.6 520.424 109.216C520.724 108.832 521.12 108.538 521.612 108.334L521.63 108.298C521.15 107.914 520.91 107.422 520.91 106.822C520.91 106.042 521.246 105.418 521.918 104.95C521.414 104.698 521.03 104.35 520.766 103.906C520.502 103.462 520.37 102.964 520.37 102.412C520.37 101.56 520.682 100.858 521.306 100.306C521.93 99.754 522.8 99.478 523.916 99.478C524.3 99.478 524.654 99.514 524.978 99.586H528.254C528.386 99.586 528.476 99.628 528.524 99.712C528.584 99.796 528.614 99.934 528.614 100.126V100.342C528.614 100.534 528.584 100.672 528.524 100.756C528.476 100.84 528.386 100.882 528.254 100.882C527.762 100.882 527.342 100.864 526.994 100.828L526.976 100.864C527.288 101.308 527.444 101.824 527.444 102.412C527.444 103.276 527.132 103.984 526.508 104.536C525.896 105.088 525.026 105.364 523.898 105.364C523.334 105.364 522.908 105.466 522.62 105.67C522.332 105.862 522.188 106.174 522.188 106.606C522.188 106.918 522.284 107.158 522.476 107.326C522.68 107.482 522.932 107.596 523.232 107.668C523.532 107.74 523.952 107.806 524.492 107.866C524.756 107.89 524.954 107.914 525.086 107.938C525.95 108.046 526.616 108.25 527.084 108.55C527.564 108.838 527.804 109.354 527.804 110.098C527.804 110.974 527.456 111.646 526.76 112.114C526.064 112.582 525.044 112.816 523.7 112.816ZM523.898 104.158C524.558 104.158 525.08 104.026 525.464 103.762C525.86 103.486 526.058 103.042 526.058 102.43C526.058 101.266 525.338 100.684 523.898 100.684C522.47 100.684 521.756 101.266 521.756 102.43C521.756 103.582 522.47 104.158 523.898 104.158ZM523.898 111.592C524.738 111.592 525.356 111.484 525.752 111.268C526.16 111.052 526.364 110.716 526.364 110.26C526.364 109.84 526.166 109.558 525.77 109.414C525.374 109.27 524.78 109.156 523.988 109.072C523.268 109 522.776 108.922 522.512 108.838C521.72 109.174 521.324 109.66 521.324 110.296C521.324 111.16 522.182 111.592 523.898 111.592ZM534.138 109.108C532.782 109.108 531.744 108.7 531.024 107.884C530.316 107.068 529.962 105.886 529.962 104.338C529.962 102.778 530.322 101.578 531.042 100.738C531.762 99.898 532.794 99.478 534.138 99.478C535.458 99.478 536.466 99.898 537.162 100.738C537.87 101.566 538.224 102.766 538.224 104.338C538.224 105.898 537.876 107.086 537.18 107.902C536.496 108.706 535.482 109.108 534.138 109.108ZM534.084 107.812C534.96 107.812 535.608 107.53 536.028 106.966C536.448 106.39 536.658 105.502 536.658 104.302C536.658 103.102 536.448 102.214 536.028 101.638C535.608 101.062 534.96 100.774 534.084 100.774C533.208 100.774 532.566 101.062 532.158 101.638C531.75 102.202 531.546 103.09 531.546 104.302C531.546 105.502 531.75 106.39 532.158 106.966C532.566 107.53 533.208 107.812 534.084 107.812ZM549.322 109.108C548.278 109.108 547.324 108.658 546.46 107.758C546.4 108.118 546.304 108.472 546.172 108.82C546.112 108.964 545.95 109.036 545.686 109.036H545.614C545.254 109.036 545.074 108.904 545.074 108.64V95.86C545.074 95.596 545.314 95.464 545.794 95.464H545.866C546.346 95.464 546.586 95.596 546.586 95.86V100.396C546.97 100.096 547.36 99.868 547.756 99.712C548.164 99.556 548.632 99.478 549.16 99.478C549.88 99.478 550.516 99.664 551.068 100.036C551.62 100.408 552.046 100.954 552.346 101.674C552.658 102.394 552.814 103.264 552.814 104.284C552.814 105.22 552.67 106.054 552.382 106.786C552.106 107.518 551.704 108.088 551.176 108.496C550.648 108.904 550.03 109.108 549.322 109.108ZM549.016 107.794C549.724 107.794 550.27 107.482 550.654 106.858C551.038 106.222 551.23 105.322 551.23 104.158C551.23 103.078 551.026 102.25 550.618 101.674C550.21 101.098 549.61 100.81 548.818 100.81C548.422 100.81 548.026 100.882 547.63 101.026C547.246 101.158 546.898 101.356 546.586 101.62V106.552C546.946 106.948 547.336 107.254 547.756 107.47C548.188 107.686 548.608 107.794 549.016 107.794ZM557.752 109.108C556.828 109.108 556.084 108.88 555.52 108.424C554.956 107.968 554.674 107.296 554.674 106.408C554.674 105.46 554.956 104.752 555.52 104.284C556.096 103.804 556.798 103.498 557.626 103.366C558.454 103.222 559.462 103.144 560.65 103.132V102.286C560.65 101.842 560.494 101.482 560.182 101.206C559.87 100.918 559.366 100.774 558.67 100.774C558.142 100.774 557.68 100.84 557.284 100.972C556.888 101.092 556.558 101.218 556.294 101.35C556.03 101.47 555.886 101.53 555.862 101.53C555.742 101.53 555.604 101.41 555.448 101.17C555.304 100.93 555.232 100.75 555.232 100.63C555.232 100.474 555.388 100.306 555.7 100.126C556.024 99.946 556.45 99.796 556.978 99.676C557.506 99.544 558.052 99.478 558.616 99.478C559.732 99.478 560.602 99.73 561.226 100.234C561.85 100.726 562.162 101.416 562.162 102.304V106.336C562.162 107.128 562.198 107.698 562.27 108.046C562.342 108.382 562.378 108.568 562.378 108.604C562.378 108.748 562.264 108.856 562.036 108.928C561.808 108.988 561.598 109.018 561.406 109.018C561.238 109.018 561.112 108.928 561.028 108.748C560.956 108.556 560.896 108.358 560.848 108.154C560.812 107.95 560.788 107.818 560.776 107.758C559.96 108.658 558.952 109.108 557.752 109.108ZM557.824 107.794C558.412 107.794 558.916 107.686 559.336 107.47C559.768 107.254 560.206 106.948 560.65 106.552V104.428C559.75 104.44 559.012 104.476 558.436 104.536C557.872 104.596 557.374 104.764 556.942 105.04C556.51 105.316 556.294 105.742 556.294 106.318C556.294 106.798 556.42 107.164 556.672 107.416C556.936 107.668 557.32 107.794 557.824 107.794ZM568.965 109.108C567.477 109.108 566.367 108.724 565.635 107.956C564.903 107.188 564.537 105.952 564.537 104.248C564.537 102.532 564.945 101.308 565.761 100.576C566.577 99.844 567.591 99.478 568.803 99.478C569.499 99.478 570.123 99.562 570.675 99.73C571.227 99.898 571.503 100.09 571.503 100.306C571.503 100.462 571.431 100.666 571.287 100.918C571.155 101.158 571.035 101.278 570.927 101.278C570.903 101.278 570.873 101.272 570.837 101.26C570.813 101.236 570.777 101.218 570.729 101.206C570.081 100.918 569.427 100.774 568.767 100.774C567.027 100.774 566.157 101.92 566.157 104.212C566.157 105.484 566.367 106.402 566.787 106.966C567.219 107.53 567.939 107.812 568.947 107.812C569.679 107.812 570.357 107.656 570.981 107.344L571.179 107.272C571.299 107.272 571.431 107.392 571.575 107.632C571.719 107.86 571.791 108.046 571.791 108.19C571.791 108.334 571.659 108.478 571.395 108.622C571.143 108.754 570.801 108.868 570.369 108.964C569.937 109.06 569.469 109.108 568.965 109.108ZM580.887 108.496C580.995 108.616 581.049 108.712 581.049 108.784C581.049 108.88 580.989 108.946 580.869 108.982C580.749 109.018 580.545 109.036 580.257 109.036H580.185C579.933 109.036 579.729 109.024 579.573 109C579.417 108.964 579.297 108.898 579.213 108.802L575.613 104.536H575.541V108.64C575.541 108.904 575.301 109.036 574.821 109.036H574.749C574.269 109.036 574.029 108.904 574.029 108.64V95.86C574.029 95.596 574.269 95.464 574.749 95.464H574.821C575.301 95.464 575.541 95.596 575.541 95.86V103.906H575.613L579.051 99.802C579.183 99.634 579.501 99.55 580.005 99.55H580.077C580.281 99.55 580.437 99.574 580.545 99.622C580.653 99.658 580.707 99.712 580.707 99.784C580.707 99.892 580.647 100.012 580.527 100.144L577.179 104.104L580.887 108.496ZM588.424 109.036C587.944 109.036 587.704 108.904 587.704 108.64V95.86C587.704 95.596 587.944 95.464 588.424 95.464H588.496C588.976 95.464 589.216 95.596 589.216 95.86V100.72C589.576 100.36 589.99 100.066 590.458 99.838C590.938 99.598 591.442 99.478 591.97 99.478C592.726 99.478 593.392 99.694 593.968 100.126C594.544 100.546 594.832 101.302 594.832 102.394V108.64C594.832 108.904 594.592 109.036 594.112 109.036H594.04C593.56 109.036 593.32 108.904 593.32 108.64V102.538C593.32 101.998 593.164 101.572 592.852 101.26C592.54 100.948 592.084 100.792 591.484 100.792C591.088 100.792 590.722 100.888 590.386 101.08C590.05 101.26 589.768 101.464 589.54 101.692C589.324 101.908 589.216 102.028 589.216 102.052V108.64C589.216 108.904 588.976 109.036 588.496 109.036H588.424ZM601.392 109.108C600.036 109.108 598.998 108.7 598.278 107.884C597.57 107.068 597.216 105.886 597.216 104.338C597.216 102.778 597.576 101.578 598.296 100.738C599.016 99.898 600.048 99.478 601.392 99.478C602.712 99.478 603.72 99.898 604.416 100.738C605.124 101.566 605.478 102.766 605.478 104.338C605.478 105.898 605.13 107.086 604.434 107.902C603.75 108.706 602.736 109.108 601.392 109.108ZM601.338 107.812C602.214 107.812 602.862 107.53 603.282 106.966C603.702 106.39 603.912 105.502 603.912 104.302C603.912 103.102 603.702 102.214 603.282 101.638C602.862 101.062 602.214 100.774 601.338 100.774C600.462 100.774 599.82 101.062 599.412 101.638C599.004 102.202 598.8 103.09 598.8 104.302C598.8 105.502 599.004 106.39 599.412 106.966C599.82 107.53 600.462 107.812 601.338 107.812ZM617.562 99.478C618.318 99.478 618.978 99.694 619.542 100.126C620.106 100.546 620.388 101.302 620.388 102.394V108.64C620.388 108.904 620.148 109.036 619.668 109.036H619.596C619.116 109.036 618.876 108.904 618.876 108.64V102.538C618.876 101.998 618.726 101.572 618.426 101.26C618.138 100.948 617.712 100.792 617.148 100.792C616.38 100.792 615.642 101.212 614.934 102.052C614.946 102.136 614.952 102.256 614.952 102.412V108.64C614.952 108.904 614.712 109.036 614.232 109.036H614.16C613.68 109.036 613.44 108.904 613.44 108.64V102.538C613.44 101.998 613.29 101.572 612.99 101.26C612.702 100.948 612.276 100.792 611.712 100.792C611.328 100.792 610.968 100.888 610.632 101.08C610.308 101.26 610.038 101.458 609.822 101.674C609.618 101.89 609.516 102.01 609.516 102.034V108.64C609.516 108.904 609.276 109.036 608.796 109.036H608.724C608.244 109.036 608.004 108.904 608.004 108.64V102.322C608.004 101.53 607.968 100.966 607.896 100.63C607.824 100.282 607.788 100.09 607.788 100.054C607.788 99.91 607.902 99.808 608.13 99.748C608.358 99.676 608.568 99.64 608.76 99.64C608.928 99.64 609.048 99.73 609.12 99.91C609.204 100.078 609.264 100.258 609.3 100.45C609.348 100.642 609.378 100.768 609.39 100.828C609.726 100.444 610.128 100.126 610.596 99.874C611.076 99.61 611.586 99.478 612.126 99.478C612.666 99.478 613.17 99.592 613.638 99.82C614.118 100.036 614.472 100.42 614.7 100.972C615.072 100.54 615.504 100.186 615.996 99.91C616.5 99.622 617.022 99.478 617.562 99.478ZM627.131 109.108C625.631 109.108 624.521 108.718 623.801 107.938C623.081 107.158 622.721 105.964 622.721 104.356C622.721 102.76 623.075 101.548 623.783 100.72C624.491 99.892 625.535 99.478 626.915 99.478C628.139 99.478 629.063 99.88 629.687 100.684C630.311 101.476 630.623 102.64 630.623 104.176C630.623 104.284 630.551 104.434 630.407 104.626C630.263 104.818 630.137 104.914 630.029 104.914H624.341C624.413 105.91 624.671 106.642 625.115 107.11C625.559 107.578 626.225 107.812 627.113 107.812C627.617 107.812 628.049 107.752 628.409 107.632C628.781 107.5 629.087 107.374 629.327 107.254C629.567 107.122 629.705 107.056 629.741 107.056C629.861 107.056 629.993 107.176 630.137 107.416C630.293 107.656 630.371 107.836 630.371 107.956C630.371 108.1 630.221 108.268 629.921 108.46C629.621 108.64 629.219 108.796 628.715 108.928C628.223 109.048 627.695 109.108 627.131 109.108ZM629.021 103.618C629.021 101.722 628.301 100.774 626.861 100.774C625.313 100.774 624.473 101.722 624.341 103.618H629.021ZM633.073 109.036C632.593 109.036 632.353 108.904 632.353 108.64V107.452C632.353 107.188 632.593 107.056 633.073 107.056H633.379C633.859 107.056 634.099 107.188 634.099 107.452V108.64C634.099 108.904 633.859 109.036 633.379 109.036H633.073Z" fill="white"/>
<defs>
<filter id="filter0_d" x="0" y="0" width="716" height="442" filterUnits="userSpaceOnUse" color-interpolation-filters="sRGB">
<feFlood flood-opacity="0" result="BackgroundImageFix"/>
<feColorMatrix in="SourceAlpha" type="matrix" values="0 0 0 0 0 0 0 0 0 0 0 0 0 0 0 0 0 0 127 0"/>
<feOffset dy="6"/>
<feGaussianBlur stdDeviation="4"/>
<feColorMatrix type="matrix" values="0 0 0 0 0.196078 0 0 0 0 0.231373 0 0 0 0 0.317647 0 0 0 0.15 0"/>
<feBlend mode="normal" in2="BackgroundImageFix" result="effect1_dropShadow"/>
<feBlend mode="normal" in="SourceGraphic" in2="effect1_dropShadow" result="shape"/>
</filter>
</defs>
</svg>
