<svg width="80" height="80" viewBox="0 0 80 80" fill="none" xmlns="http://www.w3.org/2000/svg">
<g clip-path="url(#clip0)">
<path d="M39.825 0C17.8656 0 0 17.8656 0 39.825C0 61.7828 17.8656 79.65 39.825 79.65C61.7828 79.65 79.65 61.7828 79.65 39.825C79.65 17.8656 61.786 0 39.825 0ZM49.7291 41.227H43.2499C43.2499 51.5787 43.2499 64.3206 43.2499 64.3206H33.649C33.649 64.3206 33.649 51.7022 33.649 41.227H29.0851V33.065H33.649V27.7857C33.649 24.0047 35.4456 18.0966 43.3381 18.0966L50.4526 18.1239V26.0468C50.4526 26.0468 46.1294 26.0468 45.2888 26.0468C44.4482 26.0468 43.2531 26.4671 43.2531 28.2702V33.0667H50.5681L49.7291 41.227Z" fill="white"/>
</g>
<defs>
<clipPath id="clip0">
<rect width="79.65" height="79.65" fill="white"/>
</clipPath>
</defs>
</svg>
