<svg width="80" height="80" viewBox="0 0 80 80" fill="none" xmlns="http://www.w3.org/2000/svg">
<g clip-path="url(#clip0)">
<path d="M39.95 0C17.9906 0 0.125 17.8656 0.125 39.825C0.125 61.7828 17.9906 79.65 39.95 79.65C61.9078 79.65 79.775 61.7828 79.775 39.825C79.775 17.8656 61.911 0 39.95 0ZM57.7161 30.7101C57.7338 31.1048 57.7434 31.5026 57.7434 31.9004C57.7434 44.0135 48.5259 57.9761 31.6613 57.9761C26.4846 57.9761 21.6657 56.4634 17.6104 53.8614C18.3275 53.9465 19.0574 53.9898 19.7969 53.9898C24.0928 53.9898 28.0439 52.5236 31.1816 50.066C27.1712 49.9922 23.7848 47.3421 22.6186 43.6991C23.1769 43.8049 23.7527 43.8643 24.3415 43.8643C25.1772 43.8643 25.989 43.7552 26.7573 43.5451C22.5641 42.7045 19.4055 39.0005 19.4055 34.5569C19.4055 34.5184 19.4055 34.4783 19.4071 34.4414C20.6423 35.1264 22.0555 35.5403 23.557 35.5868C21.0995 33.9457 19.4809 31.1384 19.4809 27.959C19.4809 26.2778 19.9316 24.7025 20.7209 23.3486C25.2398 28.8958 31.9965 32.5437 39.6131 32.9287C39.4559 32.2565 39.3773 31.5587 39.3773 30.8385C39.3773 25.7773 43.4808 21.6723 48.5419 21.6723C51.1792 21.6723 53.5581 22.7856 55.2329 24.5662C57.3231 24.1555 59.2802 23.3951 61.056 22.3412C60.3662 24.4828 58.9176 26.2778 57.0199 27.4136C58.8759 27.1922 60.6469 26.7013 62.2848 25.9714C61.0624 27.8066 59.508 29.422 57.7161 30.7101Z" fill="white"/>
</g>
<defs>
<clipPath id="clip0">
<rect width="79.65" height="79.65" fill="white" transform="translate(0.125)"/>
</clipPath>
</defs>
</svg>
