<svg width="81" height="80" viewBox="0 0 81 80" fill="none" xmlns="http://www.w3.org/2000/svg">
<g clip-path="url(#clip0)">
<path d="M40.1961 47.7977C44.5899 47.7977 48.172 44.222 48.172 39.825C48.172 38.0893 47.6041 36.4867 46.6641 35.1777C45.2155 33.1693 42.8606 31.8523 40.2009 31.8523C37.5396 31.8523 35.1863 33.1677 33.7345 35.1761C32.7912 36.4851 32.2282 38.0877 32.2266 39.8234C32.2218 44.2204 35.8006 47.7977 40.1961 47.7977Z" fill="white"/>
<path d="M57.6049 30.0716V23.3886V22.394L56.6055 22.3973L49.9258 22.4181L49.9514 30.0972L57.6049 30.0716Z" fill="white"/>
<path d="M40.1961 0C18.2367 0 0.371094 17.8656 0.371094 39.825C0.371094 61.7828 18.2367 79.65 40.1961 79.65C62.1539 79.65 80.0211 61.7828 80.0211 39.825C80.0211 17.8656 62.1571 0 40.1961 0ZM62.8453 35.1777V53.7219C62.8453 58.552 58.9183 62.4774 54.0914 62.4774H26.3008C21.4723 62.4774 17.5469 58.552 17.5469 53.7219V35.1777V25.9313C17.5469 21.1028 21.4723 17.1774 26.3008 17.1774H54.0898C58.9183 17.1774 62.8453 21.1028 62.8453 25.9313V35.1777Z" fill="white"/>
<path d="M52.5838 39.825C52.5838 46.6539 47.0269 52.214 40.1948 52.214C33.3626 52.214 27.8074 46.6539 27.8074 39.825C27.8074 38.1823 28.1347 36.6119 28.7186 35.1777H21.957V53.7219C21.957 56.1185 23.9029 58.0595 26.2979 58.0595H54.0869C56.4787 58.0595 58.4277 56.1185 58.4277 53.7219V35.1777H51.663C52.2517 36.6119 52.5838 38.1823 52.5838 39.825Z" fill="white"/>
</g>
<defs>
<clipPath id="clip0">
<rect width="79.65" height="79.65" fill="white" transform="translate(0.371094)"/>
</clipPath>
</defs>
</svg>
