<svg width="81" height="80" viewBox="0 0 81 80" fill="none" xmlns="http://www.w3.org/2000/svg">
<g clip-path="url(#clip0)">
<path d="M47.8357 34.1655C44.4268 34.1655 42.9045 36.0392 42.0527 37.3546V34.6211H35.6328C35.7162 36.4306 35.6328 53.9369 35.6328 53.9369H42.0527V43.1456C42.0527 42.5697 42.0896 41.9906 42.2628 41.5784C42.728 40.4234 43.7836 39.2283 45.5578 39.2283C47.8806 39.2283 48.8094 40.9993 48.8094 43.598V53.932H55.2293H55.2309V42.8553C55.2277 36.9263 52.0595 34.1655 47.8357 34.1655ZM42.0479 37.422H42.0078C42.0206 37.3995 42.0399 37.3787 42.0479 37.3562V37.422Z" fill="white"/>
<path d="M32.0761 34.6211H25.6562V53.9368H32.0761V34.6211Z" fill="white"/>
<path d="M40.5789 0C18.6195 0 0.753906 17.8656 0.753906 39.825C0.753906 61.7828 18.6195 79.65 40.5789 79.65C62.5367 79.65 80.4039 61.7828 80.4039 39.825C80.4039 17.8656 62.5399 0 40.5789 0ZM61.6977 57.8382C61.6977 59.5322 60.2925 60.9021 58.5552 60.9021H22.3315C20.599 60.9021 19.1922 59.5322 19.1922 57.8382V21.1926C19.1922 19.5002 20.599 18.1287 22.3315 18.1287H58.5552C60.2909 18.1287 61.6977 19.5018 61.6977 21.1926V57.8382Z" fill="white"/>
<path d="M28.9092 25.3088C26.7147 25.3088 25.2773 26.7494 25.2773 28.6455C25.2773 30.4983 26.6714 31.9822 28.8242 31.9822H28.8659C31.1053 31.9822 32.4993 30.4983 32.4993 28.6455C32.456 26.751 31.1069 25.3088 28.9092 25.3088Z" fill="white"/>
</g>
<defs>
<clipPath id="clip0">
<rect width="79.65" height="79.65" fill="white" transform="translate(0.753906)"/>
</clipPath>
</defs>
</svg>
