<svg width="273" height="50" viewBox="0 0 273 50" fill="none" xmlns="http://www.w3.org/2000/svg">
<path d="M24.9712 15.6055C30.1485 15.6055 34.3447 19.8049 34.3447 24.979C34.3447 30.1579 30.1484 34.3525 24.9712 34.3525C19.7969 34.3525 15.5977 30.1562 15.5977 24.979C15.5977 19.8049 19.797 15.6055 24.9712 15.6055Z" fill="#26A6D1"/>
<path d="M24.9741 37.4788C18.65 37.4788 13.4368 32.7795 12.6057 26.6804L3.98985 11.7405L3.98042 11.7188L3.0165 13.1107C2.779 13.5465 2.54784 13.9886 2.33539 14.4401L1.87446 15.5181C1.72139 15.89 1.56986 16.2665 1.43395 16.6507C1.28087 17.0772 1.14805 17.5084 1.02157 17.9412L0.743572 18.9364C0.627909 19.4004 0.529578 19.8644 0.440514 20.3315L0.271825 21.3172C0.203011 21.7749 0.149984 22.2297 0.109313 22.6842L0.0281435 23.7731C0.00789391 24.1887 0 24.6026 0 25.0183C0 25.4339 0.00617784 25.8494 0.0281435 26.2634L0.109313 27.3523C0.151529 27.8069 0.2061 28.2647 0.271825 28.7193L0.440514 29.705C0.531123 30.1721 0.627909 30.6362 0.743572 31.1002L1.02157 32.0953C1.14976 32.525 1.28087 32.9592 1.43395 33.3858C1.56986 33.7669 1.72293 34.1419 1.87446 34.5184C2.02444 34.8778 2.16808 35.2386 2.33539 35.5947C2.54784 36.0462 2.779 36.4852 3.01805 36.9257L3.329 37.5366L3.4728 37.7601C3.74772 38.2303 4.05077 38.6787 4.35709 39.1271L4.84772 39.8566C5.14305 40.2597 5.46636 40.6439 5.78984 41.0314L6.43662 41.8062C6.71789 42.1139 7.0194 42.4077 7.31611 42.703C7.61299 43.0014 7.90506 43.3076 8.21447 43.584L8.98927 44.2339C9.37676 44.5541 9.76099 44.8776 10.1641 45.1743L10.8874 45.668C11.3374 45.9757 11.7889 46.279 12.2544 46.5523L12.4763 46.6961L13.0855 47.0071C13.5229 47.2446 13.9635 47.4804 14.415 47.6913L14.5447 47.7584L15.1774 48.0177C16.8677 48.7379 18.633 49.2472 20.4329 49.5831L27.5645 37.2162C26.7286 37.3836 25.863 37.4788 24.9741 37.4788Z" fill="#3DB39E"/>
<path d="M49.8842 23.2763L49.8514 22.864C49.6749 20.7767 48.8172 17.7554 48.1048 15.7275H33.3525C35.8755 18.0132 37.4705 21.3048 37.4705 24.9792C37.4705 28.9442 35.6192 32.4702 32.7447 34.7589L23.957 50.0003C27.0472 50.0003 31.2074 49.4426 34.2007 48.246L34.3023 48.2132L34.4618 48.1461C35.482 47.7227 36.4912 47.2587 37.4738 46.69C38.3533 46.1838 39.1767 45.6152 39.9719 45.0215L40.0172 44.9856C40.7827 44.4059 41.4997 43.789 42.1841 43.139L42.2903 43.0468L42.6356 42.6954C44.1478 41.1814 45.4461 39.51 46.5053 37.7071L46.6256 37.5305L46.8427 37.0915C47.1833 36.4729 47.4989 35.8402 47.7863 35.1965L48.1549 34.3294C48.3986 33.7184 48.6111 33.0998 48.8064 32.4734L49.0641 31.6672C49.3032 30.797 49.4984 29.9191 49.6438 29.0301L49.7047 28.5239C49.8125 27.7615 49.889 26.9944 49.9281 26.2196L49.9422 25.5994C49.9546 24.8277 49.939 24.0513 49.8842 23.2763Z" fill="#EFC75E"/>
<path d="M46.6131 12.481C46.0897 11.5749 45.5038 10.7297 44.8882 9.91423L44.6868 9.6642C44.1337 8.95032 43.5478 8.2723 42.9292 7.63478L42.5105 7.20508C41.8309 6.5365 41.1263 5.90207 40.3873 5.32255L40.2248 5.18509C39.4015 4.55084 38.5391 3.98059 37.6502 3.45873L37.4721 3.33998L36.7956 2.98853C36.405 2.77763 36.016 2.56672 35.6146 2.37761C35.2287 2.19794 34.8398 2.03852 34.4508 1.87772L33.4713 1.48714C32.998 1.31691 32.5199 1.1731 32.0402 1.02621L31.2435 0.795054C30.7216 0.660686 30.1951 0.554461 29.6703 0.45287L28.9268 0.305975C28.4144 0.22326 27.9019 0.171607 27.388 0.123214L26.5459 0.0372386C26.1054 0.00909515 25.6664 0.0121841 25.2226 0.00600623L24.1384 0L23.2948 0.0609204C21.4294 0.18585 19.5641 0.518595 17.7317 1.07323L17.3521 1.17636C16.888 1.32635 16.4304 1.50911 15.971 1.68878L15.09 2.03714C14.7119 2.19811 14.3385 2.38705 13.9635 2.57307C13.6011 2.7512 13.2371 2.93087 12.8809 3.12925L12.4747 3.33706L11.8747 3.72455C11.52 3.94335 11.1686 4.16661 10.8233 4.40411C10.4859 4.64007 10.1532 4.88066 9.82815 5.12743L8.96892 5.81335C8.61421 6.11023 8.26911 6.41174 7.9331 6.72406L7.29575 7.34579C6.92543 7.71767 6.56299 8.09571 6.22098 8.48629L5.98828 8.76756L13.0981 21.1016C14.7306 16.1008 19.4283 12.4811 24.976 12.4811C24.9757 12.481 46.6131 12.481 46.6131 12.481Z" fill="#E2574C"/>
<path d="M99.8477 0C86.0977 0 74.8477 11.25 74.8477 25C74.8477 38.75 86.0977 50 99.8477 50C113.598 50 124.848 38.75 124.848 25C124.848 11.25 113.597 0 99.8477 0ZM99.8477 45.3124C88.5977 45.3124 79.5353 36.2498 79.5353 25C79.5353 13.7502 88.5977 4.68746 99.8477 4.68746C111.098 4.68746 120.16 13.75 120.16 25C120.16 36.25 111.097 45.3124 99.8477 45.3124Z" fill="#26A6D1"/>
<path d="M112.816 12.0312L103.129 28.2812L96.5664 21.7187C96.5666 21.7187 112.816 12.0312 112.816 12.0312Z" fill="#E2574C"/>
<path d="M86.8789 37.9685L103.129 28.281L96.5664 21.7185C96.5664 21.7187 86.8789 37.9685 86.8789 37.9685Z" fill="#E4E7E7"/>
<path d="M175.573 0C188.917 0 199.689 10.7717 199.689 24.1159C199.689 37.46 188.917 48.2317 175.573 48.2317C162.229 48.2317 151.457 37.46 151.457 24.1159C151.457 10.7717 162.229 0 175.573 0Z" fill="#2394BC"/>
<path d="M179.751 49.5177C191.97 47.4276 201.295 36.9775 201.295 24.1157L201.134 24.4373C201.456 22.0256 201.456 19.7748 200.973 18.0064C200.813 19.4532 200.652 20.2571 200.33 20.5787C200.33 20.418 200.33 18.971 199.848 17.0418C199.687 15.5949 199.366 14.1478 198.883 12.8616C199.044 13.5046 199.044 13.9871 199.044 14.4694C197.115 9.48539 192.613 3.21537 181.198 3.37607C181.198 3.37607 185.218 3.85837 186.986 6.59144C186.986 6.59144 185.057 6.10914 183.61 6.91303C185.378 7.55603 186.986 8.35992 188.272 9.1638H188.433C188.754 9.32451 189.076 9.6461 189.398 9.8068C191.809 11.5753 194.06 13.9869 193.899 17.0416C193.256 16.077 192.613 15.4338 191.648 15.2731C192.774 19.614 192.774 23.1509 191.97 25.8842C191.327 23.955 190.844 22.9902 190.362 22.5079C191.005 28.2956 190.201 32.4758 187.629 35.2088C188.111 33.6011 188.272 32.1542 188.272 31.0287C185.217 35.5302 181.841 37.9419 177.983 38.1026C176.536 38.1026 175.089 37.9419 173.642 37.4596C171.713 36.8166 169.944 35.6911 168.336 34.0834C170.748 34.2441 173.159 33.9227 175.089 32.7972L178.304 30.7071C178.786 30.5464 179.108 30.5464 179.59 30.7071C180.394 30.5464 180.716 30.2248 180.394 29.4209C180.073 28.9386 179.43 28.4563 178.626 27.974C177.018 27.1702 175.25 27.331 173.481 28.4563C171.713 29.4209 170.105 29.4209 168.497 28.2956C167.532 27.6526 166.407 26.6879 165.442 25.4017L165.121 24.7587C164.96 26.2056 165.121 27.8133 165.764 30.0641C165.121 27.974 164.96 26.2056 165.121 24.7587C165.121 23.6332 165.603 22.8295 166.568 22.8295H166.246H166.728C167.854 22.9902 168.979 23.1511 170.426 23.6334C170.587 22.3472 170.426 20.9003 169.462 19.4532C170.748 18.1671 171.873 17.3632 172.838 16.8809C173.32 16.7202 173.481 16.2379 173.642 15.7554C173.963 15.1124 173.802 14.7908 173.481 14.4692C172.516 14.4692 171.713 14.4692 170.748 14.3085C170.426 14.1478 169.944 13.8262 169.301 13.3439L167.854 11.897L167.372 11.5755L167.211 11.4148L167.372 11.254C167.533 10.1286 167.854 9.16398 168.336 8.36009L168.497 8.19939C168.979 7.3955 169.944 6.59161 171.23 5.62702C168.658 5.94861 166.407 7.07391 164.317 9.00327C162.709 8.52097 160.619 8.68168 158.368 9.64627L158.047 9.80698L158.368 9.64627C156.922 9.00327 155.957 7.07391 155.474 3.85855C153.545 5.62702 152.742 9.00327 152.742 13.6657L152.259 14.4696L152.099 14.6303C151.777 15.1126 151.456 15.7558 150.973 16.5595C150.33 17.8457 150.009 18.8102 150.009 19.7748V20.0964C150.009 20.2571 150.009 20.5787 150.009 20.7394L151.455 19.614C150.973 21.0608 150.491 22.5079 150.33 23.9548V24.5978L149.848 24.1159C149.848 29.5822 151.616 34.7269 154.51 38.9068L154.671 39.0676L154.831 39.2283C156.922 42.1222 159.655 44.5337 162.87 46.463C165.121 47.7492 167.533 48.7138 170.105 49.357L170.587 49.5177C171.07 49.6784 171.713 49.6784 172.195 49.8393C172.677 49.8393 172.999 50 173.481 50H173.964H174.767H175.571H176.214H177.34C177.983 50 178.626 49.8393 179.269 49.8393C179.269 49.5177 179.751 49.5177 179.751 49.5177ZM195.989 18.1672V18.328V18.1672Z" fill="#EC8840"/>
<path d="M262.716 3.93356C259.017 1.40072 254.438 0 249.276 0C244.554 0 240.322 1.16813 236.8 3.30421C230.022 7.37533 225.848 14.9958 225.848 24.7604C225.848 37.9681 235.215 50 249.271 50C263.325 50 272.692 37.9712 272.692 24.7604C272.69 15.4768 268.917 8.1311 262.716 3.93356ZM249.274 4.66445C256.814 4.66445 258.638 15.1395 258.638 24.6542C258.638 33.4709 257.494 45.2685 249.365 45.2685C241.235 45.2685 239.894 33.3553 239.894 24.5401C239.896 15.0255 241.734 4.66445 249.274 4.66445Z" fill="#E2574C"/>
</svg>
