<svg width="30" height="28" fill="none" xmlns="http://www.w3.org/2000/svg"><path d="M15.996 0c7.747 0 14 6.03 14 13.5s-6.253 13.5-14 13.5c-7.746 0-14-6.03-14-13.5S8.25 0 15.996 0z" fill="#2394BC"/><path d="M17.832 27.72c6.879-1.21 12.128-7.26 12.128-14.709l-.09.187c.181-1.397.181-2.7-.09-3.724-.091.838-.182 1.303-.363 1.49 0-.094 0-.932-.271-2.049a10.443 10.443 0 0 0-.543-2.42c.09.372.09.651.09.93C27.607 4.54 25.073.91 18.646 1.003c0 0 2.263.279 3.259 1.862 0 0-1.086-.28-1.901.186.995.372 1.9.838 2.625 1.303h.09c.181.093.362.28.543.373 1.358 1.024 2.625 2.42 2.535 4.189-.362-.559-.724-.931-1.268-1.024.634 2.514.634 4.562.182 6.144-.362-1.117-.634-1.675-.906-1.955.362 3.352-.09 5.772-1.538 7.355a8.75 8.75 0 0 0 .362-2.42c-1.72 2.606-3.62 4.003-5.793 4.096-.815 0-1.63-.093-2.444-.373-1.086-.372-2.082-1.024-2.987-1.955 1.358.093 2.715-.093 3.802-.745l1.81-1.21a.974.974 0 0 1 .724 0c.453-.093.634-.28.453-.745-.181-.279-.543-.558-.996-.837-.905-.466-1.9-.373-2.896.279-.996.558-1.901.558-2.806-.093a7.21 7.21 0 0 1-1.72-1.676l-.181-.372c-.09.838 0 1.768.362 3.072-.362-1.21-.453-2.234-.362-3.072 0-.652.271-1.117.814-1.117h-.18.27c.634.093 1.268.186 2.083.465.09-.745 0-1.583-.543-2.42.724-.745 1.357-1.21 1.9-1.49.272-.093.362-.372.453-.652.181-.372.09-.558-.09-.745-.544 0-.996 0-1.54-.093-.18-.093-.452-.279-.814-.558l-.814-.838-.272-.186-.09-.093.09-.093c.09-.652.272-1.21.543-1.676l.09-.093c.272-.466.815-.931 1.54-1.49-1.449.186-2.716.838-3.893 1.955-.905-.279-2.082-.186-3.349.373l-.18.093.18-.093C4.98 4.26 4.435 3.143 4.164 1.28c-1.086 1.024-1.539 2.98-1.539 5.68l-.271.465-.09.093c-.182.279-.363.651-.634 1.117-.362.745-.543 1.303-.543 1.862v.558l.814-.651c-.271.837-.543 1.675-.633 2.513v.373l-.272-.28c0 3.166.996 6.145 2.625 8.565l.09.093.091.093c1.177 1.676 2.715 3.073 4.526 4.19a15.727 15.727 0 0 0 4.073 1.676l.271.093c.272.093.634.093.905.186.272 0 .453.093.725.093H16.474c.362 0 .724-.093 1.086-.093 0-.186.272-.186.272-.186zm9.142-18.153v.093-.093z" fill="#EC8840"/></svg>