<svg width="589" height="416" viewBox="0 0 589 416" fill="none" xmlns="http://www.w3.org/2000/svg">
<path d="M187 162.954L165.69 138C159.315 140.403 145.253 147.76 140.008 157.963C133.451 170.718 160.772 200.109 167.875 184.581C173.558 172.16 182.993 164.988 187 162.954Z" fill="#CC7C51"/>
<path d="M206 327H441V346H225C214.507 346 206 337.493 206 327Z" fill="#3867D4"/>
<path d="M295.461 195.192C297.358 189.691 302.536 186 308.355 186H481L432.368 327H250L295.461 195.192Z" fill="#82A2EB"/>
<path d="M307.976 206.191C309.873 200.744 314.992 197.079 320.76 197.037L445.899 196.144C455.536 196.075 462.203 205.751 458.707 214.731L420.713 312.309C418.673 317.549 413.627 321 408.004 321H287.192C277.806 321 271.224 311.74 274.311 302.876L307.976 206.191Z" fill="#F9F9F9"/>
<path d="M481.735 230.138C489.716 206.745 484.691 190.782 481.181 186L418 346H441.832C451.807 317.126 473.755 253.531 481.735 230.138Z" fill="#3867D4"/>
<rect y="344" width="589" height="5" rx="2.5" fill="#82A2EB"/>
<path d="M52.2673 286.102C57.0609 216.09 96.7531 180.862 116 172L84.4071 357C84.4071 357 60.4392 357 55.5367 338.168C50.6342 319.335 50.0888 308.257 52.2673 286.102Z" fill="#5DAABD"/>
<path d="M66.296 299.578C69.8119 224.539 97.4265 182.973 110.794 171.57C131.12 152.81 179.464 178.742 198.143 193.088C213.085 204.565 195.945 255.621 185.507 279.715C185.507 279.715 180.013 383.709 185.507 416L63 416C71.2396 350.603 64.9402 328.514 66.296 299.578Z" fill="#6FBFD3"/>
<path d="M219.281 72.8676C198.093 67.9888 172.932 84.8798 163 93.9352C167.966 93.9352 179.553 94.9331 186.174 98.9249C192.796 102.917 185.255 110.568 180.657 113.894C178.817 111.492 173.925 108.128 169.069 113.894C164.214 119.66 168.886 128.863 171.828 132.744C171.093 133.114 169.842 136.292 170.725 146.05C171.828 158.247 198.865 176.542 204.383 175.988C209.901 175.434 212.718 166.387 213.211 164.9C213.763 163.236 214.866 163.236 214.866 161.573C208.245 158.247 207.693 149.376 208.797 152.148C209.901 154.92 221.488 159.91 221.488 155.475C221.488 153.257 222.591 149.931 223.695 148.267C225.718 148.637 231.199 149.154 236.937 148.267C244.11 147.159 238.041 142.169 238.593 128.863C239.144 115.557 242.455 112.785 243.559 102.806C244.662 92.8264 245.766 78.9661 219.281 72.8676Z" fill="#DAA07B"/>
<path d="M235.832 70.0398C240.232 77.1309 241.148 83.3357 238.582 83.3357C234.916 83.3357 218.468 84.6469 207.786 89.4296C197.887 93.8616 195.138 104.388 190.738 112.698C186.339 124.885 187.989 129.871 185.789 138.181C183.589 135.411 181.704 125.993 182.489 120.453C183.039 116.575 183.039 115.098 180.29 114.359C177.54 113.621 168.741 114.359 172.041 130.425C175.34 146.491 183.809 146.491 156.093 170.867C121.448 201.337 89.0023 179.177 93.4017 162.003C97.8011 144.829 111.549 147.599 117.048 132.641C122.548 117.683 112.099 109.927 124.197 102.726C136.296 95.5236 145.645 94.4156 154.993 78.3497C164.342 62.2838 178.64 58.4058 193.488 53.9738C208.336 49.5419 230.333 61.1758 235.832 70.0398Z" fill="#2C1D2A"/>
<path d="M217.848 70.3774C215.632 65.539 209.171 59.9308 206.217 57.7315C195.694 50.5837 196.801 60.4807 186.278 58.2814C175.755 56.0821 176.31 51.1336 168.556 43.4361C159.313 34.2606 135.325 49.1964 133.664 45.3477C129.153 34.901 148.617 14.2954 162.464 18.1442C169.664 20.8933 173.54 14.1122 172.432 9.89684C170.77 3.29895 170.772 -6.07676e-05 173.54 0C176.309 6.0791e-05 171.878 8.79718 190.155 12.646C208.432 16.4947 207.879 30.7901 207.879 35.7386C207.879 40.687 204.002 47.8347 206.217 50.034C207.989 51.7934 210.648 51.5002 211.756 51.1336C213.971 50.5838 216.186 50.4951 221.171 51.1336C238.34 53.3329 246.094 61.5802 250.525 72.5767C254.956 83.5732 248.864 94.0199 239.448 92.9202C230.033 91.8206 220.617 76.4255 217.848 70.3774Z" fill="#453144"/>
<path d="M209.557 46.5444C212.349 47.6277 212.163 50.8774 211.791 51.4191C210.115 61.7104 200.621 61.7104 200.062 56.8355C199.752 54.1276 200.62 50.8776 202.296 49.2527C203.971 47.6279 205.089 44.8112 209.557 46.5444Z" fill="#F2F56D"/>
<path d="M288.055 293.001L281.423 288C264.29 298.003 239.199 320.676 275.896 331.345C321.768 344.682 370.956 325.232 375.93 324.121C380.904 323.01 383.115 324.121 389.747 326.344C396.379 328.567 395.827 321.898 402.459 326.344C409.091 330.79 415.723 325.788 411.854 321.898C407.985 318.008 407.433 313.007 403.564 310.228C399.695 307.45 397.485 309.673 386.431 309.117C375.378 308.561 362.666 313.563 336.138 311.895C314.915 310.562 295.24 298.744 288.055 293.001Z" fill="#DAA07B"/>
<path d="M198.482 194.222C188.264 188.486 173.492 204.333 167.384 212.974C142.505 269.891 229.58 315.373 276.228 331C276.413 327.691 275.117 318.866 277.893 310.042C280.557 301.577 285.668 294.599 289 292.393C276.042 280.995 247.128 254.669 235.133 240.55C220.14 222.901 211.254 201.392 198.482 194.222Z" fill="#6FBFD3"/>
<path d="M497 279H544L538.535 344H502.465L497 279Z" fill="#26458B"/>
<path d="M495.294 267H544.706L548 279H492L495.294 267Z" fill="#C9D9FD"/>
<ellipse cx="520.5" cy="305" rx="11.5" ry="12" fill="white"/>
<rect x="319" y="207" width="39" height="7" rx="3.5" fill="#82A2EB"/>
<rect x="362" y="207" width="19" height="7" rx="3.5" fill="#82A2EB"/>
<rect x="314" y="220" width="28" height="6" rx="3" fill="#82A2EB"/>
<rect x="310" y="233" width="67" height="6" rx="3" fill="#82A2EB"/>
<rect x="350" y="220" width="54" height="6" rx="3" fill="#82A2EB"/>
<path fill-rule="evenodd" clip-rule="evenodd" d="M323.5 16C303.342 16 287 32.3416 287 52.5C287 65.8654 294.184 77.553 304.901 83.9123C303.05 91.6813 298.691 98.9125 291.974 104.281C291.508 104.653 291.036 105.012 290.558 105.359C299.715 106.171 309.188 103.594 316.94 97.3985C320.01 94.9457 322.586 92.1041 324.656 89H420.5C440.658 89 457 72.6584 457 52.5C457 32.3416 440.658 16 420.5 16H323.5Z" fill="#82A2EB"/>
</svg>
