<svg width="70" height="70" fill="none" xmlns="http://www.w3.org/2000/svg"><circle cx="35" cy="35" r="33.301" stroke="#DB4F5F" stroke-width="3.398"/><path d="M21.512 51.82l-1.71-27.354H50.21L48.5 51.82a2.719 2.719 0 0 1-2.713 2.55H24.225a2.719 2.719 0 0 1-2.713-2.55z" stroke="#DB4F5F" stroke-width="2.718"/><rect x="17.676" y="19.709" width="34.66" height="4.757" rx="2.379" stroke="#DB4F5F" stroke-width="2.718"/><path d="M29.23 15.631h10.874c.75 0 1.36.609 1.36 1.36v2.718H27.87V16.99c0-.75.609-1.359 1.36-1.359z" stroke="#DB4F5F" stroke-width="2.718"/><path stroke="#DB4F5F" stroke-width="2.718" stroke-linecap="round" d="M35.344 29.903v19.708M43.16 29.903l-1.36 19.71M26.852 29.903l1.359 19.71"/></svg>