<svg width="140" height="28" viewBox="0 0 140 28" fill="none" xmlns="http://www.w3.org/2000/svg">
<path fill-rule="evenodd" clip-rule="evenodd" d="M121.138 20.4635C121.743 20.4635 122.233 19.9877 122.233 19.4007C122.233 18.8137 121.743 18.3379 121.138 18.3379C120.533 18.3379 120.043 18.8137 120.043 19.4007C120.043 19.9877 120.533 20.4635 121.138 20.4635Z" fill="white"/>
<path fill-rule="evenodd" clip-rule="evenodd" d="M125.248 9.1505C125.852 9.1505 126.343 8.67467 126.343 8.0877C126.343 7.50073 125.852 7.0249 125.248 7.0249C124.643 7.0249 124.152 7.50073 124.152 8.0877C124.152 8.67467 124.643 9.1505 125.248 9.1505Z" fill="white"/>
<path fill-rule="evenodd" clip-rule="evenodd" d="M42.0336 10.0278C43.2024 10.0278 43.9909 10.8906 43.9806 12.2329C43.9711 13.4776 43.1167 14.3541 42.0695 14.4358L37.8749 14.4351L37.906 10.03L42.0336 10.0278ZM40.8107 15.9302L44.33 20.2539C44.4896 20.4875 44.7384 20.6083 45.0103 20.6083C45.4643 20.6083 45.8287 20.2547 45.8287 19.8056C45.8287 19.6224 45.7702 19.4394 45.6518 19.3015L42.6114 15.8446C44.587 15.2945 45.6349 13.893 45.6349 12.2346C45.6349 10.0698 44.1372 8.5249 42.0512 8.5249H37.0753C36.7267 8.5249 36.5085 8.58366 36.3773 8.73445C36.2636 8.86517 36.2505 8.97045 36.2606 9.22691C36.2626 9.27887 36.2632 9.29996 36.2632 9.32761L36.2611 19.8318C36.2611 20.281 36.6255 20.6346 37.0794 20.6346C37.5334 20.6346 37.8978 20.281 37.8978 19.8318L37.8576 15.9418L40.8107 15.9302Z" fill="white"/>
<path fill-rule="evenodd" clip-rule="evenodd" d="M133.564 8.43799C130.208 8.43799 128.102 10.3563 128.102 14.4959C128.102 18.6355 130.208 20.5791 133.564 20.5791C136.945 20.5791 139.026 18.6355 139.026 14.4959C139.026 10.3563 136.945 8.43799 133.564 8.43799ZM133.564 19.1151C131.171 19.1151 129.792 17.7268 129.792 14.4959C129.792 11.3155 131.171 9.90199 133.564 9.90199C135.957 9.90199 137.336 11.3155 137.336 14.4959C137.336 17.7268 135.957 19.1151 133.564 19.1151Z" fill="white"/>
<path fill-rule="evenodd" clip-rule="evenodd" d="M126.028 10.9787C126.028 10.5468 125.664 10.2109 125.196 10.2109C124.727 10.2109 124.363 10.5468 124.363 10.9787V19.685C124.363 20.1169 124.727 20.4528 125.196 20.4528C125.664 20.4528 126.028 20.1169 126.028 19.685V10.9787Z" fill="white"/>
<path fill-rule="evenodd" clip-rule="evenodd" d="M107.895 14.4959C107.895 18.7365 110.053 20.5791 113.513 20.5791C115.828 20.5791 117.18 19.5442 117.571 19.1656C117.727 19.0142 117.857 18.8627 117.857 18.5851C117.857 18.1812 117.519 17.8531 117.102 17.8531C116.894 17.8531 116.79 17.9035 116.634 18.0045C115.906 18.5346 115.022 19.0899 113.513 19.0899C111.068 19.0899 109.585 17.4744 109.585 14.9755H117.18C118.221 14.9755 118.221 14.0921 118.221 13.3601C118.221 11.6437 117.415 8.43799 113.253 8.43799C109.871 8.43799 107.895 10.6088 107.895 14.4959ZM116.582 13.562H109.585C109.741 11.3155 110.99 9.90199 113.253 9.90199C115.932 9.90199 116.582 11.7446 116.582 13.562Z" fill="white"/>
<path fill-rule="evenodd" clip-rule="evenodd" d="M96.0469 14.4959C96.0469 18.7365 98.2058 20.5791 101.665 20.5791C103.98 20.5791 105.333 19.5442 105.723 19.1656C105.879 19.0142 106.009 18.8627 106.009 18.5851C106.009 18.1812 105.671 17.8531 105.255 17.8531C105.047 17.8531 104.943 17.9035 104.787 18.0045C104.058 18.5346 103.174 19.0899 101.665 19.0899C99.2202 19.0899 97.7376 17.4744 97.7376 14.9755H105.333C106.373 14.9755 106.373 14.0921 106.373 13.3601C106.373 11.6437 105.567 8.43799 101.405 8.43799C98.0237 8.43799 96.0469 10.6088 96.0469 14.4959ZM104.735 13.562H97.7376C97.8937 11.3155 99.1422 9.90199 101.405 9.90199C104.084 9.90199 104.735 11.7446 104.735 13.562Z" fill="white"/>
<path fill-rule="evenodd" clip-rule="evenodd" d="M83.582 14.4958C83.582 18.6354 85.5589 20.579 88.9143 20.579C91.8796 20.579 94.0125 18.9383 94.0125 15.6064V7.86925C94.0125 7.4149 93.6483 7.06152 93.1801 7.06152C92.7119 7.06152 92.3478 7.4149 92.3478 7.86925V10.0785C91.7495 9.27081 90.475 8.43784 88.8103 8.43784C85.4548 8.43784 83.582 10.3562 83.582 14.4958ZM92.33 15.6064C92.33 18.0044 90.8994 19.115 88.8965 19.115C86.5035 19.115 85.2289 17.651 85.2289 14.4958C85.2289 11.3911 86.5295 9.90185 88.8965 9.90185C91.3416 9.90185 92.33 12.1231 92.33 12.1231V15.6064Z" fill="white"/>
<path fill-rule="evenodd" clip-rule="evenodd" d="M76.9836 8.43799C75.2928 8.43799 74.0183 9.24571 73.5241 10.2049V9.39716C73.5241 8.94282 73.1599 8.58944 72.6917 8.58944C72.2235 8.58944 71.8594 8.94282 71.8594 9.39716V19.6452C71.8594 20.0995 72.2235 20.4529 72.6917 20.4529C73.1599 20.4529 73.5241 20.0995 73.5241 19.6452V13.4106C73.5241 11.3912 74.4085 9.87675 76.9836 9.87675C79.5066 9.87675 80.1049 11.2398 80.1049 13.2339V19.6452C80.1049 20.0995 80.4691 20.4529 80.9373 20.4529C81.4055 20.4529 81.7696 20.0995 81.7696 19.6452V12.9057C81.7696 10.7602 80.9893 8.43799 76.9836 8.43799Z" fill="white"/>
<path fill-rule="evenodd" clip-rule="evenodd" d="M60.7152 8.58936C60.247 8.58936 59.8828 8.94274 59.8828 9.39708V15.9851C59.8828 18.383 60.7152 20.579 64.7209 20.579C68.7526 20.579 69.5589 18.383 69.5589 15.9851V9.39708C69.5589 8.94274 69.1948 8.58936 68.7526 8.58936C68.2844 8.58936 67.8942 8.94274 67.8942 9.39708V15.9851C67.8942 17.6258 67.348 19.0393 64.7209 19.0393C62.0938 19.0393 61.5475 17.6258 61.5475 15.9851V9.39708C61.5475 8.94274 61.1574 8.58936 60.7152 8.58936Z" fill="white"/>
<path fill-rule="evenodd" clip-rule="evenodd" d="M52.6264 8.43799C49.271 8.43799 47.1641 10.3563 47.1641 14.4959C47.1641 18.6355 49.271 20.5791 52.6264 20.5791C56.0078 20.5791 58.0887 18.6355 58.0887 14.4959C58.0887 10.3563 56.0078 8.43799 52.6264 8.43799ZM52.6264 19.1151C50.2334 19.1151 48.8548 17.7268 48.8548 14.4959C48.8548 11.3155 50.2334 9.90199 52.6264 9.90199C55.0194 9.90199 56.398 11.3155 56.398 14.4959C56.398 17.7268 55.0194 19.1151 52.6264 19.1151Z" fill="white"/>
<path fill-rule="evenodd" clip-rule="evenodd" d="M23.5801 13.9741C23.5801 8.33099 18.8146 3.75634 12.9362 3.75634C7.0577 3.75634 2.29226 8.33099 2.29226 13.9741C2.29226 19.6172 7.0577 24.1919 12.9362 24.1919C18.8146 24.1919 23.5801 19.6172 23.5801 13.9741ZM0.785156 13.9741C0.785156 7.53197 6.22535 2.30957 12.9362 2.30957C19.647 2.30957 25.0872 7.53197 25.0872 13.9741C25.0872 20.4163 19.647 25.6387 12.9362 25.6387C6.22535 25.6387 0.785156 20.4163 0.785156 13.9741Z" fill="white"/>
<path fill-rule="evenodd" clip-rule="evenodd" d="M12.1329 24.4621L11.7422 25.082L12.9821 25.8635L13.3728 25.2436L23.2945 9.50253L23.6853 8.88258L22.4454 8.10107L22.0546 8.72102L12.1329 24.4621Z" fill="white"/>
<path fill-rule="evenodd" clip-rule="evenodd" d="M23.5528 9.27846L24.1977 8.93048L23.5017 7.64062L22.8568 7.98861L2.89102 18.7616L2.24609 19.1095L2.94206 20.3994L3.58699 20.0514L23.5528 9.27846Z" fill="white"/>
<path fill-rule="evenodd" clip-rule="evenodd" d="M3.49236 8.10892L2.85456 7.74805L2.13281 9.02365L2.77062 9.38453L22.0542 20.2953L22.692 20.6562L23.4138 19.3806L22.776 19.0197L3.49236 8.10892Z" fill="white"/>
<path fill-rule="evenodd" clip-rule="evenodd" d="M16.2358 3.1084C16.2358 3.05413 16.2344 3.00019 16.2317 2.9466L17.0813 3.42096L16.9562 2.97183C16.9562 2.97183 16.3479 2.74959 16.1131 2.2408C15.7376 0.946283 14.543 0 13.1274 0C11.8571 0 10.7648 0.761983 10.2826 1.85381C9.86842 2.58316 9.28531 2.85856 9.28531 2.85856L9.12978 3.31575L10.033 2.81144C10.0237 2.90918 10.019 3.00824 10.019 3.1084C10.019 3.291 10.0348 3.46991 10.065 3.64387L9.08203 3.87426C9.08203 3.87426 9.14698 4.4249 9.12978 4.42559C9.84952 4.14075 10.2806 4.50512 10.4876 4.7504C10.5326 4.82263 10.5805 4.89287 10.6311 4.96098C11.202 5.7254 12.1073 6.2168 13.1274 6.2168C14.1012 6.2168 14.9705 5.76898 15.5404 5.06802C15.5455 5.07243 15.551 5.06087 15.5622 5.04093C15.618 4.97078 15.6707 4.89817 15.7204 4.82329C15.9375 4.58283 16.3234 4.25701 17.0119 4.5295C16.9947 4.52881 17.0977 3.97947 17.0977 3.97947L16.1671 3.76135C16.2121 3.55081 16.2358 3.33237 16.2358 3.1084Z" fill="white"/>
<path fill-rule="evenodd" clip-rule="evenodd" d="M5.20344 6.35804C5.04236 6.21519 4.8639 6.08701 4.66897 5.97672C4.62174 5.95 4.5741 5.92464 4.52611 5.90065L5.35733 5.39479L4.85619 5.28428C4.85619 5.28428 4.48789 5.57338 3.85343 5.65628C2.54183 5.34567 1.12998 5.91941 0.432907 7.15149C-0.192615 8.25709 -0.0673026 9.58302 0.645523 10.5404C1.07637 11.26 0.997429 11.891 0.997429 11.891L1.35026 12.2636L1.3561 11.2291C1.43661 11.2853 1.52049 11.3382 1.60767 11.3876C1.76659 11.4775 1.93007 11.5519 2.09635 11.6112L1.81285 12.5802C1.81285 12.5802 2.35147 12.8151 2.3436 12.8304C2.45011 12.0637 2.9521 11.8477 3.26754 11.7883C3.35257 11.7847 3.4373 11.7776 3.5215 11.767C3.52607 11.7672 3.52846 11.7674 3.52846 11.7674L3.52822 11.7662C4.46791 11.6466 5.34141 11.1006 5.84374 10.2128C6.32327 9.3652 6.36154 8.38813 6.03212 7.54692L6.03844 7.54468C6.03844 7.54468 6.03109 7.53421 6.01926 7.51461C5.98566 7.43155 5.94846 7.34986 5.90772 7.2698C5.80533 6.96244 5.76317 6.44665 6.33938 5.98156C6.33031 5.99619 5.85153 5.65549 5.85153 5.65549L5.20344 6.35804Z" fill="white"/>
<path fill-rule="evenodd" clip-rule="evenodd" d="M2.19158 16.5552C1.98957 16.6297 1.79228 16.7264 1.60297 16.8461C1.55709 16.8751 1.51224 16.9051 1.46841 16.936L1.41539 15.9644L1.08119 16.3539C1.08119 16.3539 1.16193 16.8151 0.935176 17.4134C0.0416315 18.4225 -0.119895 19.9379 0.636535 21.1345C1.31532 22.2082 2.54308 22.7243 3.72363 22.5485C4.56143 22.5089 5.08021 22.8766 5.08021 22.8766L5.57535 22.7417L4.66644 22.2478C4.754 22.2034 4.84026 22.1544 4.92493 22.1009C5.07927 22.0033 5.22209 21.8944 5.35299 21.7759L6.07296 22.4837C6.07296 22.4837 6.53452 22.12 6.54429 22.1342C5.91894 21.678 5.96576 21.1335 6.06246 20.8274C6.09945 20.7508 6.13323 20.6727 6.16374 20.5936C6.16608 20.5896 6.16736 20.5876 6.16736 20.5876L6.16617 20.5872C6.50487 19.7026 6.43646 18.6748 5.89136 17.8125C5.37099 16.9894 4.52798 16.4939 3.63094 16.3867L3.63195 16.3801C3.63195 16.3801 3.61926 16.3816 3.59639 16.3828C3.50732 16.3732 3.41774 16.3673 3.32793 16.3654C3.00867 16.3104 2.53418 16.1038 2.39658 15.3762C2.40519 15.3911 1.87869 15.6521 1.87869 15.6521L2.19158 16.5552Z" fill="white"/>
<path fill-rule="evenodd" clip-rule="evenodd" d="M23.6225 16.9382C23.8212 17.0211 24.0143 17.126 24.1984 17.2535C24.243 17.2844 24.2866 17.3162 24.3291 17.349L24.4228 16.3805L24.7404 16.7836C24.7404 16.7836 24.6404 17.241 24.8419 17.8483C25.6924 18.8939 25.7903 20.4148 24.9844 21.5786C24.2613 22.6229 23.013 23.0872 21.8408 22.8621C21.0054 22.7874 20.4717 23.1331 20.4717 23.1331L19.9826 22.9776L20.9114 22.5221C20.8258 22.4741 20.7417 22.4216 20.6593 22.3646C20.5092 22.2606 20.3711 22.1458 20.2453 22.022L19.4963 22.6989C19.4963 22.6989 19.0504 22.3162 19.04 22.33C19.6839 21.9004 19.6599 21.3544 19.5761 21.0446C19.5424 20.9664 19.5119 20.8871 19.4847 20.8067C19.4826 20.8027 19.4814 20.8006 19.4814 20.8006L19.4826 20.8003C19.1812 19.9022 19.2926 18.8782 19.8733 18.0395C20.4277 17.2389 21.2907 16.7791 22.1915 16.7096L22.1907 16.7029C22.1907 16.7029 22.2034 16.705 22.2261 16.7071C22.3156 16.7012 22.4053 16.6992 22.4951 16.701C22.8164 16.6594 23.2991 16.4729 23.4671 15.7517C23.4578 15.7662 23.9729 16.049 23.9729 16.049L23.6225 16.9382Z" fill="white"/>
<path fill-rule="evenodd" clip-rule="evenodd" d="M9.62336 24.1775C9.57652 24.3877 9.55093 24.6059 9.54898 24.8299C9.5485 24.8841 9.54942 24.9381 9.5517 24.9917L8.70628 24.5099L8.85259 25.0018C8.85259 25.0018 9.284 25.1838 9.66409 25.6985C10.0283 26.9962 11.2146 27.9529 12.6301 27.9653C13.9004 27.9764 14.9993 27.2239 15.491 26.1364C15.9115 25.4106 16.5017 25.1738 16.5017 25.1738L16.6565 24.6845L15.7489 25.1809C15.7591 25.0833 15.7647 24.9843 15.7655 24.8841C15.7671 24.7015 15.753 24.5225 15.7243 24.3483L16.7092 24.1265C16.7092 24.1265 16.6535 23.5415 16.6707 23.5409C15.9485 23.8195 15.5162 23.4852 15.3113 23.2381C15.2669 23.1655 15.2196 23.0948 15.1696 23.0263C15.1675 23.0222 15.1665 23.02 15.1665 23.02L15.1656 23.0208C14.6055 22.2569 13.7045 21.7576 12.6844 21.7487C11.7106 21.7402 10.8375 22.1804 10.2614 22.8764L10.2564 22.8719C10.2564 22.8719 10.2508 22.8834 10.2394 22.9033C10.1831 22.9729 10.1296 23.0451 10.0794 23.1195C9.86018 23.3581 9.4295 23.645 8.74337 23.3665C8.76057 23.3674 8.6947 23.9513 8.6947 23.9513L9.62336 24.1775Z" fill="white"/>
<path fill-rule="evenodd" clip-rule="evenodd" d="M23.2391 12.129C25.0495 12.129 26.5172 10.6613 26.5172 8.85088C26.5172 7.04042 25.0495 5.57275 23.2391 5.57275C21.4286 5.57275 19.9609 7.04042 19.9609 8.85088C19.9609 10.6613 21.4286 12.129 23.2391 12.129Z" fill="white"/>
</svg>
