<svg width="44" height="44" viewBox="0 0 44 44" fill="none" xmlns="http://www.w3.org/2000/svg">
<path fill-rule="evenodd" clip-rule="evenodd" d="M14.2202 11.3934C13.4391 10.6123 12.1728 10.6123 11.3918 11.3934C10.6107 12.1744 10.6107 13.4408 11.3918 14.2218L19.1699 22L11.3918 29.7782C10.6107 30.5592 10.6107 31.8256 11.3918 32.6066C12.1728 33.3877 13.4391 33.3877 14.2202 32.6066L21.9984 24.8284L29.7765 32.6066C30.5576 33.3877 31.8239 33.3877 32.605 32.6066C33.386 31.8256 33.386 30.5592 32.605 29.7782L24.8268 22L32.605 14.2218C33.386 13.4408 33.386 12.1744 32.605 11.3934C31.8239 10.6123 30.5576 10.6123 29.7765 11.3934L21.9984 19.1716L14.2202 11.3934Z" fill="white"/>
</svg>
