<svg width="374" height="424" viewBox="0 0 374 424" fill="none" xmlns="http://www.w3.org/2000/svg">
<g filter="url(#filter0_d)">
<rect x="12" y="8" width="350" height="400" rx="20" fill="white"/>
</g>
<rect x="87" y="88" width="199" height="196" rx="98" fill="#FFC03A"/>
<mask id="mask0" mask-type="alpha" maskUnits="userSpaceOnUse" x="87" y="88" width="199" height="196">
<rect x="87" y="88" width="199" height="196" rx="98" fill="#FFC03A"/>
</mask>
<g mask="url(#mask0)">
<path d="M145.034 234.894C123.464 250.55 119.336 275.882 120.603 287.531C124.231 329.569 233.373 306.371 239.84 283.508C246.306 260.644 241.608 256.44 240.482 228.745C239.356 201.05 225.16 165.82 220.038 166.378C215.94 166.824 211.995 177.626 210.534 182.972C209.086 182.658 205.529 182.008 202.881 181.919C200.233 181.83 195.569 182.558 193.568 182.933C193.426 177.29 191.238 165.836 183.626 165.156C174.11 164.306 160.278 219.089 159.235 222.503C158.193 225.917 157.261 226.019 145.034 234.894Z" fill="#474747"/>
<path d="M212.152 233.984C212.152 235.584 208.044 241.71 202.976 241.71C197.909 241.71 193.801 235.584 193.801 233.984C193.801 232.383 197.909 231.086 202.976 231.086C208.044 231.086 212.152 232.383 212.152 233.984Z" fill="#3D3D3D"/>
<path d="M123.295 263.925C128.704 246.153 144.865 233.662 152.27 229.637C134.885 264.408 144.543 269.72 145.026 281.31C145.412 290.582 133.275 291.934 127.158 291.451C123.617 289.68 117.886 281.696 123.295 263.925Z" fill="#3D3D3D"/>
<path d="M189.896 208.079C189.754 212.515 185.657 215.983 180.744 215.825C175.832 215.668 171.964 211.945 172.106 207.509C172.248 203.074 176.432 196.929 181.344 197.086C186.257 197.244 190.038 203.644 189.896 208.079Z" fill="white"/>
<ellipse rx="1.40519" ry="6.09334" transform="matrix(0.999486 0.0320452 -0.032001 0.999488 180.124 205.957)" fill="#303030"/>
<path d="M232.341 207.038C232.005 210.802 230.382 214.142 226.504 214.28C222.626 214.417 218.414 210.815 218.298 207.536C218.132 202.851 222.965 197.521 226.843 197.383C230.721 197.246 232.676 203.274 232.341 207.038Z" fill="white"/>
<ellipse rx="1.40519" ry="5.1559" transform="matrix(0.999372 -0.0354393 0.0353905 0.999374 226.208 205.848)" fill="#303030"/>
<path d="M208.415 215.018C208.415 216.053 206.528 218.299 204.2 218.299C201.872 218.299 199.984 216.053 199.984 215.018C199.984 213.982 201.872 213.143 204.2 213.143C206.528 213.143 208.415 213.982 208.415 215.018Z" fill="#EE8496"/>
<path d="M143.434 164.225C142.98 147.063 132.411 142.134 127.183 141.815C112.417 143.014 116.825 163.44 118.87 171.124C120.916 178.808 110.907 181.137 98.6788 185.43C86.4501 189.723 91.2398 272.117 104.321 271.026C117.402 269.935 106.63 206.284 120.544 201.884C134.459 197.484 144.002 185.677 143.434 164.225Z" fill="#474747"/>
<path d="M118.54 175.831C116.774 178.713 113.726 179.867 112.367 180.544C117.123 185.724 126.75 183.693 128.064 176.003C129.378 168.312 117.599 163.161 117.651 164.525C117.718 166.265 119.612 174.081 118.54 175.831Z" fill="#414141"/>
</g>
<path fill-rule="evenodd" clip-rule="evenodd" d="M138.5 38C118.342 38 102 54.3416 102 74.5C102 94.6584 118.342 111 138.5 111H248.289C245.988 116.806 242.191 122.108 236.966 126.284C236.5 126.656 236.028 127.015 235.55 127.362C244.707 128.174 254.179 125.597 261.932 119.401C265.002 116.948 267.58 114.105 269.65 111H315.5C335.658 111 352 94.6584 352 74.5C352 54.3416 335.658 38 315.5 38H138.5Z" fill="#222222"/>
<path d="M163.198 69C162.97 69 162.802 68.946 162.694 68.838C162.586 68.73 162.532 68.562 162.532 68.334V57.066C162.532 56.826 162.586 56.658 162.694 56.562C162.802 56.454 162.97 56.4 163.198 56.4H166.978C168.766 56.4 170.158 56.928 171.154 57.984C172.162 59.04 172.666 60.612 172.666 62.7C172.666 64.788 172.162 66.36 171.154 67.416C170.158 68.472 168.766 69 166.978 69H163.198ZM166.924 66.984C167.968 66.984 168.778 66.63 169.354 65.922C169.942 65.202 170.236 64.128 170.236 62.7C170.236 61.272 169.942 60.204 169.354 59.496C168.778 58.776 167.968 58.416 166.924 58.416H164.908V66.984H166.924ZM177.154 69.126C176.242 69.126 175.546 68.892 175.066 68.424C174.586 67.944 174.346 67.296 174.346 66.48C174.346 64.272 176.164 63.162 179.8 63.15V62.466C179.8 61.674 179.266 61.278 178.198 61.278C177.754 61.278 177.364 61.332 177.028 61.44C176.692 61.536 176.398 61.644 176.146 61.764C175.894 61.872 175.75 61.926 175.714 61.926C175.558 61.926 175.378 61.758 175.174 61.422C174.982 61.086 174.886 60.834 174.886 60.666C174.886 60.474 175.036 60.288 175.336 60.108C175.648 59.916 176.068 59.76 176.596 59.64C177.124 59.52 177.694 59.46 178.306 59.46C179.578 59.46 180.52 59.724 181.132 60.252C181.756 60.768 182.068 61.482 182.068 62.394V66.012C182.068 66.828 182.104 67.428 182.176 67.812C182.248 68.184 182.284 68.412 182.284 68.496C182.284 68.664 182.086 68.796 181.69 68.892C181.294 68.976 180.94 69.018 180.628 69.018C180.436 69.018 180.298 68.934 180.214 68.766C180.13 68.586 180.064 68.394 180.016 68.19C179.98 67.986 179.956 67.848 179.944 67.776C179.692 68.1 179.332 68.406 178.864 68.694C178.408 68.982 177.838 69.126 177.154 69.126ZM177.766 67.308C178.186 67.308 178.57 67.2 178.918 66.984C179.266 66.756 179.56 66.468 179.8 66.12V64.752C178.816 64.752 178.042 64.866 177.478 65.094C176.926 65.31 176.65 65.7 176.65 66.264C176.65 66.588 176.746 66.846 176.938 67.038C177.13 67.218 177.406 67.308 177.766 67.308ZM185.612 69.036C184.976 69.036 184.658 68.862 184.658 68.514V62.61C184.658 61.806 184.622 61.218 184.55 60.846C184.478 60.474 184.442 60.246 184.442 60.162C184.442 59.994 184.64 59.868 185.036 59.784C185.432 59.688 185.786 59.64 186.098 59.64C186.29 59.64 186.428 59.724 186.512 59.892C186.596 60.06 186.656 60.24 186.692 60.432C186.74 60.612 186.77 60.738 186.782 60.81C187.334 59.91 188 59.46 188.78 59.46C189.152 59.46 189.416 59.55 189.572 59.73C189.74 59.898 189.824 60.096 189.824 60.324C189.824 60.564 189.776 60.846 189.68 61.17C189.584 61.494 189.464 61.656 189.32 61.656C189.26 61.656 189.14 61.632 188.96 61.584C188.792 61.524 188.618 61.494 188.438 61.494C188.09 61.494 187.778 61.608 187.502 61.836C187.226 62.064 187.034 62.274 186.926 62.466V68.514C186.926 68.862 186.602 69.036 185.954 69.036H185.612ZM192.168 69.036C191.532 69.036 191.214 68.862 191.214 68.514V62.61C191.214 61.806 191.178 61.218 191.106 60.846C191.034 60.474 190.998 60.246 190.998 60.162C190.998 59.994 191.196 59.868 191.592 59.784C191.988 59.688 192.342 59.64 192.654 59.64C192.858 59.64 193.002 59.73 193.086 59.91C193.17 60.078 193.23 60.258 193.266 60.45C193.314 60.63 193.344 60.75 193.356 60.81C193.668 60.414 194.064 60.09 194.544 59.838C195.036 59.586 195.546 59.46 196.074 59.46C197.898 59.46 198.81 60.432 198.81 62.376V68.514C198.81 68.694 198.732 68.826 198.576 68.91C198.432 68.994 198.192 69.036 197.856 69.036H197.514C196.878 69.036 196.56 68.862 196.56 68.514V62.682C196.56 61.794 196.11 61.35 195.21 61.35C194.862 61.35 194.532 61.458 194.22 61.674C193.92 61.89 193.674 62.154 193.482 62.466V68.514C193.482 68.862 193.164 69.036 192.528 69.036H192.168ZM206.674 58.236C205.918 58.236 205.54 58.038 205.54 57.642V56.472C205.54 56.076 205.93 55.878 206.71 55.878C207.466 55.878 207.844 56.076 207.844 56.472V57.642C207.844 57.846 207.748 57.996 207.556 58.092C207.376 58.188 207.082 58.236 206.674 58.236ZM206.512 69.036C205.876 69.036 205.558 68.862 205.558 68.514V60.072C205.558 59.724 205.876 59.55 206.512 59.55H206.872C207.508 59.55 207.826 59.724 207.826 60.072V68.514C207.826 68.862 207.508 69.036 206.872 69.036H206.512ZM213.166 69.126C212.398 69.126 211.78 68.904 211.312 68.46C210.856 68.016 210.628 67.32 210.628 66.372V61.404H210.142C209.974 61.404 209.848 61.344 209.764 61.224C209.692 61.104 209.656 60.906 209.656 60.63V60.36C209.656 60.084 209.692 59.886 209.764 59.766C209.848 59.646 209.974 59.586 210.142 59.586H210.628L210.862 57.822C210.922 57.474 211.198 57.3 211.69 57.3H212.122C212.638 57.3 212.896 57.474 212.896 57.822V59.586H213.994C214.162 59.586 214.282 59.646 214.354 59.766C214.438 59.886 214.48 60.084 214.48 60.36V60.63C214.48 60.906 214.438 61.104 214.354 61.224C214.282 61.344 214.162 61.404 213.994 61.404H212.896V66.336C212.896 66.696 212.956 66.948 213.076 67.092C213.208 67.236 213.4 67.308 213.652 67.308C213.772 67.308 213.886 67.296 213.994 67.272C214.102 67.248 214.186 67.236 214.246 67.236C214.39 67.236 214.51 67.392 214.606 67.704C214.702 68.004 214.75 68.226 214.75 68.37C214.75 68.874 214.222 69.126 213.166 69.126ZM221.842 69.036C221.206 69.036 220.888 68.862 220.888 68.514V55.95C220.888 55.614 221.206 55.446 221.842 55.446H222.202C222.838 55.446 223.156 55.614 223.156 55.95V60.684C223.468 60.324 223.852 60.03 224.308 59.802C224.764 59.574 225.25 59.46 225.766 59.46C226.618 59.46 227.29 59.694 227.782 60.162C228.286 60.618 228.538 61.356 228.538 62.376V68.514C228.538 68.862 228.22 69.036 227.584 69.036H227.224C226.588 69.036 226.27 68.862 226.27 68.514V62.682C226.27 62.262 226.15 61.938 225.91 61.71C225.682 61.47 225.34 61.35 224.884 61.35C224.476 61.35 224.116 61.482 223.804 61.746C223.492 61.998 223.276 62.238 223.156 62.466V68.514C223.156 68.862 222.838 69.036 222.202 69.036H221.842ZM233.622 69.126C231.798 69.126 230.886 68.154 230.886 66.21V60.072C230.886 59.892 230.958 59.76 231.102 59.676C231.258 59.592 231.504 59.55 231.84 59.55H232.182C232.818 59.55 233.136 59.724 233.136 60.072V65.904C233.136 66.792 233.586 67.236 234.486 67.236C234.834 67.236 235.158 67.128 235.458 66.912C235.77 66.696 236.022 66.432 236.214 66.12V60.072C236.214 59.724 236.532 59.55 237.168 59.55H237.528C238.164 59.55 238.482 59.724 238.482 60.072V66.012C238.482 66.828 238.518 67.428 238.59 67.812C238.662 68.184 238.698 68.412 238.698 68.496C238.698 68.664 238.5 68.796 238.104 68.892C237.708 68.976 237.354 69.018 237.042 69.018C236.85 69.018 236.712 68.934 236.628 68.766C236.544 68.586 236.478 68.394 236.43 68.19C236.394 67.986 236.37 67.848 236.358 67.776C236.034 68.172 235.626 68.496 235.134 68.748C234.654 69 234.15 69.126 233.622 69.126ZM251.057 59.46C252.857 59.46 253.757 60.432 253.757 62.376V68.514C253.757 68.862 253.439 69.036 252.803 69.036H252.443C251.807 69.036 251.489 68.862 251.489 68.514V62.682C251.489 61.794 251.057 61.35 250.193 61.35C249.809 61.35 249.473 61.47 249.185 61.71C248.897 61.938 248.669 62.19 248.501 62.466V68.514C248.501 68.862 248.183 69.036 247.547 69.036H247.205C246.869 69.036 246.623 68.994 246.467 68.91C246.323 68.826 246.251 68.694 246.251 68.514V62.682C246.251 61.794 245.819 61.35 244.955 61.35C244.547 61.35 244.193 61.482 243.893 61.746C243.593 61.998 243.383 62.238 243.263 62.466V68.514C243.263 68.862 242.945 69.036 242.309 69.036H241.949C241.313 69.036 240.995 68.862 240.995 68.514V62.61C240.995 61.806 240.959 61.218 240.887 60.846C240.815 60.474 240.779 60.246 240.779 60.162C240.779 59.994 240.977 59.868 241.373 59.784C241.769 59.688 242.123 59.64 242.435 59.64C242.627 59.64 242.765 59.724 242.849 59.892C242.933 60.06 242.993 60.24 243.029 60.432C243.077 60.612 243.107 60.738 243.119 60.81C243.431 60.426 243.821 60.108 244.289 59.856C244.769 59.592 245.279 59.46 245.819 59.46C247.079 59.46 247.889 59.928 248.249 60.864C248.573 60.468 248.981 60.138 249.473 59.874C249.977 59.598 250.505 59.46 251.057 59.46ZM258.593 69.126C257.681 69.126 256.985 68.892 256.505 68.424C256.025 67.944 255.785 67.296 255.785 66.48C255.785 64.272 257.603 63.162 261.239 63.15V62.466C261.239 61.674 260.705 61.278 259.637 61.278C259.193 61.278 258.803 61.332 258.467 61.44C258.131 61.536 257.837 61.644 257.585 61.764C257.333 61.872 257.189 61.926 257.153 61.926C256.997 61.926 256.817 61.758 256.613 61.422C256.421 61.086 256.325 60.834 256.325 60.666C256.325 60.474 256.475 60.288 256.775 60.108C257.087 59.916 257.507 59.76 258.035 59.64C258.563 59.52 259.133 59.46 259.745 59.46C261.017 59.46 261.959 59.724 262.571 60.252C263.195 60.768 263.507 61.482 263.507 62.394V66.012C263.507 66.828 263.543 67.428 263.615 67.812C263.687 68.184 263.723 68.412 263.723 68.496C263.723 68.664 263.525 68.796 263.129 68.892C262.733 68.976 262.379 69.018 262.067 69.018C261.875 69.018 261.737 68.934 261.653 68.766C261.569 68.586 261.503 68.394 261.455 68.19C261.419 67.986 261.395 67.848 261.383 67.776C261.131 68.1 260.771 68.406 260.303 68.694C259.847 68.982 259.277 69.126 258.593 69.126ZM259.205 67.308C259.625 67.308 260.009 67.2 260.357 66.984C260.705 66.756 260.999 66.468 261.239 66.12V64.752C260.255 64.752 259.481 64.866 258.917 65.094C258.365 65.31 258.089 65.7 258.089 66.264C258.089 66.588 258.185 66.846 258.377 67.038C258.569 67.218 258.845 67.308 259.205 67.308ZM267.016 69.036C266.38 69.036 266.062 68.862 266.062 68.514V62.61C266.062 61.806 266.026 61.218 265.954 60.846C265.882 60.474 265.846 60.246 265.846 60.162C265.846 59.994 266.044 59.868 266.44 59.784C266.836 59.688 267.19 59.64 267.502 59.64C267.706 59.64 267.85 59.73 267.934 59.91C268.018 60.078 268.078 60.258 268.114 60.45C268.162 60.63 268.192 60.75 268.204 60.81C268.516 60.414 268.912 60.09 269.392 59.838C269.884 59.586 270.394 59.46 270.922 59.46C272.746 59.46 273.658 60.432 273.658 62.376V68.514C273.658 68.694 273.58 68.826 273.424 68.91C273.28 68.994 273.04 69.036 272.704 69.036H272.362C271.726 69.036 271.408 68.862 271.408 68.514V62.682C271.408 61.794 270.958 61.35 270.058 61.35C269.71 61.35 269.38 61.458 269.068 61.674C268.768 61.89 268.522 62.154 268.33 62.466V68.514C268.33 68.862 268.012 69.036 267.376 69.036H267.016ZM278.349 69.144C277.869 69.144 277.401 69.09 276.945 68.982C276.489 68.874 276.117 68.73 275.829 68.55C275.541 68.358 275.397 68.16 275.397 67.956C275.397 67.752 275.499 67.5 275.703 67.2C275.907 66.888 276.087 66.732 276.243 66.732C276.291 66.732 276.423 66.792 276.639 66.912C276.855 67.02 277.083 67.116 277.323 67.2C277.575 67.284 277.857 67.326 278.169 67.326C279.033 67.326 279.465 66.99 279.465 66.318C279.465 65.994 279.333 65.742 279.069 65.562C278.817 65.382 278.403 65.19 277.827 64.986C277.119 64.734 276.573 64.41 276.189 64.014C275.805 63.618 275.613 63.042 275.613 62.286C275.613 61.422 275.901 60.732 276.477 60.216C277.065 59.7 277.839 59.442 278.799 59.442C279.423 59.442 280.011 59.532 280.563 59.712C281.115 59.88 281.391 60.108 281.391 60.396C281.391 60.6 281.307 60.864 281.139 61.188C280.971 61.5 280.815 61.656 280.671 61.656C280.647 61.656 280.485 61.59 280.185 61.458C279.885 61.326 279.525 61.26 279.105 61.26C278.745 61.26 278.457 61.332 278.241 61.476C278.025 61.608 277.917 61.8 277.917 62.052C277.917 62.304 277.995 62.514 278.151 62.682C278.307 62.85 278.481 62.982 278.673 63.078C278.877 63.174 279.231 63.324 279.735 63.528C280.431 63.804 280.941 64.134 281.265 64.518C281.589 64.902 281.751 65.454 281.751 66.174C281.751 67.062 281.439 67.782 280.815 68.334C280.203 68.874 279.381 69.144 278.349 69.144ZM283.787 69.036C283.151 69.036 282.833 68.862 282.833 68.514V67.02C282.833 66.684 283.151 66.516 283.787 66.516H284.273C284.909 66.516 285.227 66.684 285.227 67.02V68.514C285.227 68.862 284.909 69.036 284.273 69.036H283.787ZM287.355 69.036C286.719 69.036 286.401 68.862 286.401 68.514V67.02C286.401 66.684 286.719 66.516 287.355 66.516H287.841C288.477 66.516 288.795 66.684 288.795 67.02V68.514C288.795 68.862 288.477 69.036 287.841 69.036H287.355ZM290.924 69.036C290.288 69.036 289.97 68.862 289.97 68.514V67.02C289.97 66.684 290.288 66.516 290.924 66.516H291.41C292.046 66.516 292.364 66.684 292.364 67.02V68.514C292.364 68.862 292.046 69.036 291.41 69.036H290.924ZM165.777 92.126C164.973 92.126 164.253 92.042 163.617 91.874C162.993 91.706 162.507 91.496 162.159 91.244C161.859 91.016 161.709 90.812 161.709 90.632C161.709 90.404 161.829 90.122 162.069 89.786C162.309 89.438 162.507 89.264 162.663 89.264C162.735 89.264 162.885 89.33 163.113 89.462C163.485 89.654 163.851 89.81 164.211 89.93C164.571 90.05 164.991 90.11 165.471 90.11C166.011 90.11 166.461 89.984 166.821 89.732C167.193 89.468 167.379 89.078 167.379 88.562C167.379 88.238 167.283 87.968 167.091 87.752C166.911 87.524 166.683 87.338 166.407 87.194C166.131 87.038 165.747 86.858 165.255 86.654L164.625 86.384C164.073 86.144 163.611 85.892 163.239 85.628C162.867 85.352 162.561 84.986 162.321 84.53C162.081 84.074 161.961 83.498 161.961 82.802C161.961 82.046 162.147 81.404 162.519 80.876C162.903 80.336 163.413 79.934 164.049 79.67C164.685 79.406 165.381 79.274 166.137 79.274C166.677 79.274 167.199 79.334 167.703 79.454C168.207 79.574 168.597 79.736 168.873 79.94C169.125 80.12 169.251 80.3 169.251 80.48C169.251 80.696 169.149 80.978 168.945 81.326C168.741 81.662 168.561 81.83 168.405 81.83C168.345 81.83 168.249 81.8 168.117 81.74C167.985 81.68 167.883 81.632 167.811 81.596C167.331 81.392 166.821 81.29 166.281 81.29C165.633 81.29 165.153 81.422 164.841 81.686C164.541 81.938 164.391 82.262 164.391 82.658C164.391 83.006 164.481 83.294 164.661 83.522C164.841 83.738 165.063 83.912 165.327 84.044C165.591 84.176 165.981 84.344 166.497 84.548C167.181 84.824 167.745 85.094 168.189 85.358C168.633 85.622 169.011 86 169.323 86.492C169.647 86.972 169.809 87.59 169.809 88.346C169.809 89.606 169.425 90.554 168.657 91.19C167.889 91.814 166.929 92.126 165.777 92.126ZM175.533 92.126C174.021 92.126 172.893 91.736 172.149 90.956C171.405 90.176 171.033 88.964 171.033 87.32C171.033 85.664 171.423 84.44 172.203 83.648C172.983 82.856 174.099 82.46 175.551 82.46C176.271 82.46 176.931 82.562 177.531 82.766C178.131 82.97 178.431 83.234 178.431 83.558C178.431 83.726 178.323 83.978 178.107 84.314C177.903 84.638 177.735 84.8 177.603 84.8C177.591 84.8 177.501 84.764 177.333 84.692C176.781 84.416 176.211 84.278 175.623 84.278C174.867 84.278 174.303 84.518 173.931 84.998C173.571 85.478 173.391 86.234 173.391 87.266C173.391 88.31 173.565 89.078 173.913 89.57C174.261 90.062 174.831 90.308 175.623 90.308C176.007 90.308 176.331 90.272 176.595 90.2C176.871 90.116 177.165 90.008 177.477 89.876C177.621 89.816 177.711 89.786 177.747 89.786C177.915 89.786 178.095 89.942 178.287 90.254C178.479 90.566 178.575 90.812 178.575 90.992C178.575 91.232 178.395 91.442 178.035 91.622C177.687 91.79 177.273 91.916 176.793 92C176.313 92.084 175.893 92.126 175.533 92.126ZM181.263 92.036C180.627 92.036 180.309 91.862 180.309 91.514V78.95C180.309 78.614 180.627 78.446 181.263 78.446H181.623C182.259 78.446 182.577 78.614 182.577 78.95V83.684C182.889 83.324 183.273 83.03 183.729 82.802C184.185 82.574 184.671 82.46 185.187 82.46C186.039 82.46 186.711 82.694 187.203 83.162C187.707 83.618 187.959 84.356 187.959 85.376V91.514C187.959 91.862 187.641 92.036 187.005 92.036H186.645C186.009 92.036 185.691 91.862 185.691 91.514V85.682C185.691 85.262 185.571 84.938 185.331 84.71C185.103 84.47 184.761 84.35 184.305 84.35C183.897 84.35 183.537 84.482 183.225 84.746C182.913 84.998 182.697 85.238 182.577 85.466V91.514C182.577 91.862 182.259 92.036 181.623 92.036H181.263ZM191.351 92.036C190.715 92.036 190.397 91.862 190.397 91.514V85.61C190.397 84.806 190.361 84.218 190.289 83.846C190.217 83.474 190.181 83.246 190.181 83.162C190.181 82.994 190.379 82.868 190.775 82.784C191.171 82.688 191.525 82.64 191.837 82.64C192.041 82.64 192.185 82.73 192.269 82.91C192.353 83.078 192.413 83.258 192.449 83.45C192.497 83.63 192.527 83.75 192.539 83.81C192.851 83.414 193.247 83.09 193.727 82.838C194.219 82.586 194.729 82.46 195.257 82.46C197.081 82.46 197.993 83.432 197.993 85.376V91.514C197.993 91.694 197.915 91.826 197.759 91.91C197.615 91.994 197.375 92.036 197.039 92.036H196.697C196.061 92.036 195.743 91.862 195.743 91.514V85.682C195.743 84.794 195.293 84.35 194.393 84.35C194.045 84.35 193.715 84.458 193.403 84.674C193.103 84.89 192.857 85.154 192.665 85.466V91.514C192.665 91.862 192.347 92.036 191.711 92.036H191.351ZM204.592 92.126C203.044 92.126 201.892 91.718 201.136 90.902C200.38 90.074 200.002 88.892 200.002 87.356C200.002 85.7 200.374 84.47 201.118 83.666C201.874 82.862 202.936 82.46 204.304 82.46C205.6 82.46 206.56 82.88 207.184 83.72C207.82 84.56 208.138 85.694 208.138 87.122C208.138 87.254 208.03 87.446 207.814 87.698C207.598 87.938 207.436 88.058 207.328 88.058H202.36C202.42 88.85 202.636 89.426 203.008 89.786C203.392 90.134 203.944 90.308 204.664 90.308C205.312 90.308 205.972 90.14 206.644 89.804C206.836 89.72 206.956 89.678 207.004 89.678C207.16 89.678 207.334 89.84 207.526 90.164C207.73 90.476 207.832 90.716 207.832 90.884C207.832 91.112 207.658 91.322 207.31 91.514C206.962 91.706 206.53 91.856 206.014 91.964C205.51 92.072 205.036 92.126 204.592 92.126ZM205.888 86.456C205.888 85.772 205.75 85.238 205.474 84.854C205.21 84.47 204.814 84.278 204.286 84.278C203.17 84.278 202.528 85.004 202.36 86.456H205.888ZM212.639 92.126C211.871 92.126 211.259 91.91 210.803 91.478C210.347 91.034 210.119 90.332 210.119 89.372V78.95C210.119 78.614 210.437 78.446 211.073 78.446H211.415C212.051 78.446 212.369 78.614 212.369 78.95V89.336C212.369 89.684 212.435 89.936 212.567 90.092C212.699 90.236 212.891 90.308 213.143 90.308C213.263 90.308 213.377 90.296 213.485 90.272C213.593 90.248 213.671 90.236 213.719 90.236C213.863 90.236 213.983 90.392 214.079 90.704C214.175 91.004 214.223 91.226 214.223 91.37C214.223 91.874 213.695 92.126 212.639 92.126ZM217.983 92.126C217.215 92.126 216.603 91.91 216.147 91.478C215.691 91.034 215.463 90.332 215.463 89.372V78.95C215.463 78.614 215.781 78.446 216.417 78.446H216.759C217.395 78.446 217.713 78.614 217.713 78.95V89.336C217.713 89.684 217.779 89.936 217.911 90.092C218.043 90.236 218.235 90.308 218.487 90.308C218.607 90.308 218.721 90.296 218.829 90.272C218.937 90.248 219.015 90.236 219.063 90.236C219.207 90.236 219.327 90.392 219.423 90.704C219.519 91.004 219.567 91.226 219.567 91.37C219.567 91.874 219.039 92.126 217.983 92.126ZM222.139 88.13C221.839 88.13 221.629 88.088 221.509 88.004C221.401 87.92 221.347 87.788 221.347 87.608V79.886C221.347 79.538 221.665 79.364 222.301 79.364H222.931C223.567 79.364 223.885 79.52 223.885 79.832L223.129 87.608C223.105 87.788 223.039 87.92 222.931 88.004C222.823 88.088 222.625 88.13 222.337 88.13H222.139ZM221.995 92.036C221.359 92.036 221.041 91.862 221.041 91.514V90.02C221.041 89.684 221.359 89.516 221.995 89.516H222.481C223.117 89.516 223.435 89.684 223.435 90.02V91.514C223.435 91.862 223.117 92.036 222.481 92.036H221.995ZM233.716 92.126C232.912 92.126 232.192 92.042 231.556 91.874C230.932 91.706 230.446 91.496 230.098 91.244C229.798 91.016 229.648 90.812 229.648 90.632C229.648 90.404 229.768 90.122 230.008 89.786C230.248 89.438 230.446 89.264 230.602 89.264C230.674 89.264 230.824 89.33 231.052 89.462C231.424 89.654 231.79 89.81 232.15 89.93C232.51 90.05 232.93 90.11 233.41 90.11C233.95 90.11 234.4 89.984 234.76 89.732C235.132 89.468 235.318 89.078 235.318 88.562C235.318 88.238 235.222 87.968 235.03 87.752C234.85 87.524 234.622 87.338 234.346 87.194C234.07 87.038 233.686 86.858 233.194 86.654L232.564 86.384C232.012 86.144 231.55 85.892 231.178 85.628C230.806 85.352 230.5 84.986 230.26 84.53C230.02 84.074 229.9 83.498 229.9 82.802C229.9 82.046 230.086 81.404 230.458 80.876C230.842 80.336 231.352 79.934 231.988 79.67C232.624 79.406 233.32 79.274 234.076 79.274C234.616 79.274 235.138 79.334 235.642 79.454C236.146 79.574 236.536 79.736 236.812 79.94C237.064 80.12 237.19 80.3 237.19 80.48C237.19 80.696 237.088 80.978 236.884 81.326C236.68 81.662 236.5 81.83 236.344 81.83C236.284 81.83 236.188 81.8 236.056 81.74C235.924 81.68 235.822 81.632 235.75 81.596C235.27 81.392 234.76 81.29 234.22 81.29C233.572 81.29 233.092 81.422 232.78 81.686C232.48 81.938 232.33 82.262 232.33 82.658C232.33 83.006 232.42 83.294 232.6 83.522C232.78 83.738 233.002 83.912 233.266 84.044C233.53 84.176 233.92 84.344 234.436 84.548C235.12 84.824 235.684 85.094 236.128 85.358C236.572 85.622 236.95 86 237.262 86.492C237.586 86.972 237.748 87.59 237.748 88.346C237.748 89.606 237.364 90.554 236.596 91.19C235.828 91.814 234.868 92.126 233.716 92.126ZM243.472 92.126C241.96 92.126 240.832 91.736 240.088 90.956C239.344 90.176 238.972 88.964 238.972 87.32C238.972 85.664 239.362 84.44 240.142 83.648C240.922 82.856 242.038 82.46 243.49 82.46C244.21 82.46 244.87 82.562 245.47 82.766C246.07 82.97 246.37 83.234 246.37 83.558C246.37 83.726 246.262 83.978 246.046 84.314C245.842 84.638 245.674 84.8 245.542 84.8C245.53 84.8 245.44 84.764 245.272 84.692C244.72 84.416 244.15 84.278 243.562 84.278C242.806 84.278 242.242 84.518 241.87 84.998C241.51 85.478 241.33 86.234 241.33 87.266C241.33 88.31 241.504 89.078 241.852 89.57C242.2 90.062 242.77 90.308 243.562 90.308C243.946 90.308 244.27 90.272 244.534 90.2C244.81 90.116 245.104 90.008 245.416 89.876C245.56 89.816 245.65 89.786 245.686 89.786C245.854 89.786 246.034 89.942 246.226 90.254C246.418 90.566 246.514 90.812 246.514 90.992C246.514 91.232 246.334 91.442 245.974 91.622C245.626 91.79 245.212 91.916 244.732 92C244.252 92.084 243.832 92.126 243.472 92.126ZM249.202 92.036C248.566 92.036 248.248 91.862 248.248 91.514V78.95C248.248 78.614 248.566 78.446 249.202 78.446H249.562C250.198 78.446 250.516 78.614 250.516 78.95V83.684C250.828 83.324 251.212 83.03 251.668 82.802C252.124 82.574 252.61 82.46 253.126 82.46C253.978 82.46 254.65 82.694 255.142 83.162C255.646 83.618 255.898 84.356 255.898 85.376V91.514C255.898 91.862 255.58 92.036 254.944 92.036H254.584C253.948 92.036 253.63 91.862 253.63 91.514V85.682C253.63 85.262 253.51 84.938 253.27 84.71C253.042 84.47 252.7 84.35 252.244 84.35C251.836 84.35 251.476 84.482 251.164 84.746C250.852 84.998 250.636 85.238 250.516 85.466V91.514C250.516 91.862 250.198 92.036 249.562 92.036H249.202ZM259.29 92.036C258.654 92.036 258.336 91.862 258.336 91.514V85.61C258.336 84.806 258.3 84.218 258.228 83.846C258.156 83.474 258.12 83.246 258.12 83.162C258.12 82.994 258.318 82.868 258.714 82.784C259.11 82.688 259.464 82.64 259.776 82.64C259.98 82.64 260.124 82.73 260.208 82.91C260.292 83.078 260.352 83.258 260.388 83.45C260.436 83.63 260.466 83.75 260.478 83.81C260.79 83.414 261.186 83.09 261.666 82.838C262.158 82.586 262.668 82.46 263.196 82.46C265.02 82.46 265.932 83.432 265.932 85.376V91.514C265.932 91.694 265.854 91.826 265.698 91.91C265.554 91.994 265.314 92.036 264.978 92.036H264.636C264 92.036 263.682 91.862 263.682 91.514V85.682C263.682 84.794 263.232 84.35 262.332 84.35C261.984 84.35 261.654 84.458 261.342 84.674C261.042 84.89 260.796 85.154 260.604 85.466V91.514C260.604 91.862 260.286 92.036 259.65 92.036H259.29ZM272.532 92.126C270.984 92.126 269.832 91.718 269.076 90.902C268.32 90.074 267.942 88.892 267.942 87.356C267.942 85.7 268.314 84.47 269.058 83.666C269.814 82.862 270.876 82.46 272.244 82.46C273.54 82.46 274.5 82.88 275.124 83.72C275.76 84.56 276.078 85.694 276.078 87.122C276.078 87.254 275.97 87.446 275.754 87.698C275.538 87.938 275.376 88.058 275.268 88.058H270.3C270.36 88.85 270.576 89.426 270.948 89.786C271.332 90.134 271.884 90.308 272.604 90.308C273.252 90.308 273.912 90.14 274.584 89.804C274.776 89.72 274.896 89.678 274.944 89.678C275.1 89.678 275.274 89.84 275.466 90.164C275.67 90.476 275.772 90.716 275.772 90.884C275.772 91.112 275.598 91.322 275.25 91.514C274.902 91.706 274.47 91.856 273.954 91.964C273.45 92.072 272.976 92.126 272.532 92.126ZM273.828 86.456C273.828 85.772 273.69 85.238 273.414 84.854C273.15 84.47 272.754 84.278 272.226 84.278C271.11 84.278 270.468 85.004 270.3 86.456H273.828ZM280.579 92.126C279.811 92.126 279.199 91.91 278.743 91.478C278.287 91.034 278.059 90.332 278.059 89.372V78.95C278.059 78.614 278.377 78.446 279.013 78.446H279.355C279.991 78.446 280.309 78.614 280.309 78.95V89.336C280.309 89.684 280.375 89.936 280.507 90.092C280.639 90.236 280.831 90.308 281.083 90.308C281.203 90.308 281.317 90.296 281.425 90.272C281.533 90.248 281.611 90.236 281.659 90.236C281.803 90.236 281.923 90.392 282.019 90.704C282.115 91.004 282.163 91.226 282.163 91.37C282.163 91.874 281.635 92.126 280.579 92.126ZM285.923 92.126C285.155 92.126 284.543 91.91 284.087 91.478C283.631 91.034 283.403 90.332 283.403 89.372V78.95C283.403 78.614 283.721 78.446 284.357 78.446H284.699C285.335 78.446 285.653 78.614 285.653 78.95V89.336C285.653 89.684 285.719 89.936 285.851 90.092C285.983 90.236 286.175 90.308 286.427 90.308C286.547 90.308 286.661 90.296 286.769 90.272C286.877 90.248 286.955 90.236 287.003 90.236C287.147 90.236 287.267 90.392 287.363 90.704C287.459 91.004 287.507 91.226 287.507 91.37C287.507 91.874 286.979 92.126 285.923 92.126ZM290.078 88.13C289.778 88.13 289.568 88.088 289.448 88.004C289.34 87.92 289.286 87.788 289.286 87.608V79.886C289.286 79.538 289.604 79.364 290.24 79.364H290.87C291.506 79.364 291.824 79.52 291.824 79.832L291.068 87.608C291.044 87.788 290.978 87.92 290.87 88.004C290.762 88.088 290.564 88.13 290.276 88.13H290.078ZM289.934 92.036C289.298 92.036 288.98 91.862 288.98 91.514V90.02C288.98 89.684 289.298 89.516 289.934 89.516H290.42C291.056 89.516 291.374 89.684 291.374 90.02V91.514C291.374 91.862 291.056 92.036 290.42 92.036H289.934Z" fill="white"/>
<defs>
<filter id="filter0_d" x="0" y="0" width="374" height="424" filterUnits="userSpaceOnUse" color-interpolation-filters="sRGB">
<feFlood flood-opacity="0" result="BackgroundImageFix"/>
<feColorMatrix in="SourceAlpha" type="matrix" values="0 0 0 0 0 0 0 0 0 0 0 0 0 0 0 0 0 0 127 0"/>
<feOffset dy="4"/>
<feGaussianBlur stdDeviation="6"/>
<feColorMatrix type="matrix" values="0 0 0 0 0.133333 0 0 0 0 0.133333 0 0 0 0 0.133333 0 0 0 0.2 0"/>
<feBlend mode="normal" in2="BackgroundImageFix" result="effect1_dropShadow"/>
<feBlend mode="normal" in="SourceGraphic" in2="effect1_dropShadow" result="shape"/>
</filter>
</defs>
</svg>
