<svg width="374" height="424" viewBox="0 0 374 424" fill="none" xmlns="http://www.w3.org/2000/svg">
<g filter="url(#filter0_d)">
<rect x="12" y="8" width="350" height="400" rx="20" fill="white"/>
</g>
<rect x="87" y="88" width="199" height="196" rx="98" fill="#FFC03A"/>
<mask id="mask0" mask-type="alpha" maskUnits="userSpaceOnUse" x="87" y="88" width="199" height="196">
<rect x="87" y="88" width="199" height="196" rx="98" fill="#FFC03A"/>
</mask>
<g mask="url(#mask0)">
<path d="M145.034 234.894C123.464 250.55 119.336 275.882 120.603 287.531C124.231 329.569 233.373 306.371 239.84 283.508C246.306 260.644 241.608 256.44 240.482 228.745C239.356 201.05 225.16 165.82 220.038 166.378C215.94 166.824 211.995 177.626 210.534 182.972C209.086 182.658 205.529 182.008 202.881 181.919C200.233 181.83 195.569 182.558 193.568 182.933C193.426 177.29 191.238 165.836 183.626 165.156C174.11 164.306 160.278 219.089 159.235 222.503C158.193 225.917 157.261 226.019 145.034 234.894Z" fill="#474747"/>
<path d="M212.152 233.984C212.152 235.584 208.044 241.711 202.976 241.711C197.909 241.711 193.801 235.584 193.801 233.984C193.801 232.384 197.909 231.086 202.976 231.086C208.044 231.086 212.152 232.384 212.152 233.984Z" fill="#3D3D3D"/>
<path d="M123.295 263.925C128.704 246.153 144.865 233.662 152.27 229.638C134.885 264.408 144.543 269.72 145.026 281.31C145.412 290.582 133.275 291.934 127.158 291.451C123.617 289.681 117.886 281.696 123.295 263.925Z" fill="#3D3D3D"/>
<path d="M189.896 208.079C189.754 212.515 185.657 215.983 180.744 215.825C175.832 215.668 171.964 211.944 172.106 207.509C172.248 203.073 176.432 196.928 181.344 197.086C186.257 197.243 190.038 203.644 189.896 208.079Z" fill="white"/>
<ellipse rx="1.40519" ry="6.09334" transform="matrix(0.999486 0.0320452 -0.032001 0.999488 180.124 205.957)" fill="#303030"/>
<path d="M232.341 207.038C232.005 210.802 230.382 214.142 226.504 214.28C222.626 214.417 218.414 210.815 218.298 207.536C218.132 202.851 222.965 197.521 226.843 197.383C230.721 197.246 232.676 203.274 232.341 207.038Z" fill="white"/>
<ellipse rx="1.40519" ry="5.1559" transform="matrix(0.999372 -0.0354393 0.0353905 0.999374 226.208 205.848)" fill="#303030"/>
<path d="M208.415 215.018C208.415 216.053 206.528 218.299 204.2 218.299C201.872 218.299 199.984 216.053 199.984 215.018C199.984 213.982 201.872 213.143 204.2 213.143C206.528 213.143 208.415 213.982 208.415 215.018Z" fill="#EE8496"/>
<path d="M143.434 164.225C142.98 147.063 132.411 142.134 127.183 141.815C112.417 143.014 116.825 163.44 118.87 171.124C120.916 178.808 110.907 181.137 98.6788 185.43C86.4501 189.723 91.2398 272.117 104.321 271.026C117.402 269.935 106.63 206.284 120.544 201.884C134.459 197.484 144.002 185.677 143.434 164.225Z" fill="#474747"/>
<path d="M118.54 175.831C116.774 178.713 113.726 179.867 112.367 180.544C117.123 185.724 126.75 183.693 128.064 176.003C129.378 168.312 117.599 163.161 117.651 164.525C117.718 166.265 119.612 174.081 118.54 175.831Z" fill="#414141"/>
</g>
<path fill-rule="evenodd" clip-rule="evenodd" d="M138.5 38C118.342 38 102 54.3416 102 74.5C102 94.6584 118.342 111 138.5 111H248.289C245.988 116.806 242.191 122.108 236.966 126.284C236.5 126.656 236.028 127.015 235.55 127.362C244.707 128.174 254.179 125.597 261.932 119.401C265.002 116.948 267.58 114.105 269.65 111H315.5C335.658 111 352 94.6584 352 74.5C352 54.3416 335.658 38 315.5 38H138.5Z" fill="#222222"/>
<path d="M129.49 69.036C129.01 69.036 128.77 68.904 128.77 68.64V56.76C128.77 56.496 129.01 56.364 129.49 56.364H129.634C130.114 56.364 130.354 56.496 130.354 56.76V61.854H136.87V56.76C136.87 56.496 137.11 56.364 137.59 56.364H137.734C138.214 56.364 138.454 56.496 138.454 56.76V68.64C138.454 68.904 138.214 69.036 137.734 69.036H137.59C137.11 69.036 136.87 68.904 136.87 68.64V63.222H130.354V68.64C130.354 68.904 130.114 69.036 129.634 69.036H129.49ZM145.626 69.108C144.126 69.108 143.016 68.718 142.296 67.938C141.576 67.158 141.216 65.964 141.216 64.356C141.216 62.76 141.57 61.548 142.278 60.72C142.986 59.892 144.03 59.478 145.41 59.478C146.634 59.478 147.558 59.88 148.182 60.684C148.806 61.476 149.118 62.64 149.118 64.176C149.118 64.284 149.046 64.434 148.902 64.626C148.758 64.818 148.632 64.914 148.524 64.914H142.836C142.908 65.91 143.166 66.642 143.61 67.11C144.054 67.578 144.72 67.812 145.608 67.812C146.112 67.812 146.544 67.752 146.904 67.632C147.276 67.5 147.582 67.374 147.822 67.254C148.062 67.122 148.2 67.056 148.236 67.056C148.356 67.056 148.488 67.176 148.632 67.416C148.788 67.656 148.866 67.836 148.866 67.956C148.866 68.1 148.716 68.268 148.416 68.46C148.116 68.64 147.714 68.796 147.21 68.928C146.718 69.048 146.19 69.108 145.626 69.108ZM147.516 63.618C147.516 61.722 146.796 60.774 145.356 60.774C143.808 60.774 142.968 61.722 142.836 63.618H147.516ZM157.525 59.55C158.005 59.55 158.245 59.652 158.245 59.856C158.245 59.916 158.227 60 158.191 60.108L153.565 72.366C153.469 72.618 153.187 72.744 152.719 72.744H152.449C152.053 72.744 151.855 72.648 151.855 72.456C151.855 72.408 151.885 72.306 151.945 72.15L153.457 68.478L150.307 60.09C150.271 59.982 150.253 59.904 150.253 59.856C150.253 59.652 150.511 59.55 151.027 59.55H151.171C151.591 59.55 151.831 59.646 151.891 59.838L153.727 64.716C153.919 65.244 154.111 65.85 154.303 66.534H154.339C154.363 66.45 154.387 66.372 154.411 66.3C154.435 66.216 154.459 66.138 154.483 66.066L154.933 64.716L156.733 59.838C156.793 59.646 157.039 59.55 157.471 59.55H157.525ZM165.295 69.036C164.815 69.036 164.575 68.904 164.575 68.64V55.86C164.575 55.596 164.815 55.464 165.295 55.464H165.367C165.847 55.464 166.087 55.596 166.087 55.86V60.72C166.447 60.36 166.861 60.066 167.329 59.838C167.809 59.598 168.313 59.478 168.841 59.478C169.597 59.478 170.263 59.694 170.839 60.126C171.415 60.546 171.703 61.302 171.703 62.394V68.64C171.703 68.904 171.463 69.036 170.983 69.036H170.911C170.431 69.036 170.191 68.904 170.191 68.64V62.538C170.191 61.998 170.035 61.572 169.723 61.26C169.411 60.948 168.955 60.792 168.355 60.792C167.959 60.792 167.593 60.888 167.257 61.08C166.921 61.26 166.639 61.464 166.411 61.692C166.195 61.908 166.087 62.028 166.087 62.052V68.64C166.087 68.904 165.847 69.036 165.367 69.036H165.295ZM177.381 69.108C176.469 69.108 175.749 68.85 175.221 68.334C174.705 67.818 174.447 67.104 174.447 66.192V59.946C174.447 59.682 174.687 59.55 175.167 59.55H175.239C175.719 59.55 175.959 59.682 175.959 59.946V66.048C175.959 66.6 176.115 67.032 176.427 67.344C176.751 67.644 177.207 67.794 177.795 67.794C178.203 67.794 178.605 67.68 179.001 67.452C179.409 67.224 179.763 66.918 180.063 66.534V59.946C180.063 59.682 180.303 59.55 180.783 59.55H180.855C181.335 59.55 181.575 59.682 181.575 59.946V66.336C181.575 67.128 181.611 67.698 181.683 68.046C181.755 68.382 181.791 68.568 181.791 68.604C181.791 68.748 181.677 68.856 181.449 68.928C181.221 68.988 181.011 69.018 180.819 69.018C180.651 69.018 180.525 68.928 180.441 68.748C180.369 68.556 180.309 68.358 180.261 68.154C180.225 67.95 180.201 67.818 180.189 67.758C179.805 68.178 179.367 68.508 178.875 68.748C178.383 68.988 177.885 69.108 177.381 69.108ZM194.204 59.478C194.96 59.478 195.62 59.694 196.184 60.126C196.748 60.546 197.03 61.302 197.03 62.394V68.64C197.03 68.904 196.79 69.036 196.31 69.036H196.238C195.758 69.036 195.518 68.904 195.518 68.64V62.538C195.518 61.998 195.368 61.572 195.068 61.26C194.78 60.948 194.354 60.792 193.79 60.792C193.022 60.792 192.284 61.212 191.576 62.052C191.588 62.136 191.594 62.256 191.594 62.412V68.64C191.594 68.904 191.354 69.036 190.874 69.036H190.802C190.322 69.036 190.082 68.904 190.082 68.64V62.538C190.082 61.998 189.932 61.572 189.632 61.26C189.344 60.948 188.918 60.792 188.354 60.792C187.97 60.792 187.61 60.888 187.274 61.08C186.95 61.26 186.68 61.458 186.464 61.674C186.26 61.89 186.158 62.01 186.158 62.034V68.64C186.158 68.904 185.918 69.036 185.438 69.036H185.366C184.886 69.036 184.646 68.904 184.646 68.64V62.322C184.646 61.53 184.61 60.966 184.538 60.63C184.466 60.282 184.43 60.09 184.43 60.054C184.43 59.91 184.544 59.808 184.772 59.748C185 59.676 185.21 59.64 185.402 59.64C185.57 59.64 185.69 59.73 185.762 59.91C185.846 60.078 185.906 60.258 185.942 60.45C185.99 60.642 186.02 60.768 186.032 60.828C186.368 60.444 186.77 60.126 187.238 59.874C187.718 59.61 188.228 59.478 188.768 59.478C189.308 59.478 189.812 59.592 190.28 59.82C190.76 60.036 191.114 60.42 191.342 60.972C191.714 60.54 192.146 60.186 192.638 59.91C193.142 59.622 193.664 59.478 194.204 59.478ZM202.334 69.108C201.41 69.108 200.666 68.88 200.102 68.424C199.538 67.968 199.256 67.296 199.256 66.408C199.256 65.46 199.538 64.752 200.102 64.284C200.678 63.804 201.38 63.498 202.208 63.366C203.036 63.222 204.044 63.144 205.232 63.132V62.286C205.232 61.842 205.076 61.482 204.764 61.206C204.452 60.918 203.948 60.774 203.252 60.774C202.724 60.774 202.262 60.84 201.866 60.972C201.47 61.092 201.14 61.218 200.876 61.35C200.612 61.47 200.468 61.53 200.444 61.53C200.324 61.53 200.186 61.41 200.03 61.17C199.886 60.93 199.814 60.75 199.814 60.63C199.814 60.474 199.97 60.306 200.282 60.126C200.606 59.946 201.032 59.796 201.56 59.676C202.088 59.544 202.634 59.478 203.198 59.478C204.314 59.478 205.184 59.73 205.808 60.234C206.432 60.726 206.744 61.416 206.744 62.304V66.336C206.744 67.128 206.78 67.698 206.852 68.046C206.924 68.382 206.96 68.568 206.96 68.604C206.96 68.748 206.846 68.856 206.618 68.928C206.39 68.988 206.18 69.018 205.988 69.018C205.82 69.018 205.694 68.928 205.61 68.748C205.538 68.556 205.478 68.358 205.43 68.154C205.394 67.95 205.37 67.818 205.358 67.758C204.542 68.658 203.534 69.108 202.334 69.108ZM202.406 67.794C202.994 67.794 203.498 67.686 203.918 67.47C204.35 67.254 204.788 66.948 205.232 66.552V64.428C204.332 64.44 203.594 64.476 203.018 64.536C202.454 64.596 201.956 64.764 201.524 65.04C201.092 65.316 200.876 65.742 200.876 66.318C200.876 66.798 201.002 67.164 201.254 67.416C201.518 67.668 201.902 67.794 202.406 67.794ZM210.451 69.036C209.971 69.036 209.731 68.904 209.731 68.64V62.322C209.731 61.53 209.695 60.966 209.623 60.63C209.551 60.282 209.515 60.09 209.515 60.054C209.515 59.91 209.629 59.808 209.857 59.748C210.085 59.676 210.295 59.64 210.487 59.64C210.655 59.64 210.775 59.73 210.847 59.91C210.931 60.078 210.991 60.258 211.027 60.45C211.075 60.642 211.105 60.768 211.117 60.828C211.501 60.408 211.939 60.078 212.431 59.838C212.923 59.598 213.421 59.478 213.925 59.478C214.837 59.478 215.551 59.736 216.067 60.252C216.595 60.768 216.859 61.482 216.859 62.394V68.64C216.859 68.904 216.619 69.036 216.139 69.036H216.067C215.587 69.036 215.347 68.904 215.347 68.64V62.538C215.347 61.986 215.185 61.56 214.861 61.26C214.549 60.948 214.099 60.792 213.511 60.792C213.103 60.792 212.695 60.906 212.287 61.134C211.891 61.362 211.543 61.668 211.243 62.052V68.64C211.243 68.904 211.003 69.036 210.523 69.036H210.451ZM218.94 71.088C218.808 71.088 218.688 71.064 218.58 71.016C218.472 70.98 218.418 70.914 218.418 70.818C218.418 70.746 218.472 70.602 218.58 70.386C218.988 69.57 219.192 68.652 219.192 67.632C219.192 67.452 219.252 67.314 219.372 67.218C219.492 67.11 219.672 67.056 219.912 67.056H220.074C220.302 67.056 220.476 67.104 220.596 67.2C220.728 67.284 220.794 67.404 220.794 67.56C220.794 68.232 220.686 68.832 220.47 69.36C220.254 69.9 219.996 70.32 219.696 70.62C219.408 70.932 219.156 71.088 218.94 71.088ZM230.055 69.108C229.131 69.108 228.387 68.88 227.823 68.424C227.259 67.968 226.977 67.296 226.977 66.408C226.977 65.46 227.259 64.752 227.823 64.284C228.399 63.804 229.101 63.498 229.929 63.366C230.757 63.222 231.765 63.144 232.953 63.132V62.286C232.953 61.842 232.797 61.482 232.485 61.206C232.173 60.918 231.669 60.774 230.973 60.774C230.445 60.774 229.983 60.84 229.587 60.972C229.191 61.092 228.861 61.218 228.597 61.35C228.333 61.47 228.189 61.53 228.165 61.53C228.045 61.53 227.907 61.41 227.751 61.17C227.607 60.93 227.535 60.75 227.535 60.63C227.535 60.474 227.691 60.306 228.003 60.126C228.327 59.946 228.753 59.796 229.281 59.676C229.809 59.544 230.355 59.478 230.919 59.478C232.035 59.478 232.905 59.73 233.529 60.234C234.153 60.726 234.465 61.416 234.465 62.304V66.336C234.465 67.128 234.501 67.698 234.573 68.046C234.645 68.382 234.681 68.568 234.681 68.604C234.681 68.748 234.567 68.856 234.339 68.928C234.111 68.988 233.901 69.018 233.709 69.018C233.541 69.018 233.415 68.928 233.331 68.748C233.259 68.556 233.199 68.358 233.151 68.154C233.115 67.95 233.091 67.818 233.079 67.758C232.263 68.658 231.255 69.108 230.055 69.108ZM230.127 67.794C230.715 67.794 231.219 67.686 231.639 67.47C232.071 67.254 232.509 66.948 232.953 66.552V64.428C232.053 64.44 231.315 64.476 230.739 64.536C230.175 64.596 229.677 64.764 229.245 65.04C228.813 65.316 228.597 65.742 228.597 66.318C228.597 66.798 228.723 67.164 228.975 67.416C229.239 67.668 229.623 67.794 230.127 67.794ZM238.243 69.036C237.763 69.036 237.523 68.904 237.523 68.64V62.322C237.523 61.53 237.487 60.966 237.415 60.63C237.343 60.282 237.307 60.09 237.307 60.054C237.307 59.91 237.421 59.808 237.649 59.748C237.877 59.676 238.087 59.64 238.279 59.64C238.447 59.64 238.567 59.73 238.639 59.91C238.723 60.078 238.783 60.258 238.819 60.45C238.867 60.642 238.897 60.768 238.909 60.828C239.545 59.928 240.241 59.478 240.997 59.478C241.333 59.478 241.591 59.544 241.771 59.676C241.951 59.808 242.041 59.976 242.041 60.18C242.041 60.384 242.005 60.6 241.933 60.828C241.861 61.044 241.777 61.152 241.681 61.152C241.621 61.152 241.501 61.122 241.321 61.062C241.153 60.99 240.943 60.954 240.691 60.954C240.415 60.954 240.151 61.038 239.899 61.206C239.659 61.362 239.455 61.536 239.287 61.728C239.119 61.92 239.035 62.028 239.035 62.052V68.64C239.035 68.904 238.795 69.036 238.315 69.036H238.243ZM247.895 69.108C246.395 69.108 245.285 68.718 244.565 67.938C243.845 67.158 243.485 65.964 243.485 64.356C243.485 62.76 243.839 61.548 244.547 60.72C245.255 59.892 246.299 59.478 247.679 59.478C248.903 59.478 249.827 59.88 250.451 60.684C251.075 61.476 251.387 62.64 251.387 64.176C251.387 64.284 251.315 64.434 251.171 64.626C251.027 64.818 250.901 64.914 250.793 64.914H245.105C245.177 65.91 245.435 66.642 245.879 67.11C246.323 67.578 246.989 67.812 247.877 67.812C248.381 67.812 248.813 67.752 249.173 67.632C249.545 67.5 249.851 67.374 250.091 67.254C250.331 67.122 250.469 67.056 250.505 67.056C250.625 67.056 250.757 67.176 250.901 67.416C251.057 67.656 251.135 67.836 251.135 67.956C251.135 68.1 250.985 68.268 250.685 68.46C250.385 68.64 249.983 68.796 249.479 68.928C248.987 69.048 248.459 69.108 247.895 69.108ZM249.785 63.618C249.785 61.722 249.065 60.774 247.625 60.774C246.077 60.774 245.237 61.722 245.105 63.618H249.785ZM264.118 59.55C264.598 59.55 264.838 59.652 264.838 59.856C264.838 59.916 264.82 60 264.784 60.108L260.158 72.366C260.062 72.618 259.78 72.744 259.312 72.744H259.042C258.646 72.744 258.448 72.648 258.448 72.456C258.448 72.408 258.478 72.306 258.538 72.15L260.05 68.478L256.9 60.09C256.864 59.982 256.846 59.904 256.846 59.856C256.846 59.652 257.104 59.55 257.62 59.55H257.764C258.184 59.55 258.424 59.646 258.484 59.838L260.32 64.716C260.512 65.244 260.704 65.85 260.896 66.534H260.932C260.956 66.45 260.98 66.372 261.004 66.3C261.028 66.216 261.052 66.138 261.076 66.066L261.526 64.716L263.326 59.838C263.386 59.646 263.632 59.55 264.064 59.55H264.118ZM270.354 69.108C268.998 69.108 267.96 68.7 267.24 67.884C266.532 67.068 266.178 65.886 266.178 64.338C266.178 62.778 266.538 61.578 267.258 60.738C267.978 59.898 269.01 59.478 270.354 59.478C271.674 59.478 272.682 59.898 273.378 60.738C274.086 61.566 274.44 62.766 274.44 64.338C274.44 65.898 274.092 67.086 273.396 67.902C272.712 68.706 271.698 69.108 270.354 69.108ZM270.3 67.812C271.176 67.812 271.824 67.53 272.244 66.966C272.664 66.39 272.874 65.502 272.874 64.302C272.874 63.102 272.664 62.214 272.244 61.638C271.824 61.062 271.176 60.774 270.3 60.774C269.424 60.774 268.782 61.062 268.374 61.638C267.966 62.202 267.762 63.09 267.762 64.302C267.762 65.502 267.966 66.39 268.374 66.966C268.782 67.53 269.424 67.812 270.3 67.812ZM279.721 69.108C278.809 69.108 278.089 68.85 277.561 68.334C277.045 67.818 276.787 67.104 276.787 66.192V59.946C276.787 59.682 277.027 59.55 277.507 59.55H277.579C278.059 59.55 278.299 59.682 278.299 59.946V66.048C278.299 66.6 278.455 67.032 278.767 67.344C279.091 67.644 279.547 67.794 280.135 67.794C280.543 67.794 280.945 67.68 281.341 67.452C281.749 67.224 282.103 66.918 282.403 66.534V59.946C282.403 59.682 282.643 59.55 283.123 59.55H283.195C283.675 59.55 283.915 59.682 283.915 59.946V66.336C283.915 67.128 283.951 67.698 284.023 68.046C284.095 68.382 284.131 68.568 284.131 68.604C284.131 68.748 284.017 68.856 283.789 68.928C283.561 68.988 283.351 69.018 283.159 69.018C282.991 69.018 282.865 68.928 282.781 68.748C282.709 68.556 282.649 68.358 282.601 68.154C282.565 67.95 282.541 67.818 282.529 67.758C282.145 68.178 281.707 68.508 281.215 68.748C280.723 68.988 280.225 69.108 279.721 69.108ZM293.578 69.108C292.978 69.108 292.438 68.928 291.958 68.568C291.49 68.196 291.256 67.548 291.256 66.624V55.86C291.256 55.596 291.496 55.464 291.976 55.464H292.048C292.528 55.464 292.768 55.596 292.768 55.86V66.48C292.768 66.984 292.852 67.332 293.02 67.524C293.2 67.716 293.44 67.812 293.74 67.812C293.968 67.812 294.136 67.8 294.244 67.776C294.364 67.74 294.454 67.722 294.514 67.722C294.622 67.722 294.712 67.836 294.784 68.064C294.856 68.28 294.892 68.448 294.892 68.568C294.892 68.928 294.454 69.108 293.578 69.108ZM300.29 69.108C298.934 69.108 297.896 68.7 297.176 67.884C296.468 67.068 296.114 65.886 296.114 64.338C296.114 62.778 296.474 61.578 297.194 60.738C297.914 59.898 298.946 59.478 300.29 59.478C301.61 59.478 302.618 59.898 303.314 60.738C304.022 61.566 304.376 62.766 304.376 64.338C304.376 65.898 304.028 67.086 303.332 67.902C302.648 68.706 301.634 69.108 300.29 69.108ZM300.236 67.812C301.112 67.812 301.76 67.53 302.18 66.966C302.6 66.39 302.81 65.502 302.81 64.302C302.81 63.102 302.6 62.214 302.18 61.638C301.76 61.062 301.112 60.774 300.236 60.774C299.36 60.774 298.718 61.062 298.31 61.638C297.902 62.202 297.698 63.09 297.698 64.302C297.698 65.502 297.902 66.39 298.31 66.966C298.718 67.53 299.36 67.812 300.236 67.812ZM308.864 69.162C308.348 69.162 307.868 69.102 307.424 68.982C306.992 68.85 306.644 68.694 306.38 68.514C306.128 68.334 306.002 68.172 306.002 68.028C306.002 67.908 306.074 67.728 306.218 67.488C306.374 67.248 306.512 67.128 306.632 67.128C306.656 67.128 306.77 67.194 306.974 67.326C307.178 67.458 307.43 67.578 307.73 67.686C308.042 67.794 308.384 67.848 308.756 67.848C309.932 67.848 310.52 67.362 310.52 66.39C310.52 65.982 310.388 65.658 310.124 65.418C309.86 65.178 309.392 64.962 308.72 64.77C307.772 64.494 307.118 64.152 306.758 63.744C306.398 63.324 306.218 62.766 306.218 62.07C306.218 61.566 306.344 61.116 306.596 60.72C306.86 60.324 307.214 60.018 307.658 59.802C308.114 59.574 308.63 59.46 309.206 59.46C309.818 59.46 310.364 59.538 310.844 59.694C311.336 59.85 311.582 60.03 311.582 60.234C311.582 60.39 311.51 60.594 311.366 60.846C311.234 61.086 311.114 61.206 311.006 61.206C310.97 61.194 310.808 61.116 310.52 60.972C310.244 60.816 309.86 60.738 309.368 60.738C308.912 60.738 308.528 60.84 308.216 61.044C307.916 61.248 307.766 61.524 307.766 61.872C307.766 62.28 307.874 62.604 308.09 62.844C308.306 63.084 308.666 63.282 309.17 63.438C309.938 63.678 310.52 63.918 310.916 64.158C311.324 64.386 311.612 64.674 311.78 65.022C311.96 65.358 312.05 65.802 312.05 66.354C312.05 66.882 311.906 67.362 311.618 67.794C311.342 68.214 310.958 68.55 310.466 68.802C309.986 69.042 309.452 69.162 308.864 69.162ZM317.056 69.108C316.456 69.108 315.916 68.928 315.436 68.568C314.968 68.196 314.734 67.548 314.734 66.624V60.882H313.834C313.714 60.882 313.624 60.84 313.564 60.756C313.504 60.672 313.474 60.534 313.474 60.342V60.126C313.474 59.934 313.504 59.796 313.564 59.712C313.624 59.628 313.714 59.586 313.834 59.586H314.734L314.95 57.696C314.986 57.432 315.178 57.3 315.526 57.3H315.706C316.066 57.3 316.246 57.432 316.246 57.696V59.586H317.758C317.89 59.586 317.98 59.628 318.028 59.712C318.088 59.796 318.118 59.934 318.118 60.126V60.342C318.118 60.534 318.088 60.672 318.028 60.756C317.98 60.84 317.89 60.882 317.758 60.882H316.246V66.48C316.246 66.984 316.33 67.332 316.498 67.524C316.678 67.716 316.918 67.812 317.218 67.812C317.446 67.812 317.614 67.8 317.722 67.776C317.842 67.74 317.932 67.722 317.992 67.722C318.1 67.722 318.19 67.836 318.262 68.064C318.334 68.28 318.37 68.448 318.37 68.568C318.37 68.928 317.932 69.108 317.056 69.108ZM322.182 65.364C321.822 65.364 321.642 65.226 321.642 64.95C321.642 64.542 321.774 64.086 322.038 63.582C322.314 63.078 322.698 62.58 323.19 62.088C323.79 61.488 324.222 61.008 324.486 60.648C324.762 60.276 324.9 59.892 324.9 59.496C324.9 58.248 324.144 57.624 322.632 57.624C322.296 57.624 321.99 57.666 321.714 57.75C321.438 57.834 321.144 57.942 320.832 58.074C320.592 58.182 320.448 58.236 320.4 58.236C320.316 58.236 320.196 58.116 320.04 57.876C319.896 57.636 319.824 57.45 319.824 57.318C319.824 57.03 320.16 56.79 320.832 56.598C321.504 56.394 322.2 56.292 322.92 56.292C323.688 56.292 324.348 56.43 324.9 56.706C325.464 56.97 325.89 57.336 326.178 57.804C326.466 58.26 326.61 58.764 326.61 59.316C326.61 59.868 326.466 60.366 326.178 60.81C325.89 61.254 325.464 61.764 324.9 62.34C324.312 62.916 323.868 63.39 323.568 63.762C323.28 64.134 323.106 64.548 323.046 65.004C323.022 65.124 322.968 65.214 322.884 65.274C322.8 65.334 322.656 65.364 322.452 65.364H322.182ZM322.128 69.036C321.648 69.036 321.408 68.904 321.408 68.64V67.452C321.408 67.188 321.648 67.056 322.128 67.056H322.434C322.914 67.056 323.154 67.188 323.154 67.452V68.64C323.154 68.904 322.914 69.036 322.434 69.036H322.128ZM151.283 92C151.091 92 150.953 91.958 150.869 91.874C150.785 91.79 150.743 91.652 150.743 91.46V79.76C150.743 79.496 150.983 79.364 151.463 79.364H151.607C152.087 79.364 152.327 79.496 152.327 79.76V90.632H157.277C157.409 90.632 157.499 90.674 157.547 90.758C157.607 90.842 157.637 90.98 157.637 91.172V91.46C157.637 91.652 157.607 91.79 157.547 91.874C157.499 91.958 157.409 92 157.277 92H151.283ZM163.116 92.108C161.616 92.108 160.506 91.718 159.786 90.938C159.066 90.158 158.706 88.964 158.706 87.356C158.706 85.76 159.06 84.548 159.768 83.72C160.476 82.892 161.52 82.478 162.9 82.478C164.124 82.478 165.048 82.88 165.672 83.684C166.296 84.476 166.608 85.64 166.608 87.176C166.608 87.284 166.536 87.434 166.392 87.626C166.248 87.818 166.122 87.914 166.014 87.914H160.326C160.398 88.91 160.656 89.642 161.1 90.11C161.544 90.578 162.21 90.812 163.098 90.812C163.602 90.812 164.034 90.752 164.394 90.632C164.766 90.5 165.072 90.374 165.312 90.254C165.552 90.122 165.69 90.056 165.726 90.056C165.846 90.056 165.978 90.176 166.122 90.416C166.278 90.656 166.356 90.836 166.356 90.956C166.356 91.1 166.206 91.268 165.906 91.46C165.606 91.64 165.204 91.796 164.7 91.928C164.208 92.048 163.68 92.108 163.116 92.108ZM165.006 86.618C165.006 84.722 164.286 83.774 162.846 83.774C161.298 83.774 160.458 84.722 160.326 86.618H165.006ZM171.667 92.108C171.067 92.108 170.527 91.928 170.047 91.568C169.579 91.196 169.345 90.548 169.345 89.624V83.882H168.445C168.325 83.882 168.235 83.84 168.175 83.756C168.115 83.672 168.085 83.534 168.085 83.342V83.126C168.085 82.934 168.115 82.796 168.175 82.712C168.235 82.628 168.325 82.586 168.445 82.586H169.345L169.561 80.696C169.597 80.432 169.789 80.3 170.137 80.3H170.317C170.677 80.3 170.857 80.432 170.857 80.696V82.586H172.369C172.501 82.586 172.591 82.628 172.639 82.712C172.699 82.796 172.729 82.934 172.729 83.126V83.342C172.729 83.534 172.699 83.672 172.639 83.756C172.591 83.84 172.501 83.882 172.369 83.882H170.857V89.48C170.857 89.984 170.941 90.332 171.109 90.524C171.289 90.716 171.529 90.812 171.829 90.812C172.057 90.812 172.225 90.8 172.333 90.776C172.453 90.74 172.543 90.722 172.603 90.722C172.711 90.722 172.801 90.836 172.873 91.064C172.945 91.28 172.981 91.448 172.981 91.568C172.981 91.928 172.543 92.108 171.667 92.108ZM174.669 82.46C174.537 82.46 174.417 82.442 174.309 82.406C174.201 82.358 174.147 82.286 174.147 82.19C174.147 82.118 174.201 81.974 174.309 81.758C174.717 80.942 174.921 80.024 174.921 79.004C174.921 78.824 174.981 78.686 175.101 78.59C175.221 78.482 175.401 78.428 175.641 78.428H175.803C176.031 78.428 176.205 78.476 176.325 78.572C176.457 78.656 176.523 78.776 176.523 78.932C176.523 79.604 176.415 80.21 176.199 80.75C175.983 81.278 175.725 81.698 175.425 82.01C175.137 82.31 174.885 82.46 174.669 82.46ZM180.878 92.162C180.362 92.162 179.882 92.102 179.438 91.982C179.006 91.85 178.658 91.694 178.394 91.514C178.142 91.334 178.016 91.172 178.016 91.028C178.016 90.908 178.088 90.728 178.232 90.488C178.388 90.248 178.526 90.128 178.646 90.128C178.67 90.128 178.784 90.194 178.988 90.326C179.192 90.458 179.444 90.578 179.744 90.686C180.056 90.794 180.398 90.848 180.77 90.848C181.946 90.848 182.534 90.362 182.534 89.39C182.534 88.982 182.402 88.658 182.138 88.418C181.874 88.178 181.406 87.962 180.734 87.77C179.786 87.494 179.132 87.152 178.772 86.744C178.412 86.324 178.232 85.766 178.232 85.07C178.232 84.566 178.358 84.116 178.61 83.72C178.874 83.324 179.228 83.018 179.672 82.802C180.128 82.574 180.644 82.46 181.22 82.46C181.832 82.46 182.378 82.538 182.858 82.694C183.35 82.85 183.596 83.03 183.596 83.234C183.596 83.39 183.524 83.594 183.38 83.846C183.248 84.086 183.128 84.206 183.02 84.206C182.984 84.194 182.822 84.116 182.534 83.972C182.258 83.816 181.874 83.738 181.382 83.738C180.926 83.738 180.542 83.84 180.23 84.044C179.93 84.248 179.78 84.524 179.78 84.872C179.78 85.28 179.888 85.604 180.104 85.844C180.32 86.084 180.68 86.282 181.184 86.438C181.952 86.678 182.534 86.918 182.93 87.158C183.338 87.386 183.626 87.674 183.794 88.022C183.974 88.358 184.064 88.802 184.064 89.354C184.064 89.882 183.92 90.362 183.632 90.794C183.356 91.214 182.972 91.55 182.48 91.802C182 92.042 181.466 92.162 180.878 92.162ZM193.7 95.816C192.548 95.816 191.636 95.636 190.964 95.276C190.304 94.916 189.974 94.352 189.974 93.584C189.974 93.056 190.124 92.6 190.424 92.216C190.724 91.832 191.12 91.538 191.612 91.334L191.63 91.298C191.15 90.914 190.91 90.422 190.91 89.822C190.91 89.042 191.246 88.418 191.918 87.95C191.414 87.698 191.03 87.35 190.766 86.906C190.502 86.462 190.37 85.964 190.37 85.412C190.37 84.56 190.682 83.858 191.306 83.306C191.93 82.754 192.8 82.478 193.916 82.478C194.3 82.478 194.654 82.514 194.978 82.586H198.254C198.386 82.586 198.476 82.628 198.524 82.712C198.584 82.796 198.614 82.934 198.614 83.126V83.342C198.614 83.534 198.584 83.672 198.524 83.756C198.476 83.84 198.386 83.882 198.254 83.882C197.762 83.882 197.342 83.864 196.994 83.828L196.976 83.864C197.288 84.308 197.444 84.824 197.444 85.412C197.444 86.276 197.132 86.984 196.508 87.536C195.896 88.088 195.026 88.364 193.898 88.364C193.334 88.364 192.908 88.466 192.62 88.67C192.332 88.862 192.188 89.174 192.188 89.606C192.188 89.918 192.284 90.158 192.476 90.326C192.68 90.482 192.932 90.596 193.232 90.668C193.532 90.74 193.952 90.806 194.492 90.866C194.756 90.89 194.954 90.914 195.086 90.938C195.95 91.046 196.616 91.25 197.084 91.55C197.564 91.838 197.804 92.354 197.804 93.098C197.804 93.974 197.456 94.646 196.76 95.114C196.064 95.582 195.044 95.816 193.7 95.816ZM193.898 87.158C194.558 87.158 195.08 87.026 195.464 86.762C195.86 86.486 196.058 86.042 196.058 85.43C196.058 84.266 195.338 83.684 193.898 83.684C192.47 83.684 191.756 84.266 191.756 85.43C191.756 86.582 192.47 87.158 193.898 87.158ZM193.898 94.592C194.738 94.592 195.356 94.484 195.752 94.268C196.16 94.052 196.364 93.716 196.364 93.26C196.364 92.84 196.166 92.558 195.77 92.414C195.374 92.27 194.78 92.156 193.988 92.072C193.268 92 192.776 91.922 192.512 91.838C191.72 92.174 191.324 92.66 191.324 93.296C191.324 94.16 192.182 94.592 193.898 94.592ZM204.138 92.108C202.782 92.108 201.744 91.7 201.024 90.884C200.316 90.068 199.962 88.886 199.962 87.338C199.962 85.778 200.322 84.578 201.042 83.738C201.762 82.898 202.794 82.478 204.138 82.478C205.458 82.478 206.466 82.898 207.162 83.738C207.87 84.566 208.224 85.766 208.224 87.338C208.224 88.898 207.876 90.086 207.18 90.902C206.496 91.706 205.482 92.108 204.138 92.108ZM204.084 90.812C204.96 90.812 205.608 90.53 206.028 89.966C206.448 89.39 206.658 88.502 206.658 87.302C206.658 86.102 206.448 85.214 206.028 84.638C205.608 84.062 204.96 83.774 204.084 83.774C203.208 83.774 202.566 84.062 202.158 84.638C201.75 85.202 201.546 86.09 201.546 87.302C201.546 88.502 201.75 89.39 202.158 89.966C202.566 90.53 203.208 90.812 204.084 90.812ZM219.322 92.108C218.278 92.108 217.324 91.658 216.46 90.758C216.4 91.118 216.304 91.472 216.172 91.82C216.112 91.964 215.95 92.036 215.686 92.036H215.614C215.254 92.036 215.074 91.904 215.074 91.64V78.86C215.074 78.596 215.314 78.464 215.794 78.464H215.866C216.346 78.464 216.586 78.596 216.586 78.86V83.396C216.97 83.096 217.36 82.868 217.756 82.712C218.164 82.556 218.632 82.478 219.16 82.478C219.88 82.478 220.516 82.664 221.068 83.036C221.62 83.408 222.046 83.954 222.346 84.674C222.658 85.394 222.814 86.264 222.814 87.284C222.814 88.22 222.67 89.054 222.382 89.786C222.106 90.518 221.704 91.088 221.176 91.496C220.648 91.904 220.03 92.108 219.322 92.108ZM219.016 90.794C219.724 90.794 220.27 90.482 220.654 89.858C221.038 89.222 221.23 88.322 221.23 87.158C221.23 86.078 221.026 85.25 220.618 84.674C220.21 84.098 219.61 83.81 218.818 83.81C218.422 83.81 218.026 83.882 217.63 84.026C217.246 84.158 216.898 84.356 216.586 84.62V89.552C216.946 89.948 217.336 90.254 217.756 90.47C218.188 90.686 218.608 90.794 219.016 90.794ZM227.752 92.108C226.828 92.108 226.084 91.88 225.52 91.424C224.956 90.968 224.674 90.296 224.674 89.408C224.674 88.46 224.956 87.752 225.52 87.284C226.096 86.804 226.798 86.498 227.626 86.366C228.454 86.222 229.462 86.144 230.65 86.132V85.286C230.65 84.842 230.494 84.482 230.182 84.206C229.87 83.918 229.366 83.774 228.67 83.774C228.142 83.774 227.68 83.84 227.284 83.972C226.888 84.092 226.558 84.218 226.294 84.35C226.03 84.47 225.886 84.53 225.862 84.53C225.742 84.53 225.604 84.41 225.448 84.17C225.304 83.93 225.232 83.75 225.232 83.63C225.232 83.474 225.388 83.306 225.7 83.126C226.024 82.946 226.45 82.796 226.978 82.676C227.506 82.544 228.052 82.478 228.616 82.478C229.732 82.478 230.602 82.73 231.226 83.234C231.85 83.726 232.162 84.416 232.162 85.304V89.336C232.162 90.128 232.198 90.698 232.27 91.046C232.342 91.382 232.378 91.568 232.378 91.604C232.378 91.748 232.264 91.856 232.036 91.928C231.808 91.988 231.598 92.018 231.406 92.018C231.238 92.018 231.112 91.928 231.028 91.748C230.956 91.556 230.896 91.358 230.848 91.154C230.812 90.95 230.788 90.818 230.776 90.758C229.96 91.658 228.952 92.108 227.752 92.108ZM227.824 90.794C228.412 90.794 228.916 90.686 229.336 90.47C229.768 90.254 230.206 89.948 230.65 89.552V87.428C229.75 87.44 229.012 87.476 228.436 87.536C227.872 87.596 227.374 87.764 226.942 88.04C226.51 88.316 226.294 88.742 226.294 89.318C226.294 89.798 226.42 90.164 226.672 90.416C226.936 90.668 227.32 90.794 227.824 90.794ZM238.965 92.108C237.477 92.108 236.367 91.724 235.635 90.956C234.903 90.188 234.537 88.952 234.537 87.248C234.537 85.532 234.945 84.308 235.761 83.576C236.577 82.844 237.591 82.478 238.803 82.478C239.499 82.478 240.123 82.562 240.675 82.73C241.227 82.898 241.503 83.09 241.503 83.306C241.503 83.462 241.431 83.666 241.287 83.918C241.155 84.158 241.035 84.278 240.927 84.278C240.903 84.278 240.873 84.272 240.837 84.26C240.813 84.236 240.777 84.218 240.729 84.206C240.081 83.918 239.427 83.774 238.767 83.774C237.027 83.774 236.157 84.92 236.157 87.212C236.157 88.484 236.367 89.402 236.787 89.966C237.219 90.53 237.939 90.812 238.947 90.812C239.679 90.812 240.357 90.656 240.981 90.344L241.179 90.272C241.299 90.272 241.431 90.392 241.575 90.632C241.719 90.86 241.791 91.046 241.791 91.19C241.791 91.334 241.659 91.478 241.395 91.622C241.143 91.754 240.801 91.868 240.369 91.964C239.937 92.06 239.469 92.108 238.965 92.108ZM250.887 91.496C250.995 91.616 251.049 91.712 251.049 91.784C251.049 91.88 250.989 91.946 250.869 91.982C250.749 92.018 250.545 92.036 250.257 92.036H250.185C249.933 92.036 249.729 92.024 249.573 92C249.417 91.964 249.297 91.898 249.213 91.802L245.613 87.536H245.541V91.64C245.541 91.904 245.301 92.036 244.821 92.036H244.749C244.269 92.036 244.029 91.904 244.029 91.64V78.86C244.029 78.596 244.269 78.464 244.749 78.464H244.821C245.301 78.464 245.541 78.596 245.541 78.86V86.906H245.613L249.051 82.802C249.183 82.634 249.501 82.55 250.005 82.55H250.077C250.281 82.55 250.437 82.574 250.545 82.622C250.653 82.658 250.707 82.712 250.707 82.784C250.707 82.892 250.647 83.012 250.527 83.144L247.179 87.104L250.887 91.496ZM258.424 92.036C257.944 92.036 257.704 91.904 257.704 91.64V78.86C257.704 78.596 257.944 78.464 258.424 78.464H258.496C258.976 78.464 259.216 78.596 259.216 78.86V83.72C259.576 83.36 259.99 83.066 260.458 82.838C260.938 82.598 261.442 82.478 261.97 82.478C262.726 82.478 263.392 82.694 263.968 83.126C264.544 83.546 264.832 84.302 264.832 85.394V91.64C264.832 91.904 264.592 92.036 264.112 92.036H264.04C263.56 92.036 263.32 91.904 263.32 91.64V85.538C263.32 84.998 263.164 84.572 262.852 84.26C262.54 83.948 262.084 83.792 261.484 83.792C261.088 83.792 260.722 83.888 260.386 84.08C260.05 84.26 259.768 84.464 259.54 84.692C259.324 84.908 259.216 85.028 259.216 85.052V91.64C259.216 91.904 258.976 92.036 258.496 92.036H258.424ZM271.392 92.108C270.036 92.108 268.998 91.7 268.278 90.884C267.57 90.068 267.216 88.886 267.216 87.338C267.216 85.778 267.576 84.578 268.296 83.738C269.016 82.898 270.048 82.478 271.392 82.478C272.712 82.478 273.72 82.898 274.416 83.738C275.124 84.566 275.478 85.766 275.478 87.338C275.478 88.898 275.13 90.086 274.434 90.902C273.75 91.706 272.736 92.108 271.392 92.108ZM271.338 90.812C272.214 90.812 272.862 90.53 273.282 89.966C273.702 89.39 273.912 88.502 273.912 87.302C273.912 86.102 273.702 85.214 273.282 84.638C272.862 84.062 272.214 83.774 271.338 83.774C270.462 83.774 269.82 84.062 269.412 84.638C269.004 85.202 268.8 86.09 268.8 87.302C268.8 88.502 269.004 89.39 269.412 89.966C269.82 90.53 270.462 90.812 271.338 90.812ZM287.562 82.478C288.318 82.478 288.978 82.694 289.542 83.126C290.106 83.546 290.388 84.302 290.388 85.394V91.64C290.388 91.904 290.148 92.036 289.668 92.036H289.596C289.116 92.036 288.876 91.904 288.876 91.64V85.538C288.876 84.998 288.726 84.572 288.426 84.26C288.138 83.948 287.712 83.792 287.148 83.792C286.38 83.792 285.642 84.212 284.934 85.052C284.946 85.136 284.952 85.256 284.952 85.412V91.64C284.952 91.904 284.712 92.036 284.232 92.036H284.16C283.68 92.036 283.44 91.904 283.44 91.64V85.538C283.44 84.998 283.29 84.572 282.99 84.26C282.702 83.948 282.276 83.792 281.712 83.792C281.328 83.792 280.968 83.888 280.632 84.08C280.308 84.26 280.038 84.458 279.822 84.674C279.618 84.89 279.516 85.01 279.516 85.034V91.64C279.516 91.904 279.276 92.036 278.796 92.036H278.724C278.244 92.036 278.004 91.904 278.004 91.64V85.322C278.004 84.53 277.968 83.966 277.896 83.63C277.824 83.282 277.788 83.09 277.788 83.054C277.788 82.91 277.902 82.808 278.13 82.748C278.358 82.676 278.568 82.64 278.76 82.64C278.928 82.64 279.048 82.73 279.12 82.91C279.204 83.078 279.264 83.258 279.3 83.45C279.348 83.642 279.378 83.768 279.39 83.828C279.726 83.444 280.128 83.126 280.596 82.874C281.076 82.61 281.586 82.478 282.126 82.478C282.666 82.478 283.17 82.592 283.638 82.82C284.118 83.036 284.472 83.42 284.7 83.972C285.072 83.54 285.504 83.186 285.996 82.91C286.5 82.622 287.022 82.478 287.562 82.478ZM297.131 92.108C295.631 92.108 294.521 91.718 293.801 90.938C293.081 90.158 292.721 88.964 292.721 87.356C292.721 85.76 293.075 84.548 293.783 83.72C294.491 82.892 295.535 82.478 296.915 82.478C298.139 82.478 299.063 82.88 299.687 83.684C300.311 84.476 300.623 85.64 300.623 87.176C300.623 87.284 300.551 87.434 300.407 87.626C300.263 87.818 300.137 87.914 300.029 87.914H294.341C294.413 88.91 294.671 89.642 295.115 90.11C295.559 90.578 296.225 90.812 297.113 90.812C297.617 90.812 298.049 90.752 298.409 90.632C298.781 90.5 299.087 90.374 299.327 90.254C299.567 90.122 299.705 90.056 299.741 90.056C299.861 90.056 299.993 90.176 300.137 90.416C300.293 90.656 300.371 90.836 300.371 90.956C300.371 91.1 300.221 91.268 299.921 91.46C299.621 91.64 299.219 91.796 298.715 91.928C298.223 92.048 297.695 92.108 297.131 92.108ZM299.021 86.618C299.021 84.722 298.301 83.774 296.861 83.774C295.313 83.774 294.473 84.722 294.341 86.618H299.021ZM303.073 92.036C302.593 92.036 302.353 91.904 302.353 91.64V90.452C302.353 90.188 302.593 90.056 303.073 90.056H303.379C303.859 90.056 304.099 90.188 304.099 90.452V91.64C304.099 91.904 303.859 92.036 303.379 92.036H303.073Z" fill="white"/>
<defs>
<filter id="filter0_d" x="0" y="0" width="374" height="424" filterUnits="userSpaceOnUse" color-interpolation-filters="sRGB">
<feFlood flood-opacity="0" result="BackgroundImageFix"/>
<feColorMatrix in="SourceAlpha" type="matrix" values="0 0 0 0 0 0 0 0 0 0 0 0 0 0 0 0 0 0 127 0"/>
<feOffset dy="4"/>
<feGaussianBlur stdDeviation="6"/>
<feColorMatrix type="matrix" values="0 0 0 0 0.133333 0 0 0 0 0.133333 0 0 0 0 0.133333 0 0 0 0.2 0"/>
<feBlend mode="normal" in2="BackgroundImageFix" result="effect1_dropShadow"/>
<feBlend mode="normal" in="SourceGraphic" in2="effect1_dropShadow" result="shape"/>
</filter>
</defs>
</svg>
