<svg width="139" height="90" fill="none" xmlns="http://www.w3.org/2000/svg"><g filter="url(#filter0_d)"><rect x="1.078" y=".839" width="97.55" height="61.813" rx="8.693" transform="rotate(-7.127 210.494 3.27)" fill="#fff" stroke="#3867D4" stroke-width="1.932"/><path d="M53.132 51.155c.96 7.675-4.484 14.674-12.159 15.634-7.675.96-14.674-4.484-15.634-12.159-.96-7.675 4.484-14.674 12.16-15.634 7.674-.96 14.674 4.484 15.633 12.16z" stroke="#3867D4" stroke-width="1.932"/><path d="M80.925 47.68c.96 7.675-4.484 14.675-12.159 15.634-7.675.96-14.674-4.484-15.634-12.159-.96-7.674 4.484-14.674 12.16-15.633 7.674-.96 14.674 4.484 15.633 12.158z" stroke="#3867D4" stroke-width="1.932"/><path d="M104.846 59.934l-3.881-31.04 15.495-7.235c4.158-1.941 9 .735 9.569 5.287l3.368 26.932c.534 4.274-3.011 7.952-7.301 7.574l-17.25-1.518z" fill="#fff" stroke="#3867D4" stroke-width="1.932"/><path d="M31.87 21.206c-.662-5.293 3.093-10.12 8.386-10.782l19.167-2.396c5.293-.662 10.12 3.092 10.782 8.385l.36 2.875-38.335 4.793-.36-2.875z" fill="#3867D4"/></g><defs><filter id="filter0_d" x="2.438" y=".225" width="135.703" height="87.904" filterUnits="userSpaceOnUse" color-interpolation-filters="sRGB"><feFlood flood-opacity="0" result="BackgroundImageFix"/><feColorMatrix in="SourceAlpha" values="0 0 0 0 0 0 0 0 0 0 0 0 0 0 0 0 0 0 127 0"/><feOffset dx="7.727" dy="-7.727"/><feColorMatrix values="0 0 0 0 0 0 0 0 0 0 0 0 0 0 0 0 0 0 0.1 0"/><feBlend in2="BackgroundImageFix" result="effect1_dropShadow"/><feBlend in="SourceGraphic" in2="effect1_dropShadow" result="shape"/></filter></defs></svg>